SplineFontDB: 3.2
FontName: Yas-BoldItalic
FullName: Yas Bold Italic
FamilyName: Yas
Weight: Bold
Copyright: Copyright (c) IRMUG (Iranian Mac User Group), 2007. All rights reserved.
Version: 4.00 April 9, 2010
ItalicAngle: 0
UnderlinePosition: -600
UnderlineWidth: 60
Ascent: 1638
Descent: 410
InvalidEm: 0
sfntRevision: 0x00040000
LayerCount: 2
Layer: 0 1 "Back" 1
Layer: 1 1 "Fore" 0
XUID: [1021 420 722297922 8765217]
StyleMap: 0x0021
FSType: 0
OS2Version: 2
OS2_WeightWidthSlopeOnly: 0
OS2_UseTypoMetrics: 0
CreationTime: 1194658560
ModificationTime: 1662231259
PfmFamily: 17
TTFWeight: 700
TTFWidth: 5
LineGap: 0
VLineGap: 0
Panose: 2 0 8 3 2 0 0 2 0 3
OS2TypoAscent: 2100
OS2TypoAOffset: 0
OS2TypoDescent: -1000
OS2TypoDOffset: 0
OS2TypoLinegap: 0
OS2WinAscent: 2100
OS2WinAOffset: 0
OS2WinDescent: 1000
OS2WinDOffset: 0
HheadAscent: 2100
HheadAOffset: 0
HheadDescent: -1000
HheadDOffset: 0
OS2SubXSize: 1434
OS2SubYSize: 1331
OS2SubXOff: 0
OS2SubYOff: 293
OS2SupXSize: 1434
OS2SupYSize: 1331
OS2SupXOff: 0
OS2SupYOff: 928
OS2StrikeYSize: 102
OS2StrikeYPos: 512
OS2CapHeight: 1384
OS2XHeight: 944
OS2Vendor: 'pars'
OS2CodePages: 20000051.41000000
OS2UnicodeRanges: 00002003.80000000.00000008.00000000
Lookup: 6 0 0 "'ccmp' Glyph Composition/Decomposition in Arabic lookup 0" { "'ccmp' Glyph Composition/Decomposition in Arabic lookup 0 contextual 0"  "'ccmp' Glyph Composition/Decomposition in Arabic lookup 0 contextual 1"  "'ccmp' Glyph Composition/Decomposition in Arabic lookup 0 contextual 2"  "'ccmp' Glyph Composition/Decomposition in Arabic lookup 0 contextual 3"  "'ccmp' Glyph Composition/Decomposition in Arabic lookup 0 contextual 4"  "'ccmp' Glyph Composition/Decomposition in Arabic lookup 0 contextual 5"  } ['ccmp' ('arab' <'ARA ' 'DRI ' 'FAR ' 'KUR ' 'PAS ' 'URD ' 'UYG ' 'UZB ' 'dflt' > ) ]

StartChar: .notdef
Encoding: 65536 -1 0
Width: 1122
GlyphClass: 2
Flags: W
LayerCount: 2
Fore
SplineSet
624 299 m 0,0,1
 624 269 624 269 602 246.5 c 128,-1,2
 580 224 580 224 548 224 c 0,3,4
 518 224 518 224 496.5 246.5 c 128,-1,5
 475 269 475 269 475 299 c 0,6,7
 475 331 475 331 496.5 352.5 c 128,-1,8
 518 374 518 374 551 374 c 0,9,10
 581 374 581 374 602.5 352.5 c 128,-1,11
 624 331 624 331 624 299 c 0,0,1
732 780 m 0,12,13
 732 737 732 737 708.5 710 c 128,-1,14
 685 683 685 683 648 683 c 0,15,16
 616 683 616 683 597 701.5 c 128,-1,17
 578 720 578 720 578 749 c 0,18,19
 578 770 578 770 588 785 c 128,-1,20
 598 800 598 800 610.5 810.5 c 128,-1,21
 623 821 623 821 633 829 c 128,-1,22
 643 837 643 837 643 843 c 0,23,24
 643 863 643 863 623.5 875 c 128,-1,25
 604 887 604 887 574 887 c 0,26,27
 536 887 536 887 512 866 c 128,-1,28
 488 845 488 845 488 813 c 0,29,30
 488 795 488 795 498.5 769 c 128,-1,31
 509 743 509 743 521.5 718 c 128,-1,32
 534 693 534 693 545.5 673 c 128,-1,33
 557 653 557 653 559 648 c 0,34,35
 570 619 570 619 576.5 583.5 c 128,-1,36
 583 548 583 548 583 513 c 0,37,38
 583 492 583 492 581.5 470.5 c 128,-1,39
 580 449 580 449 578 424 c 1,40,-1
 539 424 l 1,41,-1
 539 442 l 1,42,-1
 543 472 l 1,43,44
 543 505 543 505 498 544 c 0,45,46
 425 609 425 609 416 620 c 0,47,48
 371 673 371 673 371 740 c 0,49,50
 371 781 371 781 386 815.5 c 128,-1,51
 401 850 401 850 426.5 875.5 c 128,-1,52
 452 901 452 901 486.5 915 c 128,-1,53
 521 929 521 929 560 929 c 0,54,55
 595 929 595 929 626.5 918.5 c 128,-1,56
 658 908 658 908 681.5 888.5 c 128,-1,57
 705 869 705 869 718.5 841.5 c 128,-1,58
 732 814 732 814 732 780 c 0,12,13
132 31 m 1,59,-1
 992 31 l 1,60,-1
 992 1122 l 1,61,-1
 132 1122 l 1,62,-1
 132 31 l 1,59,-1
100 0 m 1,63,-1
 100 1154 l 1,64,-1
 1022 1154 l 1,65,-1
 1022 0 l 1,66,-1
 100 0 l 1,63,-1
EndSplineSet
PairPos2: "'kern' Horizontal Kerning in Arabic lookup 0 subtable" afii57509 dx=0 dy=0 dh=0 dv=0 dx=0 dy=0 dh=250 dv=0
PairPos2: "'kern' Horizontal Kerning in Arabic lookup 0 subtable" uni06AB dx=0 dy=0 dh=0 dv=0 dx=0 dy=0 dh=250 dv=0
PairPos2: "'kern' Horizontal Kerning in Arabic lookup 0 subtable" uni06A9 dx=0 dy=0 dh=0 dv=0 dx=0 dy=0 dh=250 dv=0
PairPos2: "'kern' Horizontal Kerning in Arabic lookup 0 subtable" uniFB94 dx=0 dy=0 dh=0 dv=0 dx=0 dy=0 dh=250 dv=0
PairPos2: "'kern' Horizontal Kerning in Arabic lookup 0 subtable" uniFBD5 dx=0 dy=0 dh=0 dv=0 dx=0 dy=0 dh=250 dv=0
PairPos2: "'kern' Horizontal Kerning in Arabic lookup 0 subtable" uni06AB.ini dx=0 dy=0 dh=0 dv=0 dx=0 dy=0 dh=250 dv=0
PairPos2: "'kern' Horizontal Kerning in Arabic lookup 0 subtable" uniFB90 dx=0 dy=0 dh=0 dv=0 dx=0 dy=0 dh=250 dv=0
PairPos2: "'kern' Horizontal Kerning in Arabic lookup 0 subtable" uniFEDB dx=0 dy=0 dh=0 dv=0 dx=0 dy=0 dh=250 dv=0
PairPos2: "'kern' Horizontal Kerning in Arabic lookup 0 subtable" uni0671 dx=0 dy=0 dh=0 dv=0 dx=0 dy=0 dh=200 dv=0
PairPos2: "'kern' Horizontal Kerning in Arabic lookup 0 subtable" afii57410 dx=0 dy=0 dh=0 dv=0 dx=0 dy=0 dh=200 dv=0
PairPos2: "'kern' Horizontal Kerning in Arabic lookup 0 subtable" afii57415 dx=0 dy=0 dh=0 dv=0 dx=0 dy=0 dh=50 dv=0
EndChar

StartChar: exclam
Encoding: 33 33 4
Width: 667
GlyphClass: 2
Flags: W
LayerCount: 2
Fore
SplineSet
174 398 m 0,0,1
 203 398 203 398 233.5 386.5 c 128,-1,2
 264 375 264 375 291 352.5 c 128,-1,3
 318 330 318 330 339 298 c 128,-1,4
 360 266 360 266 369 225 c 0,5,6
 377 186 377 186 370.5 153.5 c 128,-1,7
 364 121 364 121 346 98.5 c 128,-1,8
 328 76 328 76 303 63.5 c 128,-1,9
 278 51 278 51 248 51 c 0,10,11
 219 51 219 51 188 63 c 128,-1,12
 157 75 157 75 129.5 97.5 c 128,-1,13
 102 120 102 120 81.5 152 c 128,-1,14
 61 184 61 184 52 225 c 256,15,16
 43 266 43 266 50.5 298.5 c 128,-1,17
 58 331 58 331 76 353 c 128,-1,18
 94 375 94 375 120 386.5 c 128,-1,19
 146 398 146 398 174 398 c 0,0,1
-59 1495 m 0,20,21
 -30 1495 -30 1495 1 1482.5 c 128,-1,22
 32 1470 32 1470 61 1448 c 0,23,24
 88 1428 88 1428 109 1388 c 128,-1,25
 130 1348 130 1348 143 1292 c 0,26,27
 143 1289 143 1289 142 1260.5 c 128,-1,28
 141 1232 141 1232 139 1188.5 c 128,-1,29
 137 1145 137 1145 135.5 1091 c 128,-1,30
 134 1037 134 1037 133 984.5 c 128,-1,31
 132 932 132 932 132 885.5 c 128,-1,32
 132 839 132 839 134 809 c 0,33,34
 135 777 135 777 142 712.5 c 128,-1,35
 149 648 149 648 157 557 c 1,36,-1
 126 557 l 1,37,38
 106 617 106 617 91.5 660 c 128,-1,39
 77 703 77 703 66 734 c 128,-1,40
 55 765 55 765 47 785.5 c 128,-1,41
 39 806 39 806 33 820 c 0,42,43
 29 830 29 830 13.5 864 c 128,-1,44
 -2 898 -2 898 -24.5 944.5 c 128,-1,45
 -47 991 -47 991 -71.5 1043.5 c 128,-1,46
 -96 1096 -96 1096 -118 1144 c 128,-1,47
 -140 1192 -140 1192 -155.5 1228.5 c 128,-1,48
 -171 1265 -171 1265 -174 1279 c 0,49,50
 -188 1345 -188 1345 -182 1386.5 c 128,-1,51
 -176 1428 -176 1428 -158 1452 c 128,-1,52
 -140 1476 -140 1476 -113 1485 c 128,-1,53
 -86 1494 -86 1494 -59 1495 c 0,20,21
EndSplineSet
PairPos2: "'kern' Horizontal Kerning in Arabic lookup 0 subtable" afii57509 dx=0 dy=0 dh=0 dv=0 dx=0 dy=0 dh=250 dv=0
PairPos2: "'kern' Horizontal Kerning in Arabic lookup 0 subtable" uni06AB dx=0 dy=0 dh=0 dv=0 dx=0 dy=0 dh=250 dv=0
PairPos2: "'kern' Horizontal Kerning in Arabic lookup 0 subtable" uni06A9 dx=0 dy=0 dh=0 dv=0 dx=0 dy=0 dh=250 dv=0
PairPos2: "'kern' Horizontal Kerning in Arabic lookup 0 subtable" uniFB94 dx=0 dy=0 dh=0 dv=0 dx=0 dy=0 dh=250 dv=0
PairPos2: "'kern' Horizontal Kerning in Arabic lookup 0 subtable" uniFBD5 dx=0 dy=0 dh=0 dv=0 dx=0 dy=0 dh=250 dv=0
PairPos2: "'kern' Horizontal Kerning in Arabic lookup 0 subtable" uni06AB.ini dx=0 dy=0 dh=0 dv=0 dx=0 dy=0 dh=250 dv=0
PairPos2: "'kern' Horizontal Kerning in Arabic lookup 0 subtable" uniFB90 dx=0 dy=0 dh=0 dv=0 dx=0 dy=0 dh=250 dv=0
PairPos2: "'kern' Horizontal Kerning in Arabic lookup 0 subtable" uniFEDB dx=0 dy=0 dh=0 dv=0 dx=0 dy=0 dh=250 dv=0
PairPos2: "'kern' Horizontal Kerning in Arabic lookup 0 subtable" uni0671 dx=0 dy=0 dh=0 dv=0 dx=0 dy=0 dh=200 dv=0
PairPos2: "'kern' Horizontal Kerning in Arabic lookup 0 subtable" afii57410 dx=0 dy=0 dh=0 dv=0 dx=0 dy=0 dh=200 dv=0
PairPos2: "'kern' Horizontal Kerning in Arabic lookup 0 subtable" afii57415 dx=0 dy=0 dh=0 dv=0 dx=0 dy=0 dh=50 dv=0
EndChar

StartChar: quotedbl
Encoding: 34 34 5
Width: 1137
GlyphClass: 2
Flags: W
LayerCount: 2
Fore
SplineSet
199 1285 m 0,0,1
 200 1279 200 1279 202 1268 c 128,-1,2
 204 1257 204 1257 205.5 1245.5 c 128,-1,3
 207 1234 207 1234 207.5 1223.5 c 128,-1,4
 208 1213 208 1213 208 1207 c 0,5,6
 214 1099 214 1099 220.5 988 c 128,-1,7
 227 877 227 877 233 769 c 1,8,-1
 197 769 l 1,9,-1
 35 1207 l 2,10,11
 29 1225 29 1225 22.5 1245.5 c 128,-1,12
 16 1266 16 1266 12 1285 c 0,13,14
 -3 1354 -3 1354 18 1384.5 c 128,-1,15
 39 1415 39 1415 78 1415 c 0,16,17
 128 1415 128 1415 159 1375 c 1,18,-1
 159 1376 l 1,19,20
 187 1342 187 1342 199 1285 c 0,0,1
612 769 m 1,21,-1
 576 769 l 1,22,-1
 413 1207 l 2,23,24
 403 1238 403 1238 397 1257 c 128,-1,25
 391 1276 391 1276 389 1284 c 0,26,27
 375 1351 375 1351 394 1383 c 128,-1,28
 413 1415 413 1415 454 1415 c 256,29,30
 495 1415 495 1415 529 1385.5 c 128,-1,31
 563 1356 563 1356 578 1289 c 0,32,33
 580 1274 580 1274 583 1246.5 c 128,-1,34
 586 1219 586 1219 590 1178 c 2,35,-1
 612 769 l 1,21,-1
EndSplineSet
PairPos2: "'kern' Horizontal Kerning in Arabic lookup 0 subtable" afii57509 dx=0 dy=0 dh=0 dv=0 dx=0 dy=0 dh=250 dv=0
PairPos2: "'kern' Horizontal Kerning in Arabic lookup 0 subtable" uni06AB dx=0 dy=0 dh=0 dv=0 dx=0 dy=0 dh=250 dv=0
PairPos2: "'kern' Horizontal Kerning in Arabic lookup 0 subtable" uni06A9 dx=0 dy=0 dh=0 dv=0 dx=0 dy=0 dh=250 dv=0
PairPos2: "'kern' Horizontal Kerning in Arabic lookup 0 subtable" uniFB94 dx=0 dy=0 dh=0 dv=0 dx=0 dy=0 dh=250 dv=0
PairPos2: "'kern' Horizontal Kerning in Arabic lookup 0 subtable" uniFBD5 dx=0 dy=0 dh=0 dv=0 dx=0 dy=0 dh=250 dv=0
PairPos2: "'kern' Horizontal Kerning in Arabic lookup 0 subtable" uni06AB.ini dx=0 dy=0 dh=0 dv=0 dx=0 dy=0 dh=250 dv=0
PairPos2: "'kern' Horizontal Kerning in Arabic lookup 0 subtable" uniFB90 dx=0 dy=0 dh=0 dv=0 dx=0 dy=0 dh=250 dv=0
PairPos2: "'kern' Horizontal Kerning in Arabic lookup 0 subtable" uniFEDB dx=0 dy=0 dh=0 dv=0 dx=0 dy=0 dh=250 dv=0
PairPos2: "'kern' Horizontal Kerning in Arabic lookup 0 subtable" uni0671 dx=0 dy=0 dh=0 dv=0 dx=0 dy=0 dh=200 dv=0
PairPos2: "'kern' Horizontal Kerning in Arabic lookup 0 subtable" afii57410 dx=0 dy=0 dh=0 dv=0 dx=0 dy=0 dh=200 dv=0
PairPos2: "'kern' Horizontal Kerning in Arabic lookup 0 subtable" afii57415 dx=0 dy=0 dh=0 dv=0 dx=0 dy=0 dh=50 dv=0
EndChar

StartChar: numbersign
Encoding: 35 35 6
Width: 1024
GlyphClass: 2
Flags: W
LayerCount: 2
Fore
SplineSet
248 520 m 1,0,-1
 460 520 l 1,1,2
 460 528 460 528 461 554 c 128,-1,3
 462 580 462 580 463.5 615.5 c 128,-1,4
 465 651 465 651 466.5 691 c 128,-1,5
 468 731 468 731 470 766 c 128,-1,6
 472 801 472 801 472.5 827 c 128,-1,7
 473 853 473 853 474 861 c 1,8,-1
 264 861 l 1,9,10
 262 819 262 819 259.5 776 c 128,-1,11
 257 733 257 733 255 691 c 2,12,-1
 248 520 l 1,0,-1
-85 520 m 1,13,-1
 110 520 l 1,14,15
 112 561 112 561 114 605.5 c 128,-1,16
 116 650 116 650 118 691 c 2,17,-1
 127 861 l 1,18,-1
 -65 861 l 1,19,-1
 -69 970 l 1,20,-1
 127 970 l 1,21,22
 128 986 128 986 130 1018 c 128,-1,23
 132 1050 132 1050 134.5 1090.5 c 128,-1,24
 137 1131 137 1131 140 1175.5 c 128,-1,25
 143 1220 143 1220 146.5 1260.5 c 128,-1,26
 150 1301 150 1301 151.5 1333.5 c 128,-1,27
 153 1366 153 1366 155 1381 c 1,28,-1
 292 1381 l 1,29,-1
 265 970 l 1,30,-1
 476 970 l 1,31,32
 477 986 477 986 479 1018 c 128,-1,33
 481 1050 481 1050 483.5 1090.5 c 128,-1,34
 486 1131 486 1131 489.5 1175.5 c 128,-1,35
 493 1220 493 1220 496.5 1260.5 c 128,-1,36
 500 1301 500 1301 501.5 1333.5 c 128,-1,37
 503 1366 503 1366 505 1381 c 1,38,-1
 641 1381 l 1,39,-1
 612 970 l 1,40,-1
 805 970 l 1,41,-1
 809 861 l 1,42,-1
 612 861 l 1,43,44
 610 819 610 819 607.5 776 c 128,-1,45
 605 733 605 733 603 691 c 2,46,-1
 595 520 l 1,47,-1
 789 520 l 1,48,-1
 793 411 l 1,49,-1
 586 411 l 1,50,51
 586 396 586 396 585 364 c 128,-1,52
 584 332 584 332 581.5 291.5 c 128,-1,53
 579 251 579 251 577.5 206 c 128,-1,54
 576 161 576 161 574 120 c 128,-1,55
 572 79 572 79 570.5 47 c 128,-1,56
 569 15 569 15 568 0 c 1,57,-1
 432 0 l 1,58,-1
 453 411 l 1,59,-1
 242 411 l 1,60,61
 240 362 240 362 236 310 c 128,-1,62
 232 258 232 258 229 207 c 2,63,-1
 216 0 l 1,64,-1
 81 0 l 1,65,-1
 105 411 l 1,66,-1
 -82 411 l 1,67,-1
 -85 520 l 1,13,-1
EndSplineSet
PairPos2: "'kern' Horizontal Kerning in Arabic lookup 0 subtable" afii57509 dx=0 dy=0 dh=0 dv=0 dx=0 dy=0 dh=250 dv=0
PairPos2: "'kern' Horizontal Kerning in Arabic lookup 0 subtable" uni06AB dx=0 dy=0 dh=0 dv=0 dx=0 dy=0 dh=250 dv=0
PairPos2: "'kern' Horizontal Kerning in Arabic lookup 0 subtable" uni06A9 dx=0 dy=0 dh=0 dv=0 dx=0 dy=0 dh=250 dv=0
PairPos2: "'kern' Horizontal Kerning in Arabic lookup 0 subtable" uniFB94 dx=0 dy=0 dh=0 dv=0 dx=0 dy=0 dh=250 dv=0
PairPos2: "'kern' Horizontal Kerning in Arabic lookup 0 subtable" uniFBD5 dx=0 dy=0 dh=0 dv=0 dx=0 dy=0 dh=250 dv=0
PairPos2: "'kern' Horizontal Kerning in Arabic lookup 0 subtable" uni06AB.ini dx=0 dy=0 dh=0 dv=0 dx=0 dy=0 dh=250 dv=0
PairPos2: "'kern' Horizontal Kerning in Arabic lookup 0 subtable" uniFB90 dx=0 dy=0 dh=0 dv=0 dx=0 dy=0 dh=250 dv=0
PairPos2: "'kern' Horizontal Kerning in Arabic lookup 0 subtable" uniFEDB dx=0 dy=0 dh=0 dv=0 dx=0 dy=0 dh=250 dv=0
PairPos2: "'kern' Horizontal Kerning in Arabic lookup 0 subtable" uni0671 dx=0 dy=0 dh=0 dv=0 dx=0 dy=0 dh=200 dv=0
PairPos2: "'kern' Horizontal Kerning in Arabic lookup 0 subtable" afii57410 dx=0 dy=0 dh=0 dv=0 dx=0 dy=0 dh=200 dv=0
PairPos2: "'kern' Horizontal Kerning in Arabic lookup 0 subtable" afii57415 dx=0 dy=0 dh=0 dv=0 dx=0 dy=0 dh=50 dv=0
EndChar

StartChar: dollar
Encoding: 36 36 7
Width: 1024
GlyphClass: 2
Flags: W
LayerCount: 2
Fore
SplineSet
170 1315 m 1,0,-1
 154 1315 l 1,1,2
 113 1309 113 1309 80.5 1294 c 128,-1,3
 48 1279 48 1279 27 1255 c 128,-1,4
 6 1231 6 1231 -1.5 1199.5 c 128,-1,5
 -9 1168 -9 1168 -1 1130 c 0,6,7
 12 1071 12 1071 68.5 1019.5 c 128,-1,8
 125 968 125 968 232 930 c 1,9,-1
 251 930 l 1,10,-1
 170 1315 l 1,0,-1
693 288 m 0,11,12
 678 357 678 357 616.5 409.5 c 128,-1,13
 555 462 555 462 447 511 c 1,14,-1
 426 511 l 1,15,-1
 521 63 l 1,16,-1
 537 63 l 1,17,18
 636 77 636 77 674.5 136 c 128,-1,19
 713 195 713 195 693 288 c 0,11,12
38 404 m 1,20,21
 72 338 72 338 114.5 278 c 128,-1,22
 157 218 157 218 206 171.5 c 128,-1,23
 255 125 255 125 309 96 c 128,-1,24
 363 67 363 67 421 63 c 1,25,-1
 436 63 l 1,26,-1
 327 575 l 1,27,-1
 320 575 l 1,28,29
 236 613 236 613 167 652 c 128,-1,30
 98 691 98 691 51 726 c 0,31,32
 -24 783 -24 783 -73.5 856 c 128,-1,33
 -123 929 -123 929 -141 1007 c 0,34,35
 -159 1091 -159 1091 -142.5 1157.5 c 128,-1,36
 -126 1224 -126 1224 -85.5 1271 c 128,-1,37
 -45 1318 -45 1318 15.5 1345 c 128,-1,38
 76 1372 76 1372 145 1377 c 1,39,-1
 158 1377 l 1,40,-1
 125 1536 l 1,41,-1
 208 1536 l 1,42,-1
 241 1379 l 1,43,-1
 253 1379 l 1,44,45
 366 1364 366 1364 446 1339 c 0,46,47
 482 1328 482 1328 518.5 1311.5 c 128,-1,48
 555 1295 555 1295 591 1276 c 1,49,-1
 653 985 l 1,50,-1
 637 985 l 1,51,52
 572 1105 572 1105 512 1173 c 0,53,54
 463 1229 463 1229 402 1263 c 128,-1,55
 341 1297 341 1297 272 1311 c 1,56,-1
 255 1311 l 1,57,-1
 349 873 l 1,58,-1
 356 873 l 1,59,60
 463 825 463 825 542.5 781.5 c 128,-1,61
 622 738 622 738 671 701 c 0,62,63
 749 641 749 641 800 565.5 c 128,-1,64
 851 490 851 490 870 402 c 0,65,66
 887 320 887 320 875.5 251 c 128,-1,67
 864 182 864 182 823.5 130.5 c 128,-1,68
 783 79 783 79 714 45.5 c 128,-1,69
 645 12 645 12 546 0 c 1,70,-1
 534 0 l 1,71,-1
 578 -204 l 1,72,-1
 495 -204 l 1,73,-1
 451 0 l 1,74,-1
 438 0 l 1,75,76
 358 4 358 4 303 15 c 0,77,78
 260 23 260 23 207.5 40 c 128,-1,79
 155 57 155 57 91 83 c 1,80,-1
 22 406 l 1,81,-1
 38 404 l 1,20,21
EndSplineSet
PairPos2: "'kern' Horizontal Kerning in Arabic lookup 0 subtable" afii57509 dx=0 dy=0 dh=0 dv=0 dx=0 dy=0 dh=250 dv=0
PairPos2: "'kern' Horizontal Kerning in Arabic lookup 0 subtable" uni06AB dx=0 dy=0 dh=0 dv=0 dx=0 dy=0 dh=250 dv=0
PairPos2: "'kern' Horizontal Kerning in Arabic lookup 0 subtable" uni06A9 dx=0 dy=0 dh=0 dv=0 dx=0 dy=0 dh=250 dv=0
PairPos2: "'kern' Horizontal Kerning in Arabic lookup 0 subtable" uniFB94 dx=0 dy=0 dh=0 dv=0 dx=0 dy=0 dh=250 dv=0
PairPos2: "'kern' Horizontal Kerning in Arabic lookup 0 subtable" uniFBD5 dx=0 dy=0 dh=0 dv=0 dx=0 dy=0 dh=250 dv=0
PairPos2: "'kern' Horizontal Kerning in Arabic lookup 0 subtable" uni06AB.ini dx=0 dy=0 dh=0 dv=0 dx=0 dy=0 dh=250 dv=0
PairPos2: "'kern' Horizontal Kerning in Arabic lookup 0 subtable" uniFB90 dx=0 dy=0 dh=0 dv=0 dx=0 dy=0 dh=250 dv=0
PairPos2: "'kern' Horizontal Kerning in Arabic lookup 0 subtable" uniFEDB dx=0 dy=0 dh=0 dv=0 dx=0 dy=0 dh=250 dv=0
PairPos2: "'kern' Horizontal Kerning in Arabic lookup 0 subtable" uni0671 dx=0 dy=0 dh=0 dv=0 dx=0 dy=0 dh=200 dv=0
PairPos2: "'kern' Horizontal Kerning in Arabic lookup 0 subtable" afii57410 dx=0 dy=0 dh=0 dv=0 dx=0 dy=0 dh=200 dv=0
PairPos2: "'kern' Horizontal Kerning in Arabic lookup 0 subtable" afii57415 dx=0 dy=0 dh=0 dv=0 dx=0 dy=0 dh=50 dv=0
EndChar

StartChar: percent
Encoding: 37 37 8
Width: 2048
GlyphClass: 2
Flags: W
LayerCount: 2
Fore
SplineSet
647 1164 m 0,0,1
 643 1184 643 1184 638 1198.5 c 128,-1,2
 633 1213 633 1213 629 1220 c 1,3,-1
 629 1219 l 1,4,5
 625 1224 625 1224 618.5 1227 c 128,-1,6
 612 1230 612 1230 601 1234.5 c 128,-1,7
 590 1239 590 1239 573.5 1247 c 128,-1,8
 557 1255 557 1255 533 1270 c 0,9,10
 516 1280 516 1280 504.5 1284.5 c 128,-1,11
 493 1289 493 1289 485 1289 c 0,12,13
 437 1289 437 1289 399 1239.5 c 128,-1,14
 361 1190 361 1190 334 1099 c 0,15,16
 308 1003 308 1003 299 930.5 c 128,-1,17
 290 858 290 858 300 810 c 0,18,19
 311 759 311 759 345.5 728 c 128,-1,20
 380 697 380 697 437 697 c 0,21,22
 562 697 562 697 619 857 c 0,23,24
 678 1021 678 1021 647 1164 c 0,0,1
1624 542 m 0,25,26
 1617 575 1617 575 1603 603 c 128,-1,27
 1589 631 1589 631 1569.5 651.5 c 128,-1,28
 1550 672 1550 672 1524 683.5 c 128,-1,29
 1498 695 1498 695 1468 695 c 0,30,31
 1409 695 1409 695 1367.5 646 c 128,-1,32
 1326 597 1326 597 1301 503 c 0,33,34
 1277 409 1277 409 1269.5 337.5 c 128,-1,35
 1262 266 1262 266 1270 223 c 0,36,37
 1283 163 1283 163 1322.5 134.5 c 128,-1,38
 1362 106 1362 106 1413 106 c 0,39,40
 1537 106 1537 106 1591 264 c 0,41,42
 1649 427 1649 427 1624 542 c 0,25,26
1663 549 m 0,43,44
 1699 377 1699 377 1623 195 c 0,45,46
 1546 9 1546 9 1361 9 c 0,47,48
 1314 9 1314 9 1263.5 28.5 c 128,-1,49
 1213 48 1213 48 1169 85 c 128,-1,50
 1125 122 1125 122 1091 176 c 128,-1,51
 1057 230 1057 230 1042 299 c 0,52,53
 1003 484 1003 484 1109 641 c 0,54,55
 1221 802 1221 802 1386 802 c 0,56,57
 1436 802 1436 802 1480.5 786 c 128,-1,58
 1525 770 1525 770 1561 738 c 128,-1,59
 1597 706 1597 706 1623.5 658.5 c 128,-1,60
 1650 611 1650 611 1663 549 c 0,43,44
694 1154 m 1,61,62
 710 1071 710 1071 703 985 c 128,-1,63
 696 899 696 899 665 814 c 0,64,65
 584 602 584 602 405 602 c 0,66,67
 354 602 354 602 301 621.5 c 128,-1,68
 248 641 248 641 202.5 678.5 c 128,-1,69
 157 716 157 716 123 772 c 128,-1,70
 89 828 89 828 74 901 c 0,71,72
 53 994 53 994 71 1076.5 c 128,-1,73
 89 1159 89 1159 143 1234 c 0,74,75
 256 1389 256 1389 411 1389 c 0,76,77
 479 1389 479 1389 578 1332 c 256,78,79
 677 1275 677 1275 790 1275 c 0,80,81
 847 1275 847 1275 896.5 1287.5 c 128,-1,82
 946 1300 946 1300 988 1320 c 128,-1,83
 1030 1340 1030 1340 1062.5 1365.5 c 128,-1,84
 1095 1391 1095 1391 1117 1417 c 1,85,-1
 1175 1417 l 1,86,-1
 675 -19 l 1,87,-1
 585 -19 l 1,88,-1
 1023 1247 l 1,89,-1
 1006 1247 l 1,90,91
 983 1235 983 1235 953 1226 c 128,-1,92
 923 1217 923 1217 892.5 1210 c 128,-1,93
 862 1203 862 1203 832 1199.5 c 128,-1,94
 802 1196 802 1196 776 1196 c 0,95,96
 771 1196 771 1196 766.5 1196.5 c 128,-1,97
 762 1197 762 1197 754.5 1198 c 128,-1,98
 747 1199 747 1199 733.5 1201 c 128,-1,99
 720 1203 720 1203 696 1206 c 2,100,-1
 680 1206 l 1,101,-1
 694 1154 l 1,61,62
EndSplineSet
Ligature2: "<17013,16013> Roman in Arabic lookup 72 subtable" zero fraction zero
Ligature2: "<17013,16013> Roman in Arabic lookup 72 subtable" zero slash zero
Ligature2: "Ligature Substitution lookup 42 subtable" zero fraction zero
Ligature2: "Ligature Substitution lookup 42 subtable" zero slash zero
PairPos2: "'kern' Horizontal Kerning in Arabic lookup 0 subtable" afii57509 dx=0 dy=0 dh=0 dv=0 dx=0 dy=0 dh=250 dv=0
PairPos2: "'kern' Horizontal Kerning in Arabic lookup 0 subtable" uni06AB dx=0 dy=0 dh=0 dv=0 dx=0 dy=0 dh=250 dv=0
PairPos2: "'kern' Horizontal Kerning in Arabic lookup 0 subtable" uni06A9 dx=0 dy=0 dh=0 dv=0 dx=0 dy=0 dh=250 dv=0
PairPos2: "'kern' Horizontal Kerning in Arabic lookup 0 subtable" uniFB94 dx=0 dy=0 dh=0 dv=0 dx=0 dy=0 dh=250 dv=0
PairPos2: "'kern' Horizontal Kerning in Arabic lookup 0 subtable" uniFBD5 dx=0 dy=0 dh=0 dv=0 dx=0 dy=0 dh=250 dv=0
PairPos2: "'kern' Horizontal Kerning in Arabic lookup 0 subtable" uni06AB.ini dx=0 dy=0 dh=0 dv=0 dx=0 dy=0 dh=250 dv=0
PairPos2: "'kern' Horizontal Kerning in Arabic lookup 0 subtable" uniFB90 dx=0 dy=0 dh=0 dv=0 dx=0 dy=0 dh=250 dv=0
PairPos2: "'kern' Horizontal Kerning in Arabic lookup 0 subtable" uniFEDB dx=0 dy=0 dh=0 dv=0 dx=0 dy=0 dh=250 dv=0
PairPos2: "'kern' Horizontal Kerning in Arabic lookup 0 subtable" uni0671 dx=0 dy=0 dh=0 dv=0 dx=0 dy=0 dh=200 dv=0
PairPos2: "'kern' Horizontal Kerning in Arabic lookup 0 subtable" afii57410 dx=0 dy=0 dh=0 dv=0 dx=0 dy=0 dh=200 dv=0
PairPos2: "'kern' Horizontal Kerning in Arabic lookup 0 subtable" afii57415 dx=0 dy=0 dh=0 dv=0 dx=0 dy=0 dh=50 dv=0
EndChar

StartChar: ampersand
Encoding: 38 38 9
Width: 1706
GlyphClass: 2
Flags: W
LayerCount: 2
Fore
SplineSet
684 977 m 0,0,1
 730 1027 730 1027 716 1096 c 0,2,3
 708 1133 708 1133 686 1176 c 128,-1,4
 664 1219 664 1219 629 1263 c 0,5,6
 596 1305 596 1305 552.5 1327 c 128,-1,7
 509 1349 509 1349 460 1349 c 0,8,9
 433 1349 433 1349 412.5 1339.5 c 128,-1,10
 392 1330 392 1330 379.5 1314 c 128,-1,11
 367 1298 367 1298 363 1276.5 c 128,-1,12
 359 1255 359 1255 364 1231 c 0,13,14
 370 1203 370 1203 382 1176 c 128,-1,15
 394 1149 394 1149 419 1115 c 128,-1,16
 444 1081 444 1081 483 1037 c 128,-1,17
 522 993 522 993 582 930 c 1,18,-1
 598 930 l 1,19,20
 628 942 628 942 650 954 c 128,-1,21
 672 966 672 966 684 977 c 0,0,1
789 154 m 0,22,23
 804 163 804 163 823.5 177 c 128,-1,24
 843 191 843 191 868 210 c 1,25,-1
 870 210 l 1,26,27
 858 223 858 223 836.5 245.5 c 128,-1,28
 815 268 815 268 790.5 295 c 128,-1,29
 766 322 766 322 739.5 351 c 128,-1,30
 713 380 713 380 689.5 405 c 128,-1,31
 666 430 666 430 648.5 449.5 c 128,-1,32
 631 469 631 469 624 477 c 0,33,34
 604 500 604 500 579.5 528 c 128,-1,35
 555 556 555 556 526 589 c 2,36,-1
 397 736 l 1,37,-1
 378 736 l 1,38,39
 303 684 303 684 284 656 c 0,40,41
 248 603 248 603 262 533 c 0,42,43
 289 413 289 413 423 270 c 0,44,45
 555 130 555 130 687 130 c 0,46,47
 745 130 745 130 789 154 c 0,22,23
181 1094 m 0,48,49
 165 1169 165 1169 179 1229 c 128,-1,50
 193 1289 193 1289 234 1331 c 128,-1,51
 275 1373 275 1373 343.5 1396 c 128,-1,52
 412 1419 412 1419 503 1419 c 0,53,54
 578 1419 578 1419 641.5 1400.5 c 128,-1,55
 705 1382 705 1382 754 1349 c 128,-1,56
 803 1316 803 1316 834.5 1270 c 128,-1,57
 866 1224 866 1224 878 1169 c 0,58,59
 889 1117 889 1117 878 1072.5 c 128,-1,60
 867 1028 867 1028 836 991 c 128,-1,61
 805 954 805 954 755.5 923.5 c 128,-1,62
 706 893 706 893 642 868 c 1,63,-1
 637 868 l 1,64,65
 648 856 648 856 679 822 c 128,-1,66
 710 788 710 788 750.5 744 c 128,-1,67
 791 700 791 700 836.5 650 c 128,-1,68
 882 600 882 600 922 556 c 128,-1,69
 962 512 962 512 993 478.5 c 128,-1,70
 1024 445 1024 445 1035 432 c 1,71,-1
 1057 432 l 1,72,73
 1088 486 1088 486 1109.5 527 c 128,-1,74
 1131 568 1131 568 1138 588 c 0,75,76
 1152 623 1152 623 1156 659.5 c 128,-1,77
 1160 696 1160 696 1155 722 c 0,78,79
 1150 745 1150 745 1138 761.5 c 128,-1,80
 1126 778 1126 778 1110 786 c 0,81,82
 1085 799 1085 799 1001 810 c 1,83,-1
 990 863 l 1,84,-1
 1384 863 l 1,85,-1
 1395 810 l 1,86,87
 1358 805 1358 805 1332 796 c 128,-1,88
 1306 787 1306 787 1295 775 c 0,89,90
 1280 759 1280 759 1261 716 c 128,-1,91
 1242 673 1242 673 1218 609 c 1,92,-1
 1218 610 l 1,93,94
 1213 596 1213 596 1209 585.5 c 128,-1,95
 1205 575 1205 575 1199.5 563.5 c 128,-1,96
 1194 552 1194 552 1186.5 537 c 128,-1,97
 1179 522 1179 522 1167.5 499 c 128,-1,98
 1156 476 1156 476 1139 443.5 c 128,-1,99
 1122 411 1122 411 1098 365 c 1,100,101
 1142 320 1142 320 1180 285.5 c 128,-1,102
 1218 251 1218 251 1252 227 c 128,-1,103
 1286 203 1286 203 1319.5 191 c 128,-1,104
 1353 179 1353 179 1389 179 c 0,105,106
 1414 179 1414 179 1434 186 c 128,-1,107
 1454 193 1454 193 1468.5 203.5 c 128,-1,108
 1483 214 1483 214 1492 226 c 128,-1,109
 1501 238 1501 238 1504 248 c 1,110,-1
 1526 236 l 1,111,112
 1500 128 1500 128 1465 78 c 0,113,114
 1389 -30 1389 -30 1266 -30 c 0,115,116
 1222 -30 1222 -30 1174.5 -14 c 128,-1,117
 1127 2 1127 2 1077 32 c 0,118,119
 1053 47 1053 47 1014 78.5 c 128,-1,120
 975 110 975 110 929 151 c 1,121,-1
 911 151 l 1,122,123
 865 111 865 111 821.5 79.5 c 128,-1,124
 778 48 778 48 746 33 c 0,125,126
 688 4 688 4 623.5 -12.5 c 128,-1,127
 559 -29 559 -29 495 -29 c 0,128,129
 429 -29 429 -29 358 -5.5 c 128,-1,130
 287 18 287 18 225 63 c 128,-1,131
 163 108 163 108 116 173.5 c 128,-1,132
 69 239 69 239 52 323 c 0,133,134
 11 513 11 513 126 642 c 0,135,136
 161 680 161 680 214.5 720 c 128,-1,137
 268 760 268 760 342 799 c 1,138,-1
 347 799 l 1,139,140
 310 847 310 847 281.5 887 c 128,-1,141
 253 927 253 927 232 963 c 0,142,143
 195 1026 195 1026 181 1094 c 0,48,49
EndSplineSet
PairPos2: "'kern' Horizontal Kerning in Arabic lookup 0 subtable" afii57509 dx=0 dy=0 dh=0 dv=0 dx=0 dy=0 dh=250 dv=0
PairPos2: "'kern' Horizontal Kerning in Arabic lookup 0 subtable" uni06AB dx=0 dy=0 dh=0 dv=0 dx=0 dy=0 dh=250 dv=0
PairPos2: "'kern' Horizontal Kerning in Arabic lookup 0 subtable" uni06A9 dx=0 dy=0 dh=0 dv=0 dx=0 dy=0 dh=250 dv=0
PairPos2: "'kern' Horizontal Kerning in Arabic lookup 0 subtable" uniFB94 dx=0 dy=0 dh=0 dv=0 dx=0 dy=0 dh=250 dv=0
PairPos2: "'kern' Horizontal Kerning in Arabic lookup 0 subtable" uniFBD5 dx=0 dy=0 dh=0 dv=0 dx=0 dy=0 dh=250 dv=0
PairPos2: "'kern' Horizontal Kerning in Arabic lookup 0 subtable" uni06AB.ini dx=0 dy=0 dh=0 dv=0 dx=0 dy=0 dh=250 dv=0
PairPos2: "'kern' Horizontal Kerning in Arabic lookup 0 subtable" uniFB90 dx=0 dy=0 dh=0 dv=0 dx=0 dy=0 dh=250 dv=0
PairPos2: "'kern' Horizontal Kerning in Arabic lookup 0 subtable" uniFEDB dx=0 dy=0 dh=0 dv=0 dx=0 dy=0 dh=250 dv=0
PairPos2: "'kern' Horizontal Kerning in Arabic lookup 0 subtable" uni0671 dx=0 dy=0 dh=0 dv=0 dx=0 dy=0 dh=200 dv=0
PairPos2: "'kern' Horizontal Kerning in Arabic lookup 0 subtable" afii57410 dx=0 dy=0 dh=0 dv=0 dx=0 dy=0 dh=200 dv=0
PairPos2: "'kern' Horizontal Kerning in Arabic lookup 0 subtable" afii57415 dx=0 dy=0 dh=0 dv=0 dx=0 dy=0 dh=50 dv=0
EndChar

StartChar: quotesingle
Encoding: 39 39 10
Width: 569
GlyphClass: 2
Flags: W
LayerCount: 2
Fore
SplineSet
-12 1415 m 0,0,1
 33 1415 33 1415 62 1385 c 128,-1,2
 91 1355 91 1355 103 1299 c 0,3,4
 107 1278 107 1278 111 1238.5 c 128,-1,5
 115 1199 115 1199 119.5 1150.5 c 128,-1,6
 124 1102 124 1102 127 1048 c 128,-1,7
 130 994 130 994 132 942.5 c 128,-1,8
 134 891 134 891 136 845.5 c 128,-1,9
 138 800 138 800 139 769 c 1,10,-1
 103 769 l 1,11,12
 60 888 60 888 30 971.5 c 128,-1,13
 0 1055 0 1055 -20 1111.5 c 128,-1,14
 -40 1168 -40 1168 -52 1202 c 128,-1,15
 -64 1236 -64 1236 -70.5 1255.5 c 128,-1,16
 -77 1275 -77 1275 -79.5 1284 c 128,-1,17
 -82 1293 -82 1293 -83 1299 c 0,18,19
 -95 1353 -95 1353 -77.5 1384 c 128,-1,20
 -60 1415 -60 1415 -12 1415 c 0,0,1
EndSplineSet
PairPos2: "'kern' Horizontal Kerning in Arabic lookup 0 subtable" afii57509 dx=0 dy=0 dh=0 dv=0 dx=0 dy=0 dh=250 dv=0
PairPos2: "'kern' Horizontal Kerning in Arabic lookup 0 subtable" uni06AB dx=0 dy=0 dh=0 dv=0 dx=0 dy=0 dh=250 dv=0
PairPos2: "'kern' Horizontal Kerning in Arabic lookup 0 subtable" uni06A9 dx=0 dy=0 dh=0 dv=0 dx=0 dy=0 dh=250 dv=0
PairPos2: "'kern' Horizontal Kerning in Arabic lookup 0 subtable" uniFB94 dx=0 dy=0 dh=0 dv=0 dx=0 dy=0 dh=250 dv=0
PairPos2: "'kern' Horizontal Kerning in Arabic lookup 0 subtable" uniFBD5 dx=0 dy=0 dh=0 dv=0 dx=0 dy=0 dh=250 dv=0
PairPos2: "'kern' Horizontal Kerning in Arabic lookup 0 subtable" uni06AB.ini dx=0 dy=0 dh=0 dv=0 dx=0 dy=0 dh=250 dv=0
PairPos2: "'kern' Horizontal Kerning in Arabic lookup 0 subtable" uniFB90 dx=0 dy=0 dh=0 dv=0 dx=0 dy=0 dh=250 dv=0
PairPos2: "'kern' Horizontal Kerning in Arabic lookup 0 subtable" uniFEDB dx=0 dy=0 dh=0 dv=0 dx=0 dy=0 dh=250 dv=0
PairPos2: "'kern' Horizontal Kerning in Arabic lookup 0 subtable" uni0671 dx=0 dy=0 dh=0 dv=0 dx=0 dy=0 dh=200 dv=0
PairPos2: "'kern' Horizontal Kerning in Arabic lookup 0 subtable" afii57410 dx=0 dy=0 dh=0 dv=0 dx=0 dy=0 dh=200 dv=0
PairPos2: "'kern' Horizontal Kerning in Arabic lookup 0 subtable" afii57415 dx=0 dy=0 dh=0 dv=0 dx=0 dy=0 dh=50 dv=0
EndChar

StartChar: parenleft
Encoding: 40 40 11
Width: 819
GlyphClass: 2
Flags: W
LayerCount: 2
Fore
SplineSet
723 -496 m 1,0,1
 731 -531 731 -531 697 -531 c 0,2,3
 686 -531 686 -531 676.5 -527 c 128,-1,4
 667 -523 667 -523 656 -515 c 0,5,6
 608 -482 608 -482 557.5 -440 c 128,-1,7
 507 -398 507 -398 456 -348 c 128,-1,8
 405 -298 405 -298 358 -242 c 128,-1,9
 311 -186 311 -186 269 -126 c 0,10,11
 171 17 171 17 100.5 176.5 c 128,-1,12
 30 336 30 336 -6 495 c 0,13,14
 -22 567 -22 567 -27.5 644 c 128,-1,15
 -33 721 -33 721 -30 798 c 128,-1,16
 -27 875 -27 875 -17 951.5 c 128,-1,17
 -7 1028 -7 1028 10 1100 c 0,18,19
 47 1231 47 1231 101.5 1335 c 128,-1,20
 156 1439 156 1439 227 1505 c 0,21,22
 249 1525 249 1525 264 1525 c 0,23,24
 294 1525 294 1525 300 1495 c 0,25,26
 302 1485 302 1485 299.5 1471 c 128,-1,27
 297 1457 297 1457 291 1440 c 0,28,29
 196 1191 196 1191 170.5 953 c 128,-1,30
 145 715 145 715 191 495 c 0,31,32
 220 359 220 359 273 221 c 128,-1,33
 326 83 326 83 401 -55 c 0,34,35
 469 -175 469 -175 542 -273.5 c 128,-1,36
 615 -372 615 -372 690 -446 c 1,37,-1
 689 -447 l 1,38,-1
 723 -496 l 1,0,1
EndSplineSet
Substitution2: "Single Substitution lookup 34 subtable" zerowidthspace
PairPos2: "'kern' Horizontal Kerning in Arabic lookup 0 subtable" afii57509 dx=0 dy=0 dh=0 dv=0 dx=0 dy=0 dh=250 dv=0
PairPos2: "'kern' Horizontal Kerning in Arabic lookup 0 subtable" uni06AB dx=0 dy=0 dh=0 dv=0 dx=0 dy=0 dh=250 dv=0
PairPos2: "'kern' Horizontal Kerning in Arabic lookup 0 subtable" uni06A9 dx=0 dy=0 dh=0 dv=0 dx=0 dy=0 dh=250 dv=0
PairPos2: "'kern' Horizontal Kerning in Arabic lookup 0 subtable" uniFB94 dx=0 dy=0 dh=0 dv=0 dx=0 dy=0 dh=250 dv=0
PairPos2: "'kern' Horizontal Kerning in Arabic lookup 0 subtable" uniFBD5 dx=0 dy=0 dh=0 dv=0 dx=0 dy=0 dh=250 dv=0
PairPos2: "'kern' Horizontal Kerning in Arabic lookup 0 subtable" uni06AB.ini dx=0 dy=0 dh=0 dv=0 dx=0 dy=0 dh=250 dv=0
PairPos2: "'kern' Horizontal Kerning in Arabic lookup 0 subtable" uniFB90 dx=0 dy=0 dh=0 dv=0 dx=0 dy=0 dh=250 dv=0
PairPos2: "'kern' Horizontal Kerning in Arabic lookup 0 subtable" uniFEDB dx=0 dy=0 dh=0 dv=0 dx=0 dy=0 dh=250 dv=0
PairPos2: "'kern' Horizontal Kerning in Arabic lookup 0 subtable" uni0671 dx=0 dy=0 dh=0 dv=0 dx=0 dy=0 dh=200 dv=0
PairPos2: "'kern' Horizontal Kerning in Arabic lookup 0 subtable" afii57410 dx=0 dy=0 dh=0 dv=0 dx=0 dy=0 dh=200 dv=0
PairPos2: "'kern' Horizontal Kerning in Arabic lookup 0 subtable" afii57415 dx=0 dy=0 dh=0 dv=0 dx=0 dy=0 dh=50 dv=0
EndChar

StartChar: parenright
Encoding: 41 41 12
Width: 818
GlyphClass: 2
Flags: W
LayerCount: 2
Fore
SplineSet
-218 1492 m 1,0,1
 -225 1526 -225 1526 -195 1526 c 0,2,3
 -175 1526 -175 1526 -151 1511 c 0,4,5
 -48 1445 -48 1445 49.5 1346.5 c 128,-1,6
 147 1248 147 1248 238 1119 c 0,7,8
 284 1050 284 1050 326.5 973.5 c 128,-1,9
 369 897 369 897 405 817.5 c 128,-1,10
 441 738 441 738 468 657 c 128,-1,11
 495 576 495 576 512 498 c 0,12,13
 544 346 544 346 539.5 196 c 128,-1,14
 535 46 535 46 495 -106 c 0,15,16
 460 -238 460 -238 403.5 -340.5 c 128,-1,17
 347 -443 347 -443 279 -509 c 0,18,19
 270 -519 270 -519 261 -525 c 128,-1,20
 252 -531 252 -531 241 -531 c 0,21,22
 212 -531 212 -531 206 -499 c 0,23,24
 204 -491 204 -491 205.5 -477.5 c 128,-1,25
 207 -464 207 -464 213 -448 c 0,26,27
 410 54 410 54 315 498 c 0,28,29
 285 636 285 636 232 773 c 128,-1,30
 179 910 179 910 102 1049 c 0,31,32
 35 1170 35 1170 -38 1268 c 128,-1,33
 -111 1366 -111 1366 -187 1441 c 1,34,-1
 -218 1492 l 1,0,1
EndSplineSet
Substitution2: "Single Substitution lookup 34 subtable" zerowidthspace
PairPos2: "'kern' Horizontal Kerning in Arabic lookup 0 subtable" afii57509 dx=0 dy=0 dh=0 dv=0 dx=0 dy=0 dh=250 dv=0
PairPos2: "'kern' Horizontal Kerning in Arabic lookup 0 subtable" uni06AB dx=0 dy=0 dh=0 dv=0 dx=0 dy=0 dh=250 dv=0
PairPos2: "'kern' Horizontal Kerning in Arabic lookup 0 subtable" uni06A9 dx=0 dy=0 dh=0 dv=0 dx=0 dy=0 dh=250 dv=0
PairPos2: "'kern' Horizontal Kerning in Arabic lookup 0 subtable" uniFB94 dx=0 dy=0 dh=0 dv=0 dx=0 dy=0 dh=250 dv=0
PairPos2: "'kern' Horizontal Kerning in Arabic lookup 0 subtable" uniFBD5 dx=0 dy=0 dh=0 dv=0 dx=0 dy=0 dh=250 dv=0
PairPos2: "'kern' Horizontal Kerning in Arabic lookup 0 subtable" uni06AB.ini dx=0 dy=0 dh=0 dv=0 dx=0 dy=0 dh=250 dv=0
PairPos2: "'kern' Horizontal Kerning in Arabic lookup 0 subtable" uniFB90 dx=0 dy=0 dh=0 dv=0 dx=0 dy=0 dh=250 dv=0
PairPos2: "'kern' Horizontal Kerning in Arabic lookup 0 subtable" uniFEDB dx=0 dy=0 dh=0 dv=0 dx=0 dy=0 dh=250 dv=0
PairPos2: "'kern' Horizontal Kerning in Arabic lookup 0 subtable" uni0671 dx=0 dy=0 dh=0 dv=0 dx=0 dy=0 dh=200 dv=0
PairPos2: "'kern' Horizontal Kerning in Arabic lookup 0 subtable" afii57410 dx=0 dy=0 dh=0 dv=0 dx=0 dy=0 dh=200 dv=0
PairPos2: "'kern' Horizontal Kerning in Arabic lookup 0 subtable" afii57415 dx=0 dy=0 dh=0 dv=0 dx=0 dy=0 dh=50 dv=0
EndChar

StartChar: asterisk
Encoding: 42 42 13
Width: 1024
GlyphClass: 2
Flags: W
LayerCount: 2
Fore
SplineSet
265 985 m 1,0,-1
 258 985 l 1,1,2
 204 1008 204 1008 -1 1041 c 0,3,4
 -100 1058 -100 1058 -120 1146 c 0,5,6
 -124 1168 -124 1168 -119.5 1186 c 128,-1,7
 -115 1204 -115 1204 -105.5 1217 c 128,-1,8
 -96 1230 -96 1230 -82.5 1237 c 128,-1,9
 -69 1244 -69 1244 -55 1244 c 0,10,11
 6 1244 6 1244 65 1173 c 0,12,13
 115 1113 115 1113 165 1074 c 128,-1,14
 215 1035 215 1035 260 1020 c 1,15,16
 277 1024 277 1024 281.5 1035 c 128,-1,17
 286 1046 286 1046 282 1061 c 0,18,19
 280 1076 280 1076 270 1094.5 c 128,-1,20
 260 1113 260 1113 249 1131 c 128,-1,21
 238 1149 238 1149 227 1165.5 c 128,-1,22
 216 1182 216 1182 210 1194 c 1,23,-1
 209 1193 l 1,24,25
 154 1261 154 1261 143 1315 c 0,26,27
 131 1371 131 1371 153 1395.5 c 128,-1,28
 175 1420 175 1420 211 1420 c 0,29,30
 244 1420 244 1420 276 1392 c 128,-1,31
 308 1364 308 1364 320 1307 c 0,32,33
 323 1287 323 1287 319 1259 c 128,-1,34
 315 1231 315 1231 305 1197 c 0,35,36
 298 1177 298 1177 294.5 1144.5 c 128,-1,37
 291 1112 291 1112 298 1081 c 0,38,39
 302 1060 302 1060 313 1042.5 c 128,-1,40
 324 1025 324 1025 343 1015 c 1,41,42
 375 1044 375 1044 405 1084.5 c 128,-1,43
 435 1125 435 1125 453 1160 c 0,44,45
 474 1199 474 1199 498.5 1224.5 c 128,-1,46
 523 1250 523 1250 547 1250 c 0,47,48
 585 1250 585 1250 615 1221 c 128,-1,49
 645 1192 645 1192 655 1148 c 0,50,51
 664 1102 664 1102 634 1074 c 128,-1,52
 604 1046 604 1046 539 1036 c 0,53,54
 467 1025 467 1025 417 1009.5 c 128,-1,55
 367 994 367 994 350 977 c 1,56,-1
 355 963 l 1,57,58
 410 933 410 933 600 910 c 0,59,60
 708 897 708 897 728 802 c 0,61,62
 736 760 736 760 718.5 731 c 128,-1,63
 701 702 701 702 664 702 c 0,64,65
 607 702 607 702 521 804 c 0,66,67
 480 853 480 853 436 884 c 128,-1,68
 392 915 392 915 347 928 c 1,69,70
 333 925 333 925 330.5 914 c 128,-1,71
 328 903 328 903 330 887 c 0,72,73
 334 871 334 871 343 851 c 128,-1,74
 352 831 352 831 363.5 811.5 c 128,-1,75
 375 792 375 792 386 775 c 128,-1,76
 397 758 397 758 405 747 c 0,77,78
 429 712 429 712 446.5 682.5 c 128,-1,79
 464 653 464 653 467 633 c 0,80,81
 480 576 480 576 459 551 c 128,-1,82
 438 526 438 526 398 526 c 0,83,84
 382 526 382 526 365 534 c 128,-1,85
 348 542 348 542 333.5 556 c 128,-1,86
 319 570 319 570 308 590 c 128,-1,87
 297 610 297 610 292 634 c 0,88,89
 282 679 282 679 305 754 c 0,90,91
 332 837 332 837 322 884 c 0,92,93
 321 889 321 889 318.5 894 c 128,-1,94
 316 899 316 899 311 904.5 c 128,-1,95
 306 910 306 910 296.5 917 c 128,-1,96
 287 924 287 924 271 932 c 1,97,98
 193 869 193 869 154 786 c 0,99,100
 115 698 115 698 70 698 c 0,101,102
 49 698 49 698 31 706.5 c 128,-1,103
 13 715 13 715 -1.5 728.5 c 128,-1,104
 -16 742 -16 742 -26 759.5 c 128,-1,105
 -36 777 -36 777 -39 795 c 0,106,107
 -52 853 -52 853 -21 882.5 c 128,-1,108
 10 912 10 912 67 914 c 0,109,110
 156 917 156 917 188 926 c 0,111,112
 227 937 227 937 262 970 c 1,113,-1
 268 970 l 1,114,-1
 265 985 l 1,0,-1
EndSplineSet
PairPos2: "'kern' Horizontal Kerning in Arabic lookup 0 subtable" afii57509 dx=0 dy=0 dh=0 dv=0 dx=0 dy=0 dh=250 dv=0
PairPos2: "'kern' Horizontal Kerning in Arabic lookup 0 subtable" uni06AB dx=0 dy=0 dh=0 dv=0 dx=0 dy=0 dh=250 dv=0
PairPos2: "'kern' Horizontal Kerning in Arabic lookup 0 subtable" uni06A9 dx=0 dy=0 dh=0 dv=0 dx=0 dy=0 dh=250 dv=0
PairPos2: "'kern' Horizontal Kerning in Arabic lookup 0 subtable" uniFB94 dx=0 dy=0 dh=0 dv=0 dx=0 dy=0 dh=250 dv=0
PairPos2: "'kern' Horizontal Kerning in Arabic lookup 0 subtable" uniFBD5 dx=0 dy=0 dh=0 dv=0 dx=0 dy=0 dh=250 dv=0
PairPos2: "'kern' Horizontal Kerning in Arabic lookup 0 subtable" uni06AB.ini dx=0 dy=0 dh=0 dv=0 dx=0 dy=0 dh=250 dv=0
PairPos2: "'kern' Horizontal Kerning in Arabic lookup 0 subtable" uniFB90 dx=0 dy=0 dh=0 dv=0 dx=0 dy=0 dh=250 dv=0
PairPos2: "'kern' Horizontal Kerning in Arabic lookup 0 subtable" uniFEDB dx=0 dy=0 dh=0 dv=0 dx=0 dy=0 dh=250 dv=0
PairPos2: "'kern' Horizontal Kerning in Arabic lookup 0 subtable" uni0671 dx=0 dy=0 dh=0 dv=0 dx=0 dy=0 dh=200 dv=0
PairPos2: "'kern' Horizontal Kerning in Arabic lookup 0 subtable" afii57410 dx=0 dy=0 dh=0 dv=0 dx=0 dy=0 dh=200 dv=0
PairPos2: "'kern' Horizontal Kerning in Arabic lookup 0 subtable" afii57415 dx=0 dy=0 dh=0 dv=0 dx=0 dy=0 dh=50 dv=0
EndChar

StartChar: plus
Encoding: 43 43 14
Width: 1050
GlyphClass: 2
Flags: W
LayerCount: 2
Fore
SplineSet
-129 641 m 1,0,-1
 299 641 l 1,1,-1
 209 1067 l 1,2,-1
 390 1067 l 1,3,-1
 480 641 l 1,4,-1
 908 641 l 1,5,-1
 954 428 l 1,6,-1
 526 428 l 1,7,-1
 616 0 l 1,8,-1
 435 0 l 1,9,-1
 345 428 l 1,10,-1
 -83 428 l 1,11,-1
 -129 641 l 1,0,-1
EndSplineSet
PairPos2: "'kern' Horizontal Kerning in Arabic lookup 0 subtable" afii57509 dx=0 dy=0 dh=0 dv=0 dx=0 dy=0 dh=250 dv=0
PairPos2: "'kern' Horizontal Kerning in Arabic lookup 0 subtable" uni06AB dx=0 dy=0 dh=0 dv=0 dx=0 dy=0 dh=250 dv=0
PairPos2: "'kern' Horizontal Kerning in Arabic lookup 0 subtable" uni06A9 dx=0 dy=0 dh=0 dv=0 dx=0 dy=0 dh=250 dv=0
PairPos2: "'kern' Horizontal Kerning in Arabic lookup 0 subtable" uniFB94 dx=0 dy=0 dh=0 dv=0 dx=0 dy=0 dh=250 dv=0
PairPos2: "'kern' Horizontal Kerning in Arabic lookup 0 subtable" uniFBD5 dx=0 dy=0 dh=0 dv=0 dx=0 dy=0 dh=250 dv=0
PairPos2: "'kern' Horizontal Kerning in Arabic lookup 0 subtable" uni06AB.ini dx=0 dy=0 dh=0 dv=0 dx=0 dy=0 dh=250 dv=0
PairPos2: "'kern' Horizontal Kerning in Arabic lookup 0 subtable" uniFB90 dx=0 dy=0 dh=0 dv=0 dx=0 dy=0 dh=250 dv=0
PairPos2: "'kern' Horizontal Kerning in Arabic lookup 0 subtable" uniFEDB dx=0 dy=0 dh=0 dv=0 dx=0 dy=0 dh=250 dv=0
PairPos2: "'kern' Horizontal Kerning in Arabic lookup 0 subtable" uni0671 dx=0 dy=0 dh=0 dv=0 dx=0 dy=0 dh=200 dv=0
PairPos2: "'kern' Horizontal Kerning in Arabic lookup 0 subtable" afii57410 dx=0 dy=0 dh=0 dv=0 dx=0 dy=0 dh=200 dv=0
PairPos2: "'kern' Horizontal Kerning in Arabic lookup 0 subtable" afii57415 dx=0 dy=0 dh=0 dv=0 dx=0 dy=0 dh=50 dv=0
EndChar

StartChar: comma
Encoding: 44 44 15
Width: 512
GlyphClass: 2
Flags: W
LayerCount: 2
Fore
SplineSet
172 -321 m 1,0,1
 226 -277 226 -277 261.5 -240 c 128,-1,2
 297 -203 297 -203 316.5 -171 c 128,-1,3
 336 -139 336 -139 341.5 -110.5 c 128,-1,4
 347 -82 347 -82 342 -55 c 0,5,6
 338 -36 338 -36 318 -27.5 c 128,-1,7
 298 -19 298 -19 271 -13.5 c 128,-1,8
 244 -8 244 -8 211.5 -1.5 c 128,-1,9
 179 5 179 5 149.5 20.5 c 128,-1,10
 120 36 120 36 96 65.5 c 128,-1,11
 72 95 72 95 62 145 c 0,12,13
 52 189 52 189 57.5 221.5 c 128,-1,14
 63 254 63 254 80 275.5 c 128,-1,15
 97 297 97 297 123 308 c 128,-1,16
 149 319 149 319 179 319 c 0,17,18
 218 319 218 319 256 304 c 128,-1,19
 294 289 294 289 327 259 c 128,-1,20
 360 229 360 229 385.5 184.5 c 128,-1,21
 411 140 411 140 423 81 c 0,22,23
 460 -88 460 -88 360 -220 c 0,24,25
 331 -260 331 -260 290.5 -294.5 c 128,-1,26
 250 -329 250 -329 201 -361 c 1,27,-1
 172 -321 l 1,0,1
EndSplineSet
PairPos2: "'kern' Horizontal Kerning in Arabic lookup 0 subtable" afii57509 dx=0 dy=0 dh=0 dv=0 dx=0 dy=0 dh=250 dv=0
PairPos2: "'kern' Horizontal Kerning in Arabic lookup 0 subtable" uni06AB dx=0 dy=0 dh=0 dv=0 dx=0 dy=0 dh=250 dv=0
PairPos2: "'kern' Horizontal Kerning in Arabic lookup 0 subtable" uni06A9 dx=0 dy=0 dh=0 dv=0 dx=0 dy=0 dh=250 dv=0
PairPos2: "'kern' Horizontal Kerning in Arabic lookup 0 subtable" uniFB94 dx=0 dy=0 dh=0 dv=0 dx=0 dy=0 dh=250 dv=0
PairPos2: "'kern' Horizontal Kerning in Arabic lookup 0 subtable" uniFBD5 dx=0 dy=0 dh=0 dv=0 dx=0 dy=0 dh=250 dv=0
PairPos2: "'kern' Horizontal Kerning in Arabic lookup 0 subtable" uni06AB.ini dx=0 dy=0 dh=0 dv=0 dx=0 dy=0 dh=250 dv=0
PairPos2: "'kern' Horizontal Kerning in Arabic lookup 0 subtable" uniFB90 dx=0 dy=0 dh=0 dv=0 dx=0 dy=0 dh=250 dv=0
PairPos2: "'kern' Horizontal Kerning in Arabic lookup 0 subtable" uniFEDB dx=0 dy=0 dh=0 dv=0 dx=0 dy=0 dh=250 dv=0
PairPos2: "'kern' Horizontal Kerning in Arabic lookup 0 subtable" uni0671 dx=0 dy=0 dh=0 dv=0 dx=0 dy=0 dh=200 dv=0
PairPos2: "'kern' Horizontal Kerning in Arabic lookup 0 subtable" afii57410 dx=0 dy=0 dh=0 dv=0 dx=0 dy=0 dh=200 dv=0
PairPos2: "'kern' Horizontal Kerning in Arabic lookup 0 subtable" afii57415 dx=0 dy=0 dh=0 dv=0 dx=0 dy=0 dh=50 dv=0
EndChar

StartChar: hyphen
Encoding: 45 45 16
AltUni2: 002212.ffffffff.0 0000ad.ffffffff.0
Width: 1050
GlyphClass: 2
Flags: W
LayerCount: 2
Fore
SplineSet
-16 641 m 1,0,-1
 794 641 l 1,1,-1
 840 428 l 1,2,-1
 30 428 l 1,3,-1
 -16 641 l 1,0,-1
EndSplineSet
Substitution2: "<17011,16011>  in Arabic lookup 68 nested-substitutions 0 subtable" hyphenlow
Substitution2: "<17010,16010>  in Arabic lookup 66 nested-substitutions 0 subtable" hyphenlow
Substitution2: "Single Substitution lookup 34 subtable" hyphenlow
PairPos2: "'kern' Horizontal Kerning in Arabic lookup 0 subtable" afii57509 dx=0 dy=0 dh=0 dv=0 dx=0 dy=0 dh=250 dv=0
PairPos2: "'kern' Horizontal Kerning in Arabic lookup 0 subtable" uni06AB dx=0 dy=0 dh=0 dv=0 dx=0 dy=0 dh=250 dv=0
PairPos2: "'kern' Horizontal Kerning in Arabic lookup 0 subtable" uni06A9 dx=0 dy=0 dh=0 dv=0 dx=0 dy=0 dh=250 dv=0
PairPos2: "'kern' Horizontal Kerning in Arabic lookup 0 subtable" uniFB94 dx=0 dy=0 dh=0 dv=0 dx=0 dy=0 dh=250 dv=0
PairPos2: "'kern' Horizontal Kerning in Arabic lookup 0 subtable" uniFBD5 dx=0 dy=0 dh=0 dv=0 dx=0 dy=0 dh=250 dv=0
PairPos2: "'kern' Horizontal Kerning in Arabic lookup 0 subtable" uni06AB.ini dx=0 dy=0 dh=0 dv=0 dx=0 dy=0 dh=250 dv=0
PairPos2: "'kern' Horizontal Kerning in Arabic lookup 0 subtable" uniFB90 dx=0 dy=0 dh=0 dv=0 dx=0 dy=0 dh=250 dv=0
PairPos2: "'kern' Horizontal Kerning in Arabic lookup 0 subtable" uniFEDB dx=0 dy=0 dh=0 dv=0 dx=0 dy=0 dh=250 dv=0
PairPos2: "'kern' Horizontal Kerning in Arabic lookup 0 subtable" uni0671 dx=0 dy=0 dh=0 dv=0 dx=0 dy=0 dh=200 dv=0
PairPos2: "'kern' Horizontal Kerning in Arabic lookup 0 subtable" afii57410 dx=0 dy=0 dh=0 dv=0 dx=0 dy=0 dh=200 dv=0
PairPos2: "'kern' Horizontal Kerning in Arabic lookup 0 subtable" afii57415 dx=0 dy=0 dh=0 dv=0 dx=0 dy=0 dh=50 dv=0
EndChar

StartChar: period
Encoding: 46 46 17
Width: 560
GlyphClass: 2
Flags: W
LayerCount: 2
Fore
SplineSet
304 264 m 0,0,1
 309 239 309 239 305 215 c 128,-1,2
 301 191 301 191 287.5 172.5 c 128,-1,3
 274 154 274 154 253 143 c 128,-1,4
 232 132 232 132 205 132 c 0,5,6
 180 132 180 132 154 142 c 128,-1,7
 128 152 128 152 105.5 169.5 c 128,-1,8
 83 187 83 187 66.5 210.5 c 128,-1,9
 50 234 50 234 45 261 c 0,10,11
 39 289 39 289 44.5 313.5 c 128,-1,12
 50 338 50 338 65.5 356 c 128,-1,13
 81 374 81 374 102.5 384.5 c 128,-1,14
 124 395 124 395 149 395 c 0,15,16
 176 395 176 395 201.5 384.5 c 128,-1,17
 227 374 227 374 248 356.5 c 128,-1,18
 269 339 269 339 283.5 315 c 128,-1,19
 298 291 298 291 304 264 c 0,0,1
EndSplineSet
Substitution2: "<17016,16016> Urdu Swash lookup 75 subtable" uni06D4
Substitution2: "<17012,16012> Period to Comma in Arabic lookup 70 nested-substitutions 0 subtable" uni066C
Substitution2: "Single Substitution lookup 34 subtable" uni066C
Substitution2: "'salt' Stylistic Alternatives in Arabic lookup 28 subtable" uni06D4
PairPos2: "'kern' Horizontal Kerning in Arabic lookup 0 subtable" afii57509 dx=0 dy=0 dh=0 dv=0 dx=0 dy=0 dh=250 dv=0
PairPos2: "'kern' Horizontal Kerning in Arabic lookup 0 subtable" uni06AB dx=0 dy=0 dh=0 dv=0 dx=0 dy=0 dh=250 dv=0
PairPos2: "'kern' Horizontal Kerning in Arabic lookup 0 subtable" uni06A9 dx=0 dy=0 dh=0 dv=0 dx=0 dy=0 dh=250 dv=0
PairPos2: "'kern' Horizontal Kerning in Arabic lookup 0 subtable" uniFB94 dx=0 dy=0 dh=0 dv=0 dx=0 dy=0 dh=250 dv=0
PairPos2: "'kern' Horizontal Kerning in Arabic lookup 0 subtable" uniFBD5 dx=0 dy=0 dh=0 dv=0 dx=0 dy=0 dh=250 dv=0
PairPos2: "'kern' Horizontal Kerning in Arabic lookup 0 subtable" uni06AB.ini dx=0 dy=0 dh=0 dv=0 dx=0 dy=0 dh=250 dv=0
PairPos2: "'kern' Horizontal Kerning in Arabic lookup 0 subtable" uniFB90 dx=0 dy=0 dh=0 dv=0 dx=0 dy=0 dh=250 dv=0
PairPos2: "'kern' Horizontal Kerning in Arabic lookup 0 subtable" uniFEDB dx=0 dy=0 dh=0 dv=0 dx=0 dy=0 dh=250 dv=0
PairPos2: "'kern' Horizontal Kerning in Arabic lookup 0 subtable" uni0671 dx=0 dy=0 dh=0 dv=0 dx=0 dy=0 dh=200 dv=0
PairPos2: "'kern' Horizontal Kerning in Arabic lookup 0 subtable" afii57410 dx=0 dy=0 dh=0 dv=0 dx=0 dy=0 dh=200 dv=0
PairPos2: "'kern' Horizontal Kerning in Arabic lookup 0 subtable" afii57415 dx=0 dy=0 dh=0 dv=0 dx=0 dy=0 dh=50 dv=0
EndChar

StartChar: slash
Encoding: 47 47 18
Width: 569
GlyphClass: 2
Flags: W
LayerCount: 2
Fore
SplineSet
160 1417 m 1,0,-1
 281 1417 l 1,1,-1
 112 -34 l 1,2,-1
 -9 -34 l 1,3,-1
 160 1417 l 1,0,-1
EndSplineSet
Substitution2: "<17016,16016> Urdu Swash lookup 75 subtable" slash
PairPos2: "'kern' Horizontal Kerning in Arabic lookup 0 subtable" afii57509 dx=0 dy=0 dh=0 dv=0 dx=0 dy=0 dh=250 dv=0
PairPos2: "'kern' Horizontal Kerning in Arabic lookup 0 subtable" uni06AB dx=0 dy=0 dh=0 dv=0 dx=0 dy=0 dh=250 dv=0
PairPos2: "'kern' Horizontal Kerning in Arabic lookup 0 subtable" uni06A9 dx=0 dy=0 dh=0 dv=0 dx=0 dy=0 dh=250 dv=0
PairPos2: "'kern' Horizontal Kerning in Arabic lookup 0 subtable" uniFB94 dx=0 dy=0 dh=0 dv=0 dx=0 dy=0 dh=250 dv=0
PairPos2: "'kern' Horizontal Kerning in Arabic lookup 0 subtable" uniFBD5 dx=0 dy=0 dh=0 dv=0 dx=0 dy=0 dh=250 dv=0
PairPos2: "'kern' Horizontal Kerning in Arabic lookup 0 subtable" uni06AB.ini dx=0 dy=0 dh=0 dv=0 dx=0 dy=0 dh=250 dv=0
PairPos2: "'kern' Horizontal Kerning in Arabic lookup 0 subtable" uniFB90 dx=0 dy=0 dh=0 dv=0 dx=0 dy=0 dh=250 dv=0
PairPos2: "'kern' Horizontal Kerning in Arabic lookup 0 subtable" uniFEDB dx=0 dy=0 dh=0 dv=0 dx=0 dy=0 dh=250 dv=0
PairPos2: "'kern' Horizontal Kerning in Arabic lookup 0 subtable" uni0671 dx=0 dy=0 dh=0 dv=0 dx=0 dy=0 dh=200 dv=0
PairPos2: "'kern' Horizontal Kerning in Arabic lookup 0 subtable" afii57410 dx=0 dy=0 dh=0 dv=0 dx=0 dy=0 dh=200 dv=0
PairPos2: "'kern' Horizontal Kerning in Arabic lookup 0 subtable" afii57415 dx=0 dy=0 dh=0 dv=0 dx=0 dy=0 dh=50 dv=0
EndChar

StartChar: zero
Encoding: 48 48 19
Width: 1024
GlyphClass: 2
Flags: W
LayerCount: 2
Fore
SplineSet
504 32 m 0,0,1
 553 32 553 32 578 76 c 128,-1,2
 603 120 603 120 604 193 c 0,3,4
 602 284 602 284 565 455 c 2,5,-1
 466 924 l 2,6,7
 439 1048 439 1048 413 1129.5 c 128,-1,8
 387 1211 387 1211 358 1259 c 128,-1,9
 329 1307 329 1307 296 1326.5 c 128,-1,10
 263 1346 263 1346 223 1346 c 0,11,12
 141 1346 141 1346 124 1258 c 0,13,14
 114 1213 114 1213 123.5 1130 c 128,-1,15
 133 1047 133 1047 159 924 c 2,16,-1
 258 455 l 2,17,18
 284 336 284 336 312 251 c 128,-1,19
 340 166 340 166 367 118 c 1,20,21
 393 82 393 82 429.5 57 c 128,-1,22
 466 32 466 32 504 32 c 0,0,1
-44 1248 m 0,23,24
 52 1408 52 1408 208 1408 c 0,25,26
 390 1408 390 1408 567 1211 c 0,27,28
 655 1112 655 1112 714 986 c 128,-1,29
 773 860 773 860 807 703 c 0,30,31
 884 339 884 339 776 141 c 0,32,33
 683 -28 683 -28 515 -28 c 0,34,35
 398 -28 398 -28 294 46 c 0,36,37
 247 80 247 80 199.5 128.5 c 128,-1,38
 152 177 152 177 105 238 c 0,39,40
 69 285 69 285 39 342 c 128,-1,41
 9 399 9 399 -17 464 c 0,42,43
 -33 502 -33 502 -48.5 556 c 128,-1,44
 -64 610 -64 610 -83 680 c 1,45,46
 -162 1051 -162 1051 -44 1248 c 0,23,24
EndSplineSet
Substitution2: "<17016,16016> Urdu Swash lookup 75 subtable" zero
PairPos2: "'kern' Horizontal Kerning in Arabic lookup 0 subtable" afii57509 dx=0 dy=0 dh=0 dv=0 dx=0 dy=0 dh=250 dv=0
PairPos2: "'kern' Horizontal Kerning in Arabic lookup 0 subtable" uni06AB dx=0 dy=0 dh=0 dv=0 dx=0 dy=0 dh=250 dv=0
PairPos2: "'kern' Horizontal Kerning in Arabic lookup 0 subtable" uni06A9 dx=0 dy=0 dh=0 dv=0 dx=0 dy=0 dh=250 dv=0
PairPos2: "'kern' Horizontal Kerning in Arabic lookup 0 subtable" uniFB94 dx=0 dy=0 dh=0 dv=0 dx=0 dy=0 dh=250 dv=0
PairPos2: "'kern' Horizontal Kerning in Arabic lookup 0 subtable" uniFBD5 dx=0 dy=0 dh=0 dv=0 dx=0 dy=0 dh=250 dv=0
PairPos2: "'kern' Horizontal Kerning in Arabic lookup 0 subtable" uni06AB.ini dx=0 dy=0 dh=0 dv=0 dx=0 dy=0 dh=250 dv=0
PairPos2: "'kern' Horizontal Kerning in Arabic lookup 0 subtable" uniFB90 dx=0 dy=0 dh=0 dv=0 dx=0 dy=0 dh=250 dv=0
PairPos2: "'kern' Horizontal Kerning in Arabic lookup 0 subtable" uniFEDB dx=0 dy=0 dh=0 dv=0 dx=0 dy=0 dh=250 dv=0
PairPos2: "'kern' Horizontal Kerning in Arabic lookup 0 subtable" uni0671 dx=0 dy=0 dh=0 dv=0 dx=0 dy=0 dh=200 dv=0
PairPos2: "'kern' Horizontal Kerning in Arabic lookup 0 subtable" afii57410 dx=0 dy=0 dh=0 dv=0 dx=0 dy=0 dh=200 dv=0
PairPos2: "'kern' Horizontal Kerning in Arabic lookup 0 subtable" afii57415 dx=0 dy=0 dh=0 dv=0 dx=0 dy=0 dh=50 dv=0
EndChar

StartChar: one
Encoding: 49 49 20
Width: 1024
GlyphClass: 2
Flags: W
LayerCount: 2
Fore
SplineSet
141 51 m 1,0,1
 291 51 291 51 328 93 c 1,2,3
 364 142 364 142 340 254 c 2,4,-1
 172 1042 l 2,5,6
 157 1116 157 1116 130.5 1148 c 128,-1,7
 104 1180 104 1180 49 1180 c 0,8,9
 26 1180 26 1180 -11 1170 c 128,-1,10
 -48 1160 -48 1160 -96 1139 c 1,11,-1
 -106 1189 l 1,12,-1
 355 1408 l 1,13,-1
 371 1408 l 1,14,-1
 619 242 l 2,15,16
 641 137 641 137 691 91 c 0,17,18
 736 51 736 51 880 51 c 1,19,-1
 890 0 l 1,20,-1
 151 0 l 1,21,-1
 141 51 l 1,0,1
EndSplineSet
Substitution2: "<17016,16016> Urdu Swash lookup 75 subtable" one
PairPos2: "'kern' Horizontal Kerning in Arabic lookup 0 subtable" afii57509 dx=0 dy=0 dh=0 dv=0 dx=0 dy=0 dh=250 dv=0
PairPos2: "'kern' Horizontal Kerning in Arabic lookup 0 subtable" uni06AB dx=0 dy=0 dh=0 dv=0 dx=0 dy=0 dh=250 dv=0
PairPos2: "'kern' Horizontal Kerning in Arabic lookup 0 subtable" uni06A9 dx=0 dy=0 dh=0 dv=0 dx=0 dy=0 dh=250 dv=0
PairPos2: "'kern' Horizontal Kerning in Arabic lookup 0 subtable" uniFB94 dx=0 dy=0 dh=0 dv=0 dx=0 dy=0 dh=250 dv=0
PairPos2: "'kern' Horizontal Kerning in Arabic lookup 0 subtable" uniFBD5 dx=0 dy=0 dh=0 dv=0 dx=0 dy=0 dh=250 dv=0
PairPos2: "'kern' Horizontal Kerning in Arabic lookup 0 subtable" uni06AB.ini dx=0 dy=0 dh=0 dv=0 dx=0 dy=0 dh=250 dv=0
PairPos2: "'kern' Horizontal Kerning in Arabic lookup 0 subtable" uniFB90 dx=0 dy=0 dh=0 dv=0 dx=0 dy=0 dh=250 dv=0
PairPos2: "'kern' Horizontal Kerning in Arabic lookup 0 subtable" uniFEDB dx=0 dy=0 dh=0 dv=0 dx=0 dy=0 dh=250 dv=0
PairPos2: "'kern' Horizontal Kerning in Arabic lookup 0 subtable" uni0671 dx=0 dy=0 dh=0 dv=0 dx=0 dy=0 dh=200 dv=0
PairPos2: "'kern' Horizontal Kerning in Arabic lookup 0 subtable" afii57410 dx=0 dy=0 dh=0 dv=0 dx=0 dy=0 dh=200 dv=0
PairPos2: "'kern' Horizontal Kerning in Arabic lookup 0 subtable" afii57415 dx=0 dy=0 dh=0 dv=0 dx=0 dy=0 dh=50 dv=0
EndChar

StartChar: two
Encoding: 50 50 21
Width: 1024
GlyphClass: 2
Flags: W
LayerCount: 2
Fore
SplineSet
38 53 m 1,0,1
 288 404 288 404 356 541 c 0,2,3
 466 756 466 756 433 912 c 0,4,5
 413 1003 413 1003 332 1089 c 0,6,7
 257 1173 257 1173 123 1173 c 0,8,9
 29 1173 29 1173 -26.5 1124.5 c 128,-1,10
 -82 1076 -82 1076 -103 989 c 1,11,-1
 -133 989 l 1,12,13
 -120 1096 -120 1096 -90.5 1174.5 c 128,-1,14
 -61 1253 -61 1253 -15 1305 c 128,-1,15
 31 1357 31 1357 91 1382.5 c 128,-1,16
 151 1408 151 1408 222 1408 c 0,17,18
 288 1408 288 1408 356.5 1382.5 c 128,-1,19
 425 1357 425 1357 492 1309 c 0,20,21
 556 1264 556 1264 599.5 1189.5 c 128,-1,22
 643 1115 643 1115 665 1020 c 0,23,24
 676 969 676 969 674 917 c 128,-1,25
 672 865 672 865 655.5 811.5 c 128,-1,26
 639 758 639 758 606.5 702 c 128,-1,27
 574 646 574 646 524 586 c 2,28,-1
 276 289 l 1,29,-1
 271 289 l 1,30,-1
 274 274 l 1,31,-1
 578 274 l 2,32,33
 654 274 654 274 704.5 281 c 128,-1,34
 755 288 755 288 778 299 c 1,35,36
 801 315 801 315 819.5 348 c 128,-1,37
 838 381 838 381 850 432 c 1,38,-1
 872 432 l 1,39,-1
 871 0 l 1,40,-1
 49 0 l 1,41,-1
 38 53 l 1,0,1
EndSplineSet
Substitution2: "<17016,16016> Urdu Swash lookup 75 subtable" two
PairPos2: "'kern' Horizontal Kerning in Arabic lookup 0 subtable" afii57509 dx=0 dy=0 dh=0 dv=0 dx=0 dy=0 dh=250 dv=0
PairPos2: "'kern' Horizontal Kerning in Arabic lookup 0 subtable" uni06AB dx=0 dy=0 dh=0 dv=0 dx=0 dy=0 dh=250 dv=0
PairPos2: "'kern' Horizontal Kerning in Arabic lookup 0 subtable" uni06A9 dx=0 dy=0 dh=0 dv=0 dx=0 dy=0 dh=250 dv=0
PairPos2: "'kern' Horizontal Kerning in Arabic lookup 0 subtable" uniFB94 dx=0 dy=0 dh=0 dv=0 dx=0 dy=0 dh=250 dv=0
PairPos2: "'kern' Horizontal Kerning in Arabic lookup 0 subtable" uniFBD5 dx=0 dy=0 dh=0 dv=0 dx=0 dy=0 dh=250 dv=0
PairPos2: "'kern' Horizontal Kerning in Arabic lookup 0 subtable" uni06AB.ini dx=0 dy=0 dh=0 dv=0 dx=0 dy=0 dh=250 dv=0
PairPos2: "'kern' Horizontal Kerning in Arabic lookup 0 subtable" uniFB90 dx=0 dy=0 dh=0 dv=0 dx=0 dy=0 dh=250 dv=0
PairPos2: "'kern' Horizontal Kerning in Arabic lookup 0 subtable" uniFEDB dx=0 dy=0 dh=0 dv=0 dx=0 dy=0 dh=250 dv=0
PairPos2: "'kern' Horizontal Kerning in Arabic lookup 0 subtable" uni0671 dx=0 dy=0 dh=0 dv=0 dx=0 dy=0 dh=200 dv=0
PairPos2: "'kern' Horizontal Kerning in Arabic lookup 0 subtable" afii57410 dx=0 dy=0 dh=0 dv=0 dx=0 dy=0 dh=200 dv=0
PairPos2: "'kern' Horizontal Kerning in Arabic lookup 0 subtable" afii57415 dx=0 dy=0 dh=0 dv=0 dx=0 dy=0 dh=50 dv=0
EndChar

StartChar: three
Encoding: 51 51 22
Width: 1024
GlyphClass: 2
Flags: W
LayerCount: 2
Fore
SplineSet
503 75 m 0,0,1
 625 75 625 75 656 149 c 0,2,3
 690 228 690 228 671 318 c 0,4,5
 635 487 635 487 457 602 c 0,6,7
 413 631 413 631 341.5 661.5 c 128,-1,8
 270 692 270 692 173 725 c 1,9,-1
 163 767 l 1,10,11
 219 788 219 788 257 807.5 c 128,-1,12
 295 827 295 827 317 847 c 0,13,14
 397 922 397 922 374 1033 c 0,15,16
 365 1078 365 1078 340.5 1116 c 128,-1,17
 316 1154 316 1154 280 1181.5 c 128,-1,18
 244 1209 244 1209 198 1224.5 c 128,-1,19
 152 1240 152 1240 98 1240 c 0,20,21
 17 1240 17 1240 -34 1195 c 128,-1,22
 -85 1150 -85 1150 -118 1077 c 1,23,-1
 -145 1091 l 1,24,25
 -131 1147 -131 1147 -106.5 1194.5 c 128,-1,26
 -82 1242 -82 1242 -50 1277 c 0,27,28
 6 1340 6 1340 81.5 1372.5 c 128,-1,29
 157 1405 157 1405 245 1405 c 0,30,31
 303 1405 303 1405 362 1387.5 c 128,-1,32
 421 1370 421 1370 472.5 1335.5 c 128,-1,33
 524 1301 524 1301 563.5 1251.5 c 128,-1,34
 603 1202 603 1202 622 1137 c 1,35,36
 641 1049 641 1049 619.5 983 c 128,-1,37
 598 917 598 917 526 876 c 1,38,-1
 519 876 l 1,39,-1
 522 863 l 1,40,-1
 530 863 l 1,41,42
 588 841 588 841 638.5 805.5 c 128,-1,43
 689 770 689 770 728 723.5 c 128,-1,44
 767 677 767 677 794.5 622 c 128,-1,45
 822 567 822 567 834 507 c 0,46,47
 858 396 858 396 835 301.5 c 128,-1,48
 812 207 812 207 750 132 c 1,49,50
 677 56 677 56 574.5 12.5 c 128,-1,51
 472 -31 472 -31 346 -31 c 0,52,53
 289 -31 289 -31 233 -19.5 c 128,-1,54
 177 -8 177 -8 132 15 c 128,-1,55
 87 38 87 38 55 72 c 128,-1,56
 23 106 23 106 13 152 c 0,57,58
 2 204 2 204 26 240 c 128,-1,59
 50 276 50 276 107 276 c 0,60,61
 190 276 190 276 310 175 c 0,62,63
 428 75 428 75 503 75 c 0,0,1
EndSplineSet
Substitution2: "<17016,16016> Urdu Swash lookup 75 subtable" three
PairPos2: "'kern' Horizontal Kerning in Arabic lookup 0 subtable" afii57509 dx=0 dy=0 dh=0 dv=0 dx=0 dy=0 dh=250 dv=0
PairPos2: "'kern' Horizontal Kerning in Arabic lookup 0 subtable" uni06AB dx=0 dy=0 dh=0 dv=0 dx=0 dy=0 dh=250 dv=0
PairPos2: "'kern' Horizontal Kerning in Arabic lookup 0 subtable" uni06A9 dx=0 dy=0 dh=0 dv=0 dx=0 dy=0 dh=250 dv=0
PairPos2: "'kern' Horizontal Kerning in Arabic lookup 0 subtable" uniFB94 dx=0 dy=0 dh=0 dv=0 dx=0 dy=0 dh=250 dv=0
PairPos2: "'kern' Horizontal Kerning in Arabic lookup 0 subtable" uniFBD5 dx=0 dy=0 dh=0 dv=0 dx=0 dy=0 dh=250 dv=0
PairPos2: "'kern' Horizontal Kerning in Arabic lookup 0 subtable" uni06AB.ini dx=0 dy=0 dh=0 dv=0 dx=0 dy=0 dh=250 dv=0
PairPos2: "'kern' Horizontal Kerning in Arabic lookup 0 subtable" uniFB90 dx=0 dy=0 dh=0 dv=0 dx=0 dy=0 dh=250 dv=0
PairPos2: "'kern' Horizontal Kerning in Arabic lookup 0 subtable" uniFEDB dx=0 dy=0 dh=0 dv=0 dx=0 dy=0 dh=250 dv=0
PairPos2: "'kern' Horizontal Kerning in Arabic lookup 0 subtable" uni0671 dx=0 dy=0 dh=0 dv=0 dx=0 dy=0 dh=200 dv=0
PairPos2: "'kern' Horizontal Kerning in Arabic lookup 0 subtable" afii57410 dx=0 dy=0 dh=0 dv=0 dx=0 dy=0 dh=200 dv=0
PairPos2: "'kern' Horizontal Kerning in Arabic lookup 0 subtable" afii57415 dx=0 dy=0 dh=0 dv=0 dx=0 dy=0 dh=50 dv=0
EndChar

StartChar: four
Encoding: 52 52 23
Width: 1024
GlyphClass: 2
Flags: W
LayerCount: 2
Fore
SplineSet
328 1102 m 1,0,-1
 289 1102 l 1,1,2
 280 1085 280 1085 258.5 1041.5 c 128,-1,3
 237 998 237 998 208.5 940.5 c 128,-1,4
 180 883 180 883 148 819.5 c 128,-1,5
 116 756 116 756 88 699 c 128,-1,6
 60 642 60 642 38.5 598.5 c 128,-1,7
 17 555 17 555 6 539 c 1,8,-1
 11 522 l 1,9,-1
 452 522 l 1,10,-1
 328 1102 l 1,0,-1
133 939 m 1,11,-1
 330 1301 l 1,12,-1
 391 1408 l 1,13,-1
 529 1408 l 1,14,-1
 718 522 l 1,15,-1
 846 522 l 1,16,-1
 894 293 l 1,17,-1
 766 293 l 1,18,-1
 828 0 l 1,19,-1
 560 0 l 1,20,-1
 498 293 l 1,21,-1
 -11 293 l 1,22,-1
 -61 528 l 1,23,24
 -58 542 -58 542 -56.5 548 c 128,-1,25
 -55 554 -55 554 -53.5 556.5 c 128,-1,26
 -52 559 -52 559 -51.5 559.5 c 128,-1,27
 -51 560 -51 560 -49 564 c 0,28,29
 -43 581 -43 581 -15 636 c 2,30,-1
 133 939 l 1,11,-1
EndSplineSet
Substitution2: "<17016,16016> Urdu Swash lookup 75 subtable" four
PairPos2: "'kern' Horizontal Kerning in Arabic lookup 0 subtable" afii57509 dx=0 dy=0 dh=0 dv=0 dx=0 dy=0 dh=250 dv=0
PairPos2: "'kern' Horizontal Kerning in Arabic lookup 0 subtable" uni06AB dx=0 dy=0 dh=0 dv=0 dx=0 dy=0 dh=250 dv=0
PairPos2: "'kern' Horizontal Kerning in Arabic lookup 0 subtable" uni06A9 dx=0 dy=0 dh=0 dv=0 dx=0 dy=0 dh=250 dv=0
PairPos2: "'kern' Horizontal Kerning in Arabic lookup 0 subtable" uniFB94 dx=0 dy=0 dh=0 dv=0 dx=0 dy=0 dh=250 dv=0
PairPos2: "'kern' Horizontal Kerning in Arabic lookup 0 subtable" uniFBD5 dx=0 dy=0 dh=0 dv=0 dx=0 dy=0 dh=250 dv=0
PairPos2: "'kern' Horizontal Kerning in Arabic lookup 0 subtable" uni06AB.ini dx=0 dy=0 dh=0 dv=0 dx=0 dy=0 dh=250 dv=0
PairPos2: "'kern' Horizontal Kerning in Arabic lookup 0 subtable" uniFB90 dx=0 dy=0 dh=0 dv=0 dx=0 dy=0 dh=250 dv=0
PairPos2: "'kern' Horizontal Kerning in Arabic lookup 0 subtable" uniFEDB dx=0 dy=0 dh=0 dv=0 dx=0 dy=0 dh=250 dv=0
PairPos2: "'kern' Horizontal Kerning in Arabic lookup 0 subtable" uni0671 dx=0 dy=0 dh=0 dv=0 dx=0 dy=0 dh=200 dv=0
PairPos2: "'kern' Horizontal Kerning in Arabic lookup 0 subtable" afii57410 dx=0 dy=0 dh=0 dv=0 dx=0 dy=0 dh=200 dv=0
PairPos2: "'kern' Horizontal Kerning in Arabic lookup 0 subtable" afii57415 dx=0 dy=0 dh=0 dv=0 dx=0 dy=0 dh=50 dv=0
EndChar

StartChar: five
Encoding: 53 53 24
Width: 1024
GlyphClass: 2
Flags: W
LayerCount: 2
Fore
SplineSet
110 289 m 0,0,1
 177 289 177 289 318 199 c 0,2,3
 391 154 391 154 446 133 c 128,-1,4
 501 112 501 112 540 110 c 0,5,6
 587 110 587 110 622.5 126.5 c 128,-1,7
 658 143 658 143 680.5 171.5 c 128,-1,8
 703 200 703 200 710 238.5 c 128,-1,9
 717 277 717 277 708 320 c 0,10,11
 694 386 694 386 647.5 440.5 c 128,-1,12
 601 495 601 495 533 537 c 128,-1,13
 465 579 465 579 380 608.5 c 128,-1,14
 295 638 295 638 204 653 c 0,15,16
 168 659 168 659 110 664 c 128,-1,17
 52 669 52 669 -26 675 c 1,18,-1
 22 1384 l 1,19,-1
 654 1384 l 1,20,-1
 621 1121 l 1,21,-1
 53 1121 l 1,22,23
 51 1081 51 1081 49 1040 c 128,-1,24
 47 999 47 999 45 958 c 1,25,-1
 57 958 l 1,26,27
 384 948 384 948 571 829.5 c 128,-1,28
 758 711 758 711 808 476 c 0,29,30
 855 254 855 254 723 120 c 0,31,32
 586 -19 586 -19 345 -19 c 0,33,34
 290 -19 290 -19 237 -8 c 128,-1,35
 184 3 184 3 140 25.5 c 128,-1,36
 96 48 96 48 65 82.5 c 128,-1,37
 34 117 34 117 24 164 c 0,38,39
 19 190 19 190 22 213 c 128,-1,40
 25 236 25 236 36 253 c 128,-1,41
 47 270 47 270 65.5 279.5 c 128,-1,42
 84 289 84 289 110 289 c 0,0,1
EndSplineSet
Substitution2: "<17016,16016> Urdu Swash lookup 75 subtable" five
PairPos2: "'kern' Horizontal Kerning in Arabic lookup 0 subtable" afii57509 dx=0 dy=0 dh=0 dv=0 dx=0 dy=0 dh=250 dv=0
PairPos2: "'kern' Horizontal Kerning in Arabic lookup 0 subtable" uni06AB dx=0 dy=0 dh=0 dv=0 dx=0 dy=0 dh=250 dv=0
PairPos2: "'kern' Horizontal Kerning in Arabic lookup 0 subtable" uni06A9 dx=0 dy=0 dh=0 dv=0 dx=0 dy=0 dh=250 dv=0
PairPos2: "'kern' Horizontal Kerning in Arabic lookup 0 subtable" uniFB94 dx=0 dy=0 dh=0 dv=0 dx=0 dy=0 dh=250 dv=0
PairPos2: "'kern' Horizontal Kerning in Arabic lookup 0 subtable" uniFBD5 dx=0 dy=0 dh=0 dv=0 dx=0 dy=0 dh=250 dv=0
PairPos2: "'kern' Horizontal Kerning in Arabic lookup 0 subtable" uni06AB.ini dx=0 dy=0 dh=0 dv=0 dx=0 dy=0 dh=250 dv=0
PairPos2: "'kern' Horizontal Kerning in Arabic lookup 0 subtable" uniFB90 dx=0 dy=0 dh=0 dv=0 dx=0 dy=0 dh=250 dv=0
PairPos2: "'kern' Horizontal Kerning in Arabic lookup 0 subtable" uniFEDB dx=0 dy=0 dh=0 dv=0 dx=0 dy=0 dh=250 dv=0
PairPos2: "'kern' Horizontal Kerning in Arabic lookup 0 subtable" uni0671 dx=0 dy=0 dh=0 dv=0 dx=0 dy=0 dh=200 dv=0
PairPos2: "'kern' Horizontal Kerning in Arabic lookup 0 subtable" afii57410 dx=0 dy=0 dh=0 dv=0 dx=0 dy=0 dh=200 dv=0
PairPos2: "'kern' Horizontal Kerning in Arabic lookup 0 subtable" afii57415 dx=0 dy=0 dh=0 dv=0 dx=0 dy=0 dh=50 dv=0
EndChar

StartChar: six
Encoding: 54 54 25
Width: 1024
GlyphClass: 2
Flags: W
LayerCount: 2
Fore
SplineSet
226 692 m 0,0,1
 228 667 228 667 235 620.5 c 128,-1,2
 242 574 242 574 254 520 c 0,3,4
 275 422 275 422 297.5 339.5 c 128,-1,5
 320 257 320 257 341 200 c 0,6,7
 355 168 355 168 372.5 136 c 128,-1,8
 390 104 390 104 411 78 c 2,9,-1
 410 79 l 2,10,11
 430 56 430 56 459.5 43 c 128,-1,12
 489 30 489 30 525 30 c 0,13,14
 625 30 625 30 633 116 c 0,15,16
 635 145 635 145 627.5 199.5 c 128,-1,17
 620 254 620 254 604 335 c 0,18,19
 577 458 577 458 550 541 c 128,-1,20
 523 624 523 624 489.5 675 c 128,-1,21
 456 726 456 726 415 747.5 c 128,-1,22
 374 769 374 769 320 769 c 0,23,24
 253 769 253 769 240 751 c 0,25,26
 223 728 223 728 226 692 c 0,0,1
660 1351 m 1,27,28
 558 1332 558 1332 480 1287 c 128,-1,29
 402 1242 402 1242 347.5 1176 c 128,-1,30
 293 1110 293 1110 263 1024.5 c 128,-1,31
 233 939 233 939 226 840 c 1,32,-1
 232 840 l 2,33,34
 239 837 239 837 244 833 c 1,35,-1
 256 833 l 1,36,37
 283 842 283 842 303.5 848 c 128,-1,38
 324 854 324 854 341 857.5 c 128,-1,39
 358 861 358 861 374.5 862 c 128,-1,40
 391 863 391 863 412 863 c 0,41,42
 553 863 553 863 687 762 c 0,43,44
 814 667 814 667 860 451 c 0,45,46
 885 334 885 334 870.5 244 c 128,-1,47
 856 154 856 154 806 94 c 1,48,49
 752 37 752 37 682 4 c 128,-1,50
 612 -29 612 -29 531 -29 c 0,51,52
 347 -29 347 -29 177 125 c 0,53,54
 12 276 12 276 -47 552 c 0,55,56
 -66 642 -66 642 -65 727.5 c 128,-1,57
 -64 813 -64 813 -45 890.5 c 128,-1,58
 -26 968 -26 968 9.5 1036.5 c 128,-1,59
 45 1105 45 1105 94 1162 c 1,60,61
 197 1268 197 1268 335.5 1330.5 c 128,-1,62
 474 1393 474 1393 648 1407 c 1,63,-1
 660 1351 l 1,27,28
EndSplineSet
Substitution2: "<17016,16016> Urdu Swash lookup 75 subtable" six
PairPos2: "'kern' Horizontal Kerning in Arabic lookup 0 subtable" afii57509 dx=0 dy=0 dh=0 dv=0 dx=0 dy=0 dh=250 dv=0
PairPos2: "'kern' Horizontal Kerning in Arabic lookup 0 subtable" uni06AB dx=0 dy=0 dh=0 dv=0 dx=0 dy=0 dh=250 dv=0
PairPos2: "'kern' Horizontal Kerning in Arabic lookup 0 subtable" uni06A9 dx=0 dy=0 dh=0 dv=0 dx=0 dy=0 dh=250 dv=0
PairPos2: "'kern' Horizontal Kerning in Arabic lookup 0 subtable" uniFB94 dx=0 dy=0 dh=0 dv=0 dx=0 dy=0 dh=250 dv=0
PairPos2: "'kern' Horizontal Kerning in Arabic lookup 0 subtable" uniFBD5 dx=0 dy=0 dh=0 dv=0 dx=0 dy=0 dh=250 dv=0
PairPos2: "'kern' Horizontal Kerning in Arabic lookup 0 subtable" uni06AB.ini dx=0 dy=0 dh=0 dv=0 dx=0 dy=0 dh=250 dv=0
PairPos2: "'kern' Horizontal Kerning in Arabic lookup 0 subtable" uniFB90 dx=0 dy=0 dh=0 dv=0 dx=0 dy=0 dh=250 dv=0
PairPos2: "'kern' Horizontal Kerning in Arabic lookup 0 subtable" uniFEDB dx=0 dy=0 dh=0 dv=0 dx=0 dy=0 dh=250 dv=0
PairPos2: "'kern' Horizontal Kerning in Arabic lookup 0 subtable" uni0671 dx=0 dy=0 dh=0 dv=0 dx=0 dy=0 dh=200 dv=0
PairPos2: "'kern' Horizontal Kerning in Arabic lookup 0 subtable" afii57410 dx=0 dy=0 dh=0 dv=0 dx=0 dy=0 dh=200 dv=0
PairPos2: "'kern' Horizontal Kerning in Arabic lookup 0 subtable" afii57415 dx=0 dy=0 dh=0 dv=0 dx=0 dy=0 dh=50 dv=0
EndChar

StartChar: seven
Encoding: 55 55 26
Width: 1024
GlyphClass: 2
Flags: W
LayerCount: 2
Fore
SplineSet
-155 1384 m 1,0,-1
 668 1384 l 1,1,-1
 481 0 l 1,2,-1
 314 0 l 1,3,-1
 483 1088 l 2,4,5
 481 1090 481 1090 477.5 1094.5 c 128,-1,6
 474 1099 474 1099 471 1102 c 2,7,-1
 71 1102 l 2,8,9
 22 1102 22 1102 -15 1093.5 c 128,-1,10
 -52 1085 -52 1085 -71 1072 c 1,11,12
 -91 1052 -91 1052 -106 1015.5 c 128,-1,13
 -121 979 -121 979 -125 928 c 1,14,-1
 -148 928 l 1,15,-1
 -155 1384 l 1,0,-1
EndSplineSet
Substitution2: "<17016,16016> Urdu Swash lookup 75 subtable" seven
PairPos2: "'kern' Horizontal Kerning in Arabic lookup 0 subtable" afii57509 dx=0 dy=0 dh=0 dv=0 dx=0 dy=0 dh=250 dv=0
PairPos2: "'kern' Horizontal Kerning in Arabic lookup 0 subtable" uni06AB dx=0 dy=0 dh=0 dv=0 dx=0 dy=0 dh=250 dv=0
PairPos2: "'kern' Horizontal Kerning in Arabic lookup 0 subtable" uni06A9 dx=0 dy=0 dh=0 dv=0 dx=0 dy=0 dh=250 dv=0
PairPos2: "'kern' Horizontal Kerning in Arabic lookup 0 subtable" uniFB94 dx=0 dy=0 dh=0 dv=0 dx=0 dy=0 dh=250 dv=0
PairPos2: "'kern' Horizontal Kerning in Arabic lookup 0 subtable" uniFBD5 dx=0 dy=0 dh=0 dv=0 dx=0 dy=0 dh=250 dv=0
PairPos2: "'kern' Horizontal Kerning in Arabic lookup 0 subtable" uni06AB.ini dx=0 dy=0 dh=0 dv=0 dx=0 dy=0 dh=250 dv=0
PairPos2: "'kern' Horizontal Kerning in Arabic lookup 0 subtable" uniFB90 dx=0 dy=0 dh=0 dv=0 dx=0 dy=0 dh=250 dv=0
PairPos2: "'kern' Horizontal Kerning in Arabic lookup 0 subtable" uniFEDB dx=0 dy=0 dh=0 dv=0 dx=0 dy=0 dh=250 dv=0
PairPos2: "'kern' Horizontal Kerning in Arabic lookup 0 subtable" uni0671 dx=0 dy=0 dh=0 dv=0 dx=0 dy=0 dh=200 dv=0
PairPos2: "'kern' Horizontal Kerning in Arabic lookup 0 subtable" afii57410 dx=0 dy=0 dh=0 dv=0 dx=0 dy=0 dh=200 dv=0
PairPos2: "'kern' Horizontal Kerning in Arabic lookup 0 subtable" afii57415 dx=0 dy=0 dh=0 dv=0 dx=0 dy=0 dh=50 dv=0
EndChar

StartChar: eight
Encoding: 56 56 27
Width: 1024
GlyphClass: 2
Flags: W
LayerCount: 2
Fore
SplineSet
471 960 m 0,0,1
 484 1016 484 1016 468 1093 c 0,2,3
 457 1144 457 1144 435.5 1191 c 128,-1,4
 414 1238 414 1238 386 1275 c 0,5,6
 359 1309 359 1309 316 1327.5 c 128,-1,7
 273 1346 273 1346 217 1346 c 0,8,9
 174 1346 174 1346 144 1331.5 c 128,-1,10
 114 1317 114 1317 96 1293.5 c 128,-1,11
 78 1270 78 1270 73 1240 c 128,-1,12
 68 1210 68 1210 74 1179 c 0,13,14
 83 1139 83 1139 110 1097 c 128,-1,15
 137 1055 137 1055 180.5 1013.5 c 128,-1,16
 224 972 224 972 282.5 934.5 c 128,-1,17
 341 897 341 897 413 866 c 1,18,-1
 430 866 l 1,19,20
 448 900 448 900 458.5 923.5 c 128,-1,21
 469 947 469 947 471 960 c 0,0,1
276 168 m 0,22,23
 353 40 353 40 489 40 c 0,24,25
 531 40 531 40 562.5 54.5 c 128,-1,26
 594 69 594 69 613.5 97.5 c 128,-1,27
 633 126 633 126 638 169.5 c 128,-1,28
 643 213 643 213 631 270 c 0,29,30
 619 325 619 325 585 378 c 128,-1,31
 551 431 551 431 504 476 c 0,32,33
 475 502 475 502 417 539 c 128,-1,34
 359 576 359 576 275 624 c 1,35,-1
 256 624 l 1,36,37
 237 578 237 578 225 543.5 c 128,-1,38
 213 509 213 509 209 489 c 0,39,40
 202 452 202 452 204 410.5 c 128,-1,41
 206 369 206 369 215 323 c 0,42,43
 233 239 233 239 276 168 c 0,22,23
207 655 m 1,44,-1
 216 655 l 1,45,-1
 212 672 l 1,46,-1
 202 672 l 2,47,48
 197 673 197 673 169.5 690 c 128,-1,49
 142 707 142 707 107 732 c 128,-1,50
 72 757 72 757 34.5 786.5 c 128,-1,51
 -3 816 -3 816 -27 843 c 0,52,53
 -77 897 -77 897 -101 946 c 128,-1,54
 -125 995 -125 995 -136 1051 c 0,55,56
 -153 1130 -153 1130 -133 1195.5 c 128,-1,57
 -113 1261 -113 1261 -63 1308.5 c 128,-1,58
 -13 1356 -13 1356 63.5 1382 c 128,-1,59
 140 1408 140 1408 236 1408 c 0,60,61
 323 1408 323 1408 398.5 1386 c 128,-1,62
 474 1364 474 1364 532.5 1325 c 128,-1,63
 591 1286 591 1286 629 1232.5 c 128,-1,64
 667 1179 667 1179 681 1116 c 0,65,66
 703 1013 703 1013 651.5 945 c 128,-1,67
 600 877 600 877 485 833 c 1,68,-1
 476 833 l 1,69,-1
 478 821 l 1,70,-1
 484 821 l 1,71,72
 645 720 645 720 718 650 c 0,73,74
 830 541 830 541 862 388 c 0,75,76
 884 288 884 288 867 211 c 128,-1,77
 850 134 850 134 798 81 c 1,78,79
 741 29 741 29 661.5 0 c 128,-1,80
 582 -29 582 -29 482 -29 c 0,81,82
 331 -29 331 -29 181 58 c 0,83,84
 36 143 36 143 -2 318 c 0,85,86
 -36 479 -36 479 52 566 c 1,87,-1
 207 655 l 1,44,-1
EndSplineSet
Substitution2: "<17016,16016> Urdu Swash lookup 75 subtable" eight
PairPos2: "'kern' Horizontal Kerning in Arabic lookup 0 subtable" afii57509 dx=0 dy=0 dh=0 dv=0 dx=0 dy=0 dh=250 dv=0
PairPos2: "'kern' Horizontal Kerning in Arabic lookup 0 subtable" uni06AB dx=0 dy=0 dh=0 dv=0 dx=0 dy=0 dh=250 dv=0
PairPos2: "'kern' Horizontal Kerning in Arabic lookup 0 subtable" uni06A9 dx=0 dy=0 dh=0 dv=0 dx=0 dy=0 dh=250 dv=0
PairPos2: "'kern' Horizontal Kerning in Arabic lookup 0 subtable" uniFB94 dx=0 dy=0 dh=0 dv=0 dx=0 dy=0 dh=250 dv=0
PairPos2: "'kern' Horizontal Kerning in Arabic lookup 0 subtable" uniFBD5 dx=0 dy=0 dh=0 dv=0 dx=0 dy=0 dh=250 dv=0
PairPos2: "'kern' Horizontal Kerning in Arabic lookup 0 subtable" uni06AB.ini dx=0 dy=0 dh=0 dv=0 dx=0 dy=0 dh=250 dv=0
PairPos2: "'kern' Horizontal Kerning in Arabic lookup 0 subtable" uniFB90 dx=0 dy=0 dh=0 dv=0 dx=0 dy=0 dh=250 dv=0
PairPos2: "'kern' Horizontal Kerning in Arabic lookup 0 subtable" uniFEDB dx=0 dy=0 dh=0 dv=0 dx=0 dy=0 dh=250 dv=0
PairPos2: "'kern' Horizontal Kerning in Arabic lookup 0 subtable" uni0671 dx=0 dy=0 dh=0 dv=0 dx=0 dy=0 dh=200 dv=0
PairPos2: "'kern' Horizontal Kerning in Arabic lookup 0 subtable" afii57410 dx=0 dy=0 dh=0 dv=0 dx=0 dy=0 dh=200 dv=0
PairPos2: "'kern' Horizontal Kerning in Arabic lookup 0 subtable" afii57415 dx=0 dy=0 dh=0 dv=0 dx=0 dy=0 dh=50 dv=0
EndChar

StartChar: nine
Encoding: 57 57 28
Width: 1024
GlyphClass: 2
Flags: W
LayerCount: 2
Fore
SplineSet
500 636 m 0,0,1
 503 642 503 642 503 663.5 c 128,-1,2
 503 685 503 685 499 716 c 128,-1,3
 495 747 495 747 488.5 785 c 128,-1,4
 482 823 482 823 473 863 c 0,5,6
 450 975 450 975 426 1065 c 128,-1,7
 402 1155 402 1155 371 1218 c 128,-1,8
 340 1281 340 1281 300 1315 c 128,-1,9
 260 1349 260 1349 203 1349 c 0,10,11
 123 1349 123 1349 103 1279.5 c 128,-1,12
 83 1210 83 1210 112 1073 c 0,13,14
 161 843 161 843 231 726.5 c 128,-1,15
 301 610 301 610 407 610 c 0,16,17
 424 610 424 610 440 613.5 c 128,-1,18
 456 617 456 617 469.5 621.5 c 128,-1,19
 483 626 483 626 491 630.5 c 128,-1,20
 499 635 499 635 500 636 c 0,0,1
70 27 m 1,21,22
 144 43 144 43 206.5 70 c 128,-1,23
 269 97 269 97 316 132 c 1,24,25
 356 167 356 167 389.5 211 c 128,-1,26
 423 255 423 255 447 307 c 128,-1,27
 471 359 471 359 485.5 417.5 c 128,-1,28
 500 476 500 476 503 539 c 1,29,-1
 496 539 l 1,30,-1
 490 543 l 2,31,32
 490 544 490 544 488 544.5 c 128,-1,33
 486 545 486 545 485 546 c 2,34,-1
 472 546 l 1,35,36
 446 537 446 537 426 531 c 128,-1,37
 406 525 406 525 388 521.5 c 128,-1,38
 370 518 370 518 352 516.5 c 128,-1,39
 334 515 334 515 313 515 c 0,40,41
 241 515 241 515 171 541.5 c 128,-1,42
 101 568 101 568 40 620.5 c 128,-1,43
 -21 673 -21 673 -67 750.5 c 128,-1,44
 -113 828 -113 828 -135 929 c 0,45,46
 -183 1155 -183 1155 -82 1279 c 0,47,48
 22 1408 22 1408 192 1408 c 0,49,50
 287 1408 287 1408 379 1368.5 c 128,-1,51
 471 1329 471 1329 550 1254 c 128,-1,52
 629 1179 629 1179 688 1071.5 c 128,-1,53
 747 964 747 964 776 827 c 0,54,55
 818 628 818 628 776 469.5 c 128,-1,56
 734 311 734 311 613 194 c 0,57,58
 508 97 508 97 372.5 40 c 128,-1,59
 237 -17 237 -17 81 -28 c 1,60,-1
 70 27 l 1,21,22
EndSplineSet
Substitution2: "<17016,16016> Urdu Swash lookup 75 subtable" nine
PairPos2: "'kern' Horizontal Kerning in Arabic lookup 0 subtable" afii57509 dx=0 dy=0 dh=0 dv=0 dx=0 dy=0 dh=250 dv=0
PairPos2: "'kern' Horizontal Kerning in Arabic lookup 0 subtable" uni06AB dx=0 dy=0 dh=0 dv=0 dx=0 dy=0 dh=250 dv=0
PairPos2: "'kern' Horizontal Kerning in Arabic lookup 0 subtable" uni06A9 dx=0 dy=0 dh=0 dv=0 dx=0 dy=0 dh=250 dv=0
PairPos2: "'kern' Horizontal Kerning in Arabic lookup 0 subtable" uniFB94 dx=0 dy=0 dh=0 dv=0 dx=0 dy=0 dh=250 dv=0
PairPos2: "'kern' Horizontal Kerning in Arabic lookup 0 subtable" uniFBD5 dx=0 dy=0 dh=0 dv=0 dx=0 dy=0 dh=250 dv=0
PairPos2: "'kern' Horizontal Kerning in Arabic lookup 0 subtable" uni06AB.ini dx=0 dy=0 dh=0 dv=0 dx=0 dy=0 dh=250 dv=0
PairPos2: "'kern' Horizontal Kerning in Arabic lookup 0 subtable" uniFB90 dx=0 dy=0 dh=0 dv=0 dx=0 dy=0 dh=250 dv=0
PairPos2: "'kern' Horizontal Kerning in Arabic lookup 0 subtable" uniFEDB dx=0 dy=0 dh=0 dv=0 dx=0 dy=0 dh=250 dv=0
PairPos2: "'kern' Horizontal Kerning in Arabic lookup 0 subtable" uni0671 dx=0 dy=0 dh=0 dv=0 dx=0 dy=0 dh=200 dv=0
PairPos2: "'kern' Horizontal Kerning in Arabic lookup 0 subtable" afii57410 dx=0 dy=0 dh=0 dv=0 dx=0 dy=0 dh=200 dv=0
PairPos2: "'kern' Horizontal Kerning in Arabic lookup 0 subtable" afii57415 dx=0 dy=0 dh=0 dv=0 dx=0 dy=0 dh=50 dv=0
EndChar

StartChar: colon
Encoding: 58 58 29
Width: 565
GlyphClass: 2
Flags: W
LayerCount: 2
Fore
SplineSet
146 856 m 0,0,1
 170 836 170 836 183.5 813.5 c 128,-1,2
 197 791 197 791 203 766 c 0,3,4
 208 740 208 740 204 715.5 c 128,-1,5
 200 691 200 691 186 672.5 c 128,-1,6
 172 654 172 654 151 643 c 128,-1,7
 130 632 130 632 103 632 c 0,8,9
 77 632 77 632 50.5 642 c 128,-1,10
 24 652 24 652 2 670 c 128,-1,11
 -20 688 -20 688 -36 711.5 c 128,-1,12
 -52 735 -52 735 -58 762 c 0,13,14
 -63 789 -63 789 -57.5 813.5 c 128,-1,15
 -52 838 -52 838 -37.5 856 c 128,-1,16
 -23 874 -23 874 -1.5 884.5 c 128,-1,17
 20 895 20 895 47 895 c 0,18,19
 98 895 98 895 146 856 c 0,0,1
306 264 m 0,20,21
 312 239 312 239 307 215 c 128,-1,22
 302 191 302 191 289.5 172.5 c 128,-1,23
 277 154 277 154 255.5 143 c 128,-1,24
 234 132 234 132 206 132 c 256,25,26
 178 132 178 132 151 142.5 c 128,-1,27
 124 153 124 153 102.5 171 c 128,-1,28
 81 189 81 189 65.5 212.5 c 128,-1,29
 50 236 50 236 44 261 c 0,30,31
 39 289 39 289 45.5 313.5 c 128,-1,32
 52 338 52 338 66.5 356 c 128,-1,33
 81 374 81 374 103 384.5 c 128,-1,34
 125 395 125 395 150 395 c 0,35,36
 177 395 177 395 202.5 384.5 c 128,-1,37
 228 374 228 374 249.5 356.5 c 128,-1,38
 271 339 271 339 286 315 c 128,-1,39
 301 291 301 291 306 264 c 0,20,21
EndSplineSet
Substitution2: "<17016,16016> Urdu Swash lookup 75 subtable" colon
PairPos2: "'kern' Horizontal Kerning in Arabic lookup 0 subtable" afii57509 dx=0 dy=0 dh=0 dv=0 dx=0 dy=0 dh=250 dv=0
PairPos2: "'kern' Horizontal Kerning in Arabic lookup 0 subtable" uni06AB dx=0 dy=0 dh=0 dv=0 dx=0 dy=0 dh=250 dv=0
PairPos2: "'kern' Horizontal Kerning in Arabic lookup 0 subtable" uni06A9 dx=0 dy=0 dh=0 dv=0 dx=0 dy=0 dh=250 dv=0
PairPos2: "'kern' Horizontal Kerning in Arabic lookup 0 subtable" uniFB94 dx=0 dy=0 dh=0 dv=0 dx=0 dy=0 dh=250 dv=0
PairPos2: "'kern' Horizontal Kerning in Arabic lookup 0 subtable" uniFBD5 dx=0 dy=0 dh=0 dv=0 dx=0 dy=0 dh=250 dv=0
PairPos2: "'kern' Horizontal Kerning in Arabic lookup 0 subtable" uni06AB.ini dx=0 dy=0 dh=0 dv=0 dx=0 dy=0 dh=250 dv=0
PairPos2: "'kern' Horizontal Kerning in Arabic lookup 0 subtable" uniFB90 dx=0 dy=0 dh=0 dv=0 dx=0 dy=0 dh=250 dv=0
PairPos2: "'kern' Horizontal Kerning in Arabic lookup 0 subtable" uniFEDB dx=0 dy=0 dh=0 dv=0 dx=0 dy=0 dh=250 dv=0
PairPos2: "'kern' Horizontal Kerning in Arabic lookup 0 subtable" uni0671 dx=0 dy=0 dh=0 dv=0 dx=0 dy=0 dh=200 dv=0
PairPos2: "'kern' Horizontal Kerning in Arabic lookup 0 subtable" afii57410 dx=0 dy=0 dh=0 dv=0 dx=0 dy=0 dh=200 dv=0
PairPos2: "'kern' Horizontal Kerning in Arabic lookup 0 subtable" afii57415 dx=0 dy=0 dh=0 dv=0 dx=0 dy=0 dh=50 dv=0
EndChar

StartChar: semicolon
Encoding: 59 59 30
Width: 682
GlyphClass: 2
Flags: W
LayerCount: 2
Fore
SplineSet
130 968 m 256,0,1
 158 968 158 968 189.5 955.5 c 128,-1,2
 221 943 221 943 248.5 920 c 128,-1,3
 276 897 276 897 296.5 865 c 128,-1,4
 317 833 317 833 325 794 c 0,5,6
 333 754 333 754 326.5 721.5 c 128,-1,7
 320 689 320 689 302 666.5 c 128,-1,8
 284 644 284 644 258.5 632 c 128,-1,9
 233 620 233 620 204 620 c 256,10,11
 175 620 175 620 144 632 c 128,-1,12
 113 644 113 644 86 666.5 c 128,-1,13
 59 689 59 689 38 721 c 128,-1,14
 17 753 17 753 8 794 c 0,15,16
 0 835 0 835 7.5 867.5 c 128,-1,17
 15 900 15 900 33 922.5 c 128,-1,18
 51 945 51 945 76.5 956.5 c 128,-1,19
 102 968 102 968 130 968 c 256,0,1
256 -321 m 1,20,21
 311 -278 311 -278 346.5 -241 c 128,-1,22
 382 -204 382 -204 401.5 -171.5 c 128,-1,23
 421 -139 421 -139 426 -110.5 c 128,-1,24
 431 -82 431 -82 425 -55 c 0,25,26
 421 -36 421 -36 401.5 -27.5 c 128,-1,27
 382 -19 382 -19 355 -13.5 c 128,-1,28
 328 -8 328 -8 295.5 -1.5 c 128,-1,29
 263 5 263 5 233.5 21 c 128,-1,30
 204 37 204 37 180.5 66 c 128,-1,31
 157 95 157 95 146 145 c 0,32,33
 137 189 137 189 142.5 221.5 c 128,-1,34
 148 254 148 254 165 275.5 c 128,-1,35
 182 297 182 297 207.5 308 c 128,-1,36
 233 319 233 319 263 319 c 0,37,38
 301 319 301 319 339.5 304 c 128,-1,39
 378 289 378 289 411.5 259 c 128,-1,40
 445 229 445 229 470 184.5 c 128,-1,41
 495 140 495 140 508 81 c 0,42,43
 544 -88 544 -88 445 -218 c 0,44,45
 415 -257 415 -257 375.5 -293 c 128,-1,46
 336 -329 336 -329 286 -360 c 1,47,-1
 256 -321 l 1,20,21
EndSplineSet
Substitution2: "<17016,16016> Urdu Swash lookup 75 subtable" semicolon
PairPos2: "'kern' Horizontal Kerning in Arabic lookup 0 subtable" afii57509 dx=0 dy=0 dh=0 dv=0 dx=0 dy=0 dh=250 dv=0
PairPos2: "'kern' Horizontal Kerning in Arabic lookup 0 subtable" uni06AB dx=0 dy=0 dh=0 dv=0 dx=0 dy=0 dh=250 dv=0
PairPos2: "'kern' Horizontal Kerning in Arabic lookup 0 subtable" uni06A9 dx=0 dy=0 dh=0 dv=0 dx=0 dy=0 dh=250 dv=0
PairPos2: "'kern' Horizontal Kerning in Arabic lookup 0 subtable" uniFB94 dx=0 dy=0 dh=0 dv=0 dx=0 dy=0 dh=250 dv=0
PairPos2: "'kern' Horizontal Kerning in Arabic lookup 0 subtable" uniFBD5 dx=0 dy=0 dh=0 dv=0 dx=0 dy=0 dh=250 dv=0
PairPos2: "'kern' Horizontal Kerning in Arabic lookup 0 subtable" uni06AB.ini dx=0 dy=0 dh=0 dv=0 dx=0 dy=0 dh=250 dv=0
PairPos2: "'kern' Horizontal Kerning in Arabic lookup 0 subtable" uniFB90 dx=0 dy=0 dh=0 dv=0 dx=0 dy=0 dh=250 dv=0
PairPos2: "'kern' Horizontal Kerning in Arabic lookup 0 subtable" uniFEDB dx=0 dy=0 dh=0 dv=0 dx=0 dy=0 dh=250 dv=0
PairPos2: "'kern' Horizontal Kerning in Arabic lookup 0 subtable" uni0671 dx=0 dy=0 dh=0 dv=0 dx=0 dy=0 dh=200 dv=0
PairPos2: "'kern' Horizontal Kerning in Arabic lookup 0 subtable" afii57410 dx=0 dy=0 dh=0 dv=0 dx=0 dy=0 dh=200 dv=0
PairPos2: "'kern' Horizontal Kerning in Arabic lookup 0 subtable" afii57415 dx=0 dy=0 dh=0 dv=0 dx=0 dy=0 dh=50 dv=0
EndChar

StartChar: less
Encoding: 60 60 31
Width: 1050
GlyphClass: 2
Flags: W
LayerCount: 2
Fore
SplineSet
816 1086 m 1,0,-1
 862 864 l 1,1,-1
 275 533 l 1,2,3
 459 460 459 460 644.5 381.5 c 128,-1,4
 830 303 830 303 1003 205 c 1,5,-1
 1051 -20 l 1,6,-1
 -105 490 l 1,7,-1
 -123 578 l 1,8,-1
 816 1086 l 1,0,-1
EndSplineSet
Substitution2: "<17016,16016> Urdu Swash lookup 75 subtable" less
PairPos2: "'kern' Horizontal Kerning in Arabic lookup 0 subtable" afii57509 dx=0 dy=0 dh=0 dv=0 dx=0 dy=0 dh=250 dv=0
PairPos2: "'kern' Horizontal Kerning in Arabic lookup 0 subtable" uni06AB dx=0 dy=0 dh=0 dv=0 dx=0 dy=0 dh=250 dv=0
PairPos2: "'kern' Horizontal Kerning in Arabic lookup 0 subtable" uni06A9 dx=0 dy=0 dh=0 dv=0 dx=0 dy=0 dh=250 dv=0
PairPos2: "'kern' Horizontal Kerning in Arabic lookup 0 subtable" uniFB94 dx=0 dy=0 dh=0 dv=0 dx=0 dy=0 dh=250 dv=0
PairPos2: "'kern' Horizontal Kerning in Arabic lookup 0 subtable" uniFBD5 dx=0 dy=0 dh=0 dv=0 dx=0 dy=0 dh=250 dv=0
PairPos2: "'kern' Horizontal Kerning in Arabic lookup 0 subtable" uni06AB.ini dx=0 dy=0 dh=0 dv=0 dx=0 dy=0 dh=250 dv=0
PairPos2: "'kern' Horizontal Kerning in Arabic lookup 0 subtable" uniFB90 dx=0 dy=0 dh=0 dv=0 dx=0 dy=0 dh=250 dv=0
PairPos2: "'kern' Horizontal Kerning in Arabic lookup 0 subtable" uniFEDB dx=0 dy=0 dh=0 dv=0 dx=0 dy=0 dh=250 dv=0
PairPos2: "'kern' Horizontal Kerning in Arabic lookup 0 subtable" uni0671 dx=0 dy=0 dh=0 dv=0 dx=0 dy=0 dh=200 dv=0
PairPos2: "'kern' Horizontal Kerning in Arabic lookup 0 subtable" afii57410 dx=0 dy=0 dh=0 dv=0 dx=0 dy=0 dh=200 dv=0
PairPos2: "'kern' Horizontal Kerning in Arabic lookup 0 subtable" afii57415 dx=0 dy=0 dh=0 dv=0 dx=0 dy=0 dh=50 dv=0
EndChar

StartChar: equal
Encoding: 61 61 32
Width: 1050
GlyphClass: 2
Flags: W
LayerCount: 2
Fore
SplineSet
956 420 m 1,0,-1
 1000 210 l 1,1,-1
 -37 210 l 1,2,-1
 -81 420 l 1,3,-1
 956 420 l 1,0,-1
862 859 m 1,4,-1
 908 646 l 1,5,-1
 -129 646 l 1,6,-1
 -175 859 l 1,7,-1
 862 859 l 1,4,-1
EndSplineSet
Substitution2: "<17016,16016> Urdu Swash lookup 75 subtable" equal
PairPos2: "'kern' Horizontal Kerning in Arabic lookup 0 subtable" afii57509 dx=0 dy=0 dh=0 dv=0 dx=0 dy=0 dh=250 dv=0
PairPos2: "'kern' Horizontal Kerning in Arabic lookup 0 subtable" uni06AB dx=0 dy=0 dh=0 dv=0 dx=0 dy=0 dh=250 dv=0
PairPos2: "'kern' Horizontal Kerning in Arabic lookup 0 subtable" uni06A9 dx=0 dy=0 dh=0 dv=0 dx=0 dy=0 dh=250 dv=0
PairPos2: "'kern' Horizontal Kerning in Arabic lookup 0 subtable" uniFB94 dx=0 dy=0 dh=0 dv=0 dx=0 dy=0 dh=250 dv=0
PairPos2: "'kern' Horizontal Kerning in Arabic lookup 0 subtable" uniFBD5 dx=0 dy=0 dh=0 dv=0 dx=0 dy=0 dh=250 dv=0
PairPos2: "'kern' Horizontal Kerning in Arabic lookup 0 subtable" uni06AB.ini dx=0 dy=0 dh=0 dv=0 dx=0 dy=0 dh=250 dv=0
PairPos2: "'kern' Horizontal Kerning in Arabic lookup 0 subtable" uniFB90 dx=0 dy=0 dh=0 dv=0 dx=0 dy=0 dh=250 dv=0
PairPos2: "'kern' Horizontal Kerning in Arabic lookup 0 subtable" uniFEDB dx=0 dy=0 dh=0 dv=0 dx=0 dy=0 dh=250 dv=0
PairPos2: "'kern' Horizontal Kerning in Arabic lookup 0 subtable" uni0671 dx=0 dy=0 dh=0 dv=0 dx=0 dy=0 dh=200 dv=0
PairPos2: "'kern' Horizontal Kerning in Arabic lookup 0 subtable" afii57410 dx=0 dy=0 dh=0 dv=0 dx=0 dy=0 dh=200 dv=0
PairPos2: "'kern' Horizontal Kerning in Arabic lookup 0 subtable" afii57415 dx=0 dy=0 dh=0 dv=0 dx=0 dy=0 dh=50 dv=0
EndChar

StartChar: greater
Encoding: 62 62 33
Width: 1050
GlyphClass: 2
Flags: W
LayerCount: 2
Fore
SplineSet
925 578 m 1,0,-1
 943 490 l 1,1,-1
 5 -20 l 1,2,-1
 -42 205 l 1,3,4
 89 303 89 303 241 381.5 c 128,-1,5
 393 460 393 460 546 533 c 1,6,-1
 -183 864 l 1,7,-1
 -230 1086 l 1,8,-1
 925 578 l 1,0,-1
EndSplineSet
Substitution2: "<17016,16016> Urdu Swash lookup 75 subtable" greater
PairPos2: "'kern' Horizontal Kerning in Arabic lookup 0 subtable" afii57509 dx=0 dy=0 dh=0 dv=0 dx=0 dy=0 dh=250 dv=0
PairPos2: "'kern' Horizontal Kerning in Arabic lookup 0 subtable" uni06AB dx=0 dy=0 dh=0 dv=0 dx=0 dy=0 dh=250 dv=0
PairPos2: "'kern' Horizontal Kerning in Arabic lookup 0 subtable" uni06A9 dx=0 dy=0 dh=0 dv=0 dx=0 dy=0 dh=250 dv=0
PairPos2: "'kern' Horizontal Kerning in Arabic lookup 0 subtable" uniFB94 dx=0 dy=0 dh=0 dv=0 dx=0 dy=0 dh=250 dv=0
PairPos2: "'kern' Horizontal Kerning in Arabic lookup 0 subtable" uniFBD5 dx=0 dy=0 dh=0 dv=0 dx=0 dy=0 dh=250 dv=0
PairPos2: "'kern' Horizontal Kerning in Arabic lookup 0 subtable" uni06AB.ini dx=0 dy=0 dh=0 dv=0 dx=0 dy=0 dh=250 dv=0
PairPos2: "'kern' Horizontal Kerning in Arabic lookup 0 subtable" uniFB90 dx=0 dy=0 dh=0 dv=0 dx=0 dy=0 dh=250 dv=0
PairPos2: "'kern' Horizontal Kerning in Arabic lookup 0 subtable" uniFEDB dx=0 dy=0 dh=0 dv=0 dx=0 dy=0 dh=250 dv=0
PairPos2: "'kern' Horizontal Kerning in Arabic lookup 0 subtable" uni0671 dx=0 dy=0 dh=0 dv=0 dx=0 dy=0 dh=200 dv=0
PairPos2: "'kern' Horizontal Kerning in Arabic lookup 0 subtable" afii57410 dx=0 dy=0 dh=0 dv=0 dx=0 dy=0 dh=200 dv=0
PairPos2: "'kern' Horizontal Kerning in Arabic lookup 0 subtable" afii57415 dx=0 dy=0 dh=0 dv=0 dx=0 dy=0 dh=50 dv=0
EndChar

StartChar: question
Encoding: 63 63 34
Width: 1024
GlyphClass: 2
Flags: W
LayerCount: 2
Fore
SplineSet
413 319 m 0,0,1
 440 319 440 319 470.5 307.5 c 128,-1,2
 501 296 501 296 529 274 c 128,-1,3
 557 252 557 252 578.5 219.5 c 128,-1,4
 600 187 600 187 609 145 c 0,5,6
 617 104 617 104 610 71.5 c 128,-1,7
 603 39 603 39 585.5 16.5 c 128,-1,8
 568 -6 568 -6 542 -17.5 c 128,-1,9
 516 -29 516 -29 487 -29 c 0,10,11
 459 -29 459 -29 428 -17.5 c 128,-1,12
 397 -6 397 -6 369.5 16.5 c 128,-1,13
 342 39 342 39 321.5 71 c 128,-1,14
 301 103 301 103 292 145 c 256,15,16
 283 187 283 187 290.5 219.5 c 128,-1,17
 298 252 298 252 315.5 274 c 128,-1,18
 333 296 333 296 359 307.5 c 128,-1,19
 385 319 385 319 413 319 c 0,0,1
192 1410 m 0,20,21
 280 1410 280 1410 357.5 1386.5 c 128,-1,22
 435 1363 435 1363 496.5 1319.5 c 128,-1,23
 558 1276 558 1276 600.5 1213.5 c 128,-1,24
 643 1151 643 1151 659 1074 c 0,25,26
 680 974 680 974 651 901 c 128,-1,27
 622 828 622 828 556 777 c 0,28,29
 547 770 547 770 533 759.5 c 128,-1,30
 519 749 519 749 503.5 738 c 128,-1,31
 488 727 488 727 473 716.5 c 128,-1,32
 458 706 458 706 448 698 c 0,33,34
 424 681 424 681 409.5 664 c 128,-1,35
 395 647 395 647 388 630 c 1,36,-1
 388 631 l 1,37,38
 376 587 376 587 394 473 c 1,39,-1
 361 473 l 1,40,-1
 340 561 l 2,41,42
 321 653 321 653 365 786 c 0,43,44
 414 926 414 926 382 1075 c 0,45,46
 356 1199 356 1199 295.5 1266.5 c 128,-1,47
 235 1334 235 1334 132 1334 c 0,48,49
 98 1334 98 1334 75 1327 c 128,-1,50
 52 1320 52 1320 39 1308 c 128,-1,51
 26 1296 26 1296 22 1281.5 c 128,-1,52
 18 1267 18 1267 21 1252 c 0,53,54
 22 1242 22 1242 29.5 1234.5 c 128,-1,55
 37 1227 37 1227 54 1211 c 2,56,-1
 71 1194 l 2,57,58
 96 1170 96 1170 109.5 1146 c 128,-1,59
 123 1122 123 1122 131 1084 c 0,60,61
 139 1051 139 1051 133 1027 c 128,-1,62
 127 1003 127 1003 114 988 c 128,-1,63
 101 973 101 973 82.5 966 c 128,-1,64
 64 959 64 959 44 959 c 0,65,66
 23 959 23 959 -1 967.5 c 128,-1,67
 -25 976 -25 976 -47 994.5 c 128,-1,68
 -69 1013 -69 1013 -87 1043.5 c 128,-1,69
 -105 1074 -105 1074 -114 1117 c 0,70,71
 -138 1231 -138 1231 -67 1318 c 0,72,73
 9 1410 9 1410 192 1410 c 0,20,21
EndSplineSet
Substitution2: "<17016,16016> Urdu Swash lookup 75 subtable" question
PairPos2: "'kern' Horizontal Kerning in Arabic lookup 0 subtable" afii57509 dx=0 dy=0 dh=0 dv=0 dx=0 dy=0 dh=250 dv=0
PairPos2: "'kern' Horizontal Kerning in Arabic lookup 0 subtable" uni06AB dx=0 dy=0 dh=0 dv=0 dx=0 dy=0 dh=250 dv=0
PairPos2: "'kern' Horizontal Kerning in Arabic lookup 0 subtable" uni06A9 dx=0 dy=0 dh=0 dv=0 dx=0 dy=0 dh=250 dv=0
PairPos2: "'kern' Horizontal Kerning in Arabic lookup 0 subtable" uniFB94 dx=0 dy=0 dh=0 dv=0 dx=0 dy=0 dh=250 dv=0
PairPos2: "'kern' Horizontal Kerning in Arabic lookup 0 subtable" uniFBD5 dx=0 dy=0 dh=0 dv=0 dx=0 dy=0 dh=250 dv=0
PairPos2: "'kern' Horizontal Kerning in Arabic lookup 0 subtable" uni06AB.ini dx=0 dy=0 dh=0 dv=0 dx=0 dy=0 dh=250 dv=0
PairPos2: "'kern' Horizontal Kerning in Arabic lookup 0 subtable" uniFB90 dx=0 dy=0 dh=0 dv=0 dx=0 dy=0 dh=250 dv=0
PairPos2: "'kern' Horizontal Kerning in Arabic lookup 0 subtable" uniFEDB dx=0 dy=0 dh=0 dv=0 dx=0 dy=0 dh=250 dv=0
PairPos2: "'kern' Horizontal Kerning in Arabic lookup 0 subtable" uni0671 dx=0 dy=0 dh=0 dv=0 dx=0 dy=0 dh=200 dv=0
PairPos2: "'kern' Horizontal Kerning in Arabic lookup 0 subtable" afii57410 dx=0 dy=0 dh=0 dv=0 dx=0 dy=0 dh=200 dv=0
PairPos2: "'kern' Horizontal Kerning in Arabic lookup 0 subtable" afii57415 dx=0 dy=0 dh=0 dv=0 dx=0 dy=0 dh=50 dv=0
EndChar

StartChar: at
Encoding: 64 64 35
Width: 1905
GlyphClass: 2
Flags: W
LayerCount: 2
Fore
SplineSet
841 944 m 0,0,1
 727 944 727 944 686 767 c 0,2,3
 644 588 644 588 662 497 c 0,4,5
 672 456 672 456 704 413 c 1,6,-1
 704 414 l 1,7,8
 732 378 732 378 794 378 c 0,9,10
 919 378 919 378 948 570 c 0,11,12
 978 765 978 765 962 843 c 0,13,14
 952 893 952 893 922 918.5 c 128,-1,15
 892 944 892 944 841 944 c 0,0,1
1499 138 m 1,16,17
 1370 42 1370 42 1238 0.5 c 128,-1,18
 1106 -41 1106 -41 972 -41 c 0,19,20
 811 -41 811 -41 661 9.5 c 128,-1,21
 511 60 511 60 376 157 c 0,22,23
 250 252 250 252 166 373.5 c 128,-1,24
 82 495 82 495 52 637 c 0,25,26
 -18 966 -18 966 189 1190 c 0,27,28
 398 1415 398 1415 737 1415 c 0,29,30
 1006 1415 1006 1415 1231 1266 c 0,31,32
 1472 1107 1472 1107 1532 828 c 0,33,34
 1579 606 1579 606 1475 445 c 256,35,36
 1371 284 1371 284 1223 282 c 0,37,38
 1185 282 1185 282 1148 292 c 128,-1,39
 1111 302 1111 302 1080.5 322 c 128,-1,40
 1050 342 1050 342 1028 371 c 128,-1,41
 1006 400 1006 400 996 437 c 1,42,-1
 971 437 l 1,43,44
 935 352 935 352 885 317 c 128,-1,45
 835 282 835 282 769 282 c 0,46,47
 719 282 719 282 668 303 c 128,-1,48
 617 324 617 324 572.5 362.5 c 128,-1,49
 528 401 528 401 495 455.5 c 128,-1,50
 462 510 462 510 448 578 c 0,51,52
 410 751 410 751 510 893 c 0,53,54
 611 1041 611 1041 766 1041 c 0,55,56
 824 1041 824 1041 877 1013.5 c 128,-1,57
 930 986 930 986 971 923 c 1,58,-1
 998 923 l 1,59,60
 1002 946 1002 946 1004 968 c 128,-1,61
 1006 990 1006 990 1007 1013 c 1,62,-1
 1201 1013 l 1,63,64
 1200 1009 1200 1009 1197.5 988.5 c 128,-1,65
 1195 968 1195 968 1191.5 933 c 128,-1,66
 1188 898 1188 898 1183 850.5 c 128,-1,67
 1178 803 1178 803 1173 746 c 0,68,69
 1162 619 1162 619 1156 539.5 c 128,-1,70
 1150 460 1150 460 1153 446 c 0,71,72
 1155 435 1155 435 1164 423 c 128,-1,73
 1173 411 1173 411 1187.5 400.5 c 128,-1,74
 1202 390 1202 390 1220 383.5 c 128,-1,75
 1238 377 1238 377 1258 377 c 0,76,77
 1360 377 1360 377 1430 511 c 0,78,79
 1505 648 1505 648 1467 825 c 0,80,81
 1444 933 1444 933 1377 1025 c 128,-1,82
 1310 1117 1310 1117 1217 1183 c 1,83,84
 1121 1244 1121 1244 1012.5 1277.5 c 128,-1,85
 904 1311 904 1311 793 1311 c 0,86,87
 631 1311 631 1311 505.5 1253 c 128,-1,88
 380 1195 380 1195 297 1088 c 1,89,90
 227 988 227 988 201 875 c 128,-1,91
 175 762 175 762 200 644 c 0,92,93
 261 354 261 354 507 189 c 0,94,95
 713 51 713 51 975 51 c 0,96,97
 1040 51 1040 51 1100.5 60 c 128,-1,98
 1161 69 1161 69 1212 83 c 128,-1,99
 1263 97 1263 97 1302 113 c 128,-1,100
 1341 129 1341 129 1360 144 c 0,101,102
 1379 155 1379 155 1400 169.5 c 128,-1,103
 1421 184 1421 184 1444 201 c 1,104,-1
 1499 138 l 1,16,17
EndSplineSet
Substitution2: "<17016,16016> Urdu Swash lookup 75 subtable" at
PairPos2: "'kern' Horizontal Kerning in Arabic lookup 0 subtable" afii57509 dx=0 dy=0 dh=0 dv=0 dx=0 dy=0 dh=250 dv=0
PairPos2: "'kern' Horizontal Kerning in Arabic lookup 0 subtable" uni06AB dx=0 dy=0 dh=0 dv=0 dx=0 dy=0 dh=250 dv=0
PairPos2: "'kern' Horizontal Kerning in Arabic lookup 0 subtable" uni06A9 dx=0 dy=0 dh=0 dv=0 dx=0 dy=0 dh=250 dv=0
PairPos2: "'kern' Horizontal Kerning in Arabic lookup 0 subtable" uniFB94 dx=0 dy=0 dh=0 dv=0 dx=0 dy=0 dh=250 dv=0
PairPos2: "'kern' Horizontal Kerning in Arabic lookup 0 subtable" uniFBD5 dx=0 dy=0 dh=0 dv=0 dx=0 dy=0 dh=250 dv=0
PairPos2: "'kern' Horizontal Kerning in Arabic lookup 0 subtable" uni06AB.ini dx=0 dy=0 dh=0 dv=0 dx=0 dy=0 dh=250 dv=0
PairPos2: "'kern' Horizontal Kerning in Arabic lookup 0 subtable" uniFB90 dx=0 dy=0 dh=0 dv=0 dx=0 dy=0 dh=250 dv=0
PairPos2: "'kern' Horizontal Kerning in Arabic lookup 0 subtable" uniFEDB dx=0 dy=0 dh=0 dv=0 dx=0 dy=0 dh=250 dv=0
PairPos2: "'kern' Horizontal Kerning in Arabic lookup 0 subtable" uni0671 dx=0 dy=0 dh=0 dv=0 dx=0 dy=0 dh=200 dv=0
PairPos2: "'kern' Horizontal Kerning in Arabic lookup 0 subtable" afii57410 dx=0 dy=0 dh=0 dv=0 dx=0 dy=0 dh=200 dv=0
PairPos2: "'kern' Horizontal Kerning in Arabic lookup 0 subtable" afii57415 dx=0 dy=0 dh=0 dv=0 dx=0 dy=0 dh=50 dv=0
EndChar

StartChar: A
Encoding: 65 65 36
Width: 1479
GlyphClass: 2
Flags: W
LayerCount: 2
Fore
SplineSet
291 484 m 1,0,-1
 714 484 l 1,1,2
 704 499 704 499 681.5 535.5 c 128,-1,3
 659 572 659 572 629.5 619.5 c 128,-1,4
 600 667 600 667 566.5 720.5 c 128,-1,5
 533 774 533 774 503 821.5 c 128,-1,6
 473 869 473 869 450 905.5 c 128,-1,7
 427 942 427 942 418 956 c 1,8,-1
 375 956 l 1,9,10
 365 897 365 897 354.5 838 c 128,-1,11
 344 779 344 779 333 720 c 2,12,-1
 291 484 l 1,0,-1
40 55 m 1,13,14
 73 57 73 57 99 76 c 128,-1,15
 125 95 125 95 142 121 c 0,16,17
 154 144 154 144 166.5 187 c 128,-1,18
 179 230 179 230 190 292 c 2,19,-1
 406 1412 l 1,20,-1
 437 1412 l 1,21,-1
 1122 337 l 2,22,23
 1174 254 1174 254 1217 194.5 c 128,-1,24
 1260 135 1260 135 1288 104 c 0,25,26
 1335 54 1335 54 1403 54 c 1,27,-1
 1415 0 l 1,28,-1
 781 0 l 1,29,-1
 770 55 l 1,30,31
 817 57 817 57 846.5 60.5 c 128,-1,32
 876 64 876 64 889 71 c 0,33,34
 926 89 926 89 916 136 c 0,35,36
 912 154 912 154 896.5 184.5 c 128,-1,37
 881 215 881 215 859 251 c 128,-1,38
 837 287 837 287 812 326 c 128,-1,39
 787 365 787 365 764 401 c 1,40,-1
 277 401 l 1,41,42
 269 348 269 348 263.5 311 c 128,-1,43
 258 274 258 274 254 248 c 128,-1,44
 250 222 250 222 247.5 205.5 c 128,-1,45
 245 189 245 189 245 176 c 128,-1,46
 245 163 245 163 246 152.5 c 128,-1,47
 247 142 247 142 250 129 c 0,48,49
 256 100 256 100 302 78 c 128,-1,50
 348 56 348 56 428 54 c 1,51,-1
 440 0 l 1,52,-1
 51 0 l 1,53,-1
 40 55 l 1,13,14
EndSplineSet
Substitution2: "<17016,16016> Urdu Swash lookup 75 subtable" A
PairPos2: "'kern' Horizontal Kerning in Arabic lookup 0 subtable" afii57509 dx=0 dy=0 dh=0 dv=0 dx=0 dy=0 dh=250 dv=0
PairPos2: "'kern' Horizontal Kerning in Arabic lookup 0 subtable" uni06AB dx=0 dy=0 dh=0 dv=0 dx=0 dy=0 dh=250 dv=0
PairPos2: "'kern' Horizontal Kerning in Arabic lookup 0 subtable" uni06A9 dx=0 dy=0 dh=0 dv=0 dx=0 dy=0 dh=250 dv=0
PairPos2: "'kern' Horizontal Kerning in Arabic lookup 0 subtable" uniFB94 dx=0 dy=0 dh=0 dv=0 dx=0 dy=0 dh=250 dv=0
PairPos2: "'kern' Horizontal Kerning in Arabic lookup 0 subtable" uniFBD5 dx=0 dy=0 dh=0 dv=0 dx=0 dy=0 dh=250 dv=0
PairPos2: "'kern' Horizontal Kerning in Arabic lookup 0 subtable" uni06AB.ini dx=0 dy=0 dh=0 dv=0 dx=0 dy=0 dh=250 dv=0
PairPos2: "'kern' Horizontal Kerning in Arabic lookup 0 subtable" uniFB90 dx=0 dy=0 dh=0 dv=0 dx=0 dy=0 dh=250 dv=0
PairPos2: "'kern' Horizontal Kerning in Arabic lookup 0 subtable" uniFEDB dx=0 dy=0 dh=0 dv=0 dx=0 dy=0 dh=250 dv=0
PairPos2: "'kern' Horizontal Kerning in Arabic lookup 0 subtable" uni0671 dx=0 dy=0 dh=0 dv=0 dx=0 dy=0 dh=200 dv=0
PairPos2: "'kern' Horizontal Kerning in Arabic lookup 0 subtable" afii57410 dx=0 dy=0 dh=0 dv=0 dx=0 dy=0 dh=200 dv=0
PairPos2: "'kern' Horizontal Kerning in Arabic lookup 0 subtable" afii57415 dx=0 dy=0 dh=0 dv=0 dx=0 dy=0 dh=50 dv=0
EndChar

StartChar: B
Encoding: 66 66 37
Width: 1366
GlyphClass: 2
Flags: W
LayerCount: 2
Fore
SplineSet
651 1045 m 0,0,1
 627 1159 627 1159 565 1241 c 0,2,3
 505 1320 505 1320 373 1320 c 0,4,5
 337 1320 337 1320 313 1315 c 128,-1,6
 289 1310 289 1310 277 1298.5 c 128,-1,7
 265 1287 265 1287 262.5 1268.5 c 128,-1,8
 260 1250 260 1250 266 1222 c 2,9,-1
 363 764 l 1,10,-1
 377 764 l 2,11,12
 576 764 576 764 628 826 c 0,13,14
 684 893 684 893 651 1045 c 0,0,1
520 112 m 0,15,16
 554 68 554 68 636 68 c 0,17,18
 792 68 792 68 834 147 c 0,19,20
 878 232 878 232 849 370 c 0,21,22
 827 474 827 474 776 547 c 128,-1,23
 725 620 725 620 651 659 c 0,24,25
 610 677 610 677 546.5 688.5 c 128,-1,26
 483 700 483 700 407 700 c 2,27,-1
 391 700 l 1,28,-1
 377 700 l 1,29,-1
 485 190 l 2,30,31
 491 165 491 165 499.5 145.5 c 128,-1,32
 508 126 508 126 520 112 c 0,15,16
36 55 m 1,33,34
 72 57 72 57 100 62.5 c 128,-1,35
 128 68 128 68 143 76 c 0,36,37
 172 93 172 93 183 124.5 c 128,-1,38
 194 156 194 156 186 197 c 2,39,-1
 -25 1186 l 2,40,41
 -42 1269 -42 1269 -114 1306 c 0,42,43
 -152 1325 -152 1325 -236 1329 c 1,44,-1
 -247 1384 l 1,45,-1
 371 1384 l 2,46,47
 625 1384 625 1384 774 1302 c 128,-1,48
 923 1220 923 1220 958 1054 c 0,49,50
 986 922 986 922 915 851 c 0,51,52
 838 775 838 775 741 757 c 1,53,-1
 730 757 l 1,54,-1
 733 740 l 1,55,-1
 744 740 l 1,56,57
 828 724 828 724 899 692.5 c 128,-1,58
 970 661 970 661 1025.5 615.5 c 128,-1,59
 1081 570 1081 570 1118 511 c 128,-1,60
 1155 452 1155 452 1170 381 c 0,61,62
 1189 292 1189 292 1163.5 221 c 128,-1,63
 1138 150 1138 150 1073.5 101 c 128,-1,64
 1009 52 1009 52 911.5 26 c 128,-1,65
 814 0 814 0 691 0 c 2,66,-1
 47 0 l 1,67,-1
 36 55 l 1,33,34
EndSplineSet
Substitution2: "<17016,16016> Urdu Swash lookup 75 subtable" B
PairPos2: "'kern' Horizontal Kerning in Arabic lookup 0 subtable" afii57509 dx=0 dy=0 dh=0 dv=0 dx=0 dy=0 dh=250 dv=0
PairPos2: "'kern' Horizontal Kerning in Arabic lookup 0 subtable" uni06AB dx=0 dy=0 dh=0 dv=0 dx=0 dy=0 dh=250 dv=0
PairPos2: "'kern' Horizontal Kerning in Arabic lookup 0 subtable" uni06A9 dx=0 dy=0 dh=0 dv=0 dx=0 dy=0 dh=250 dv=0
PairPos2: "'kern' Horizontal Kerning in Arabic lookup 0 subtable" uniFB94 dx=0 dy=0 dh=0 dv=0 dx=0 dy=0 dh=250 dv=0
PairPos2: "'kern' Horizontal Kerning in Arabic lookup 0 subtable" uniFBD5 dx=0 dy=0 dh=0 dv=0 dx=0 dy=0 dh=250 dv=0
PairPos2: "'kern' Horizontal Kerning in Arabic lookup 0 subtable" uni06AB.ini dx=0 dy=0 dh=0 dv=0 dx=0 dy=0 dh=250 dv=0
PairPos2: "'kern' Horizontal Kerning in Arabic lookup 0 subtable" uniFB90 dx=0 dy=0 dh=0 dv=0 dx=0 dy=0 dh=250 dv=0
PairPos2: "'kern' Horizontal Kerning in Arabic lookup 0 subtable" uniFEDB dx=0 dy=0 dh=0 dv=0 dx=0 dy=0 dh=250 dv=0
PairPos2: "'kern' Horizontal Kerning in Arabic lookup 0 subtable" uni0671 dx=0 dy=0 dh=0 dv=0 dx=0 dy=0 dh=200 dv=0
PairPos2: "'kern' Horizontal Kerning in Arabic lookup 0 subtable" afii57410 dx=0 dy=0 dh=0 dv=0 dx=0 dy=0 dh=200 dv=0
PairPos2: "'kern' Horizontal Kerning in Arabic lookup 0 subtable" afii57415 dx=0 dy=0 dh=0 dv=0 dx=0 dy=0 dh=50 dv=0
EndChar

StartChar: C
Encoding: 67 67 38
AltUni2: 00216d.ffffffff.0
Width: 1479
GlyphClass: 2
Flags: W
LayerCount: 2
Fore
SplineSet
915 1315 m 0,0,1
 938 1315 938 1315 954.5 1323.5 c 128,-1,2
 971 1332 971 1332 982 1345 c 128,-1,3
 993 1358 993 1358 997.5 1375 c 128,-1,4
 1002 1392 1002 1392 1002 1408 c 1,5,-1
 1031 1408 l 1,6,-1
 1133 928 l 1,7,-1
 1108 928 l 1,8,9
 1085 962 1085 962 1059 996 c 128,-1,10
 1033 1030 1033 1030 1005.5 1061.5 c 128,-1,11
 978 1093 978 1093 951.5 1121.5 c 128,-1,12
 925 1150 925 1150 901 1173 c 0,13,14
 815 1251 815 1251 719.5 1295 c 128,-1,15
 624 1339 624 1339 532 1339 c 0,16,17
 426 1339 426 1339 358 1293 c 128,-1,18
 290 1247 290 1247 263 1162 c 1,19,20
 240 1074 240 1074 243.5 952.5 c 128,-1,21
 247 831 247 831 277 687 c 0,22,23
 343 377 343 377 481 219 c 128,-1,24
 619 61 619 61 828 61 c 0,25,26
 906 61 906 61 979 85 c 128,-1,27
 1052 109 1052 109 1110 149 c 0,28,29
 1146 177 1146 177 1183.5 216.5 c 128,-1,30
 1221 256 1221 256 1256 304 c 1,31,-1
 1316 262 l 1,32,33
 1270 194 1270 194 1226.5 144.5 c 128,-1,34
 1183 95 1183 95 1147 66 c 0,35,36
 1079 16 1079 16 994.5 -12.5 c 128,-1,37
 910 -41 910 -41 817 -41 c 0,38,39
 665 -41 665 -41 523 10 c 128,-1,40
 381 61 381 61 264 155 c 128,-1,41
 147 249 147 249 63.5 381 c 128,-1,42
 -20 513 -20 513 -55 675 c 0,43,44
 -127 1014 -127 1014 42 1216 c 0,45,46
 205 1410 205 1410 492 1410 c 0,47,48
 617 1410 617 1410 755 1362 c 0,49,50
 895 1315 895 1315 915 1315 c 0,0,1
EndSplineSet
Substitution2: "<17016,16016> Urdu Swash lookup 75 subtable" C
PairPos2: "'kern' Horizontal Kerning in Arabic lookup 0 subtable" afii57509 dx=0 dy=0 dh=0 dv=0 dx=0 dy=0 dh=250 dv=0
PairPos2: "'kern' Horizontal Kerning in Arabic lookup 0 subtable" uni06AB dx=0 dy=0 dh=0 dv=0 dx=0 dy=0 dh=250 dv=0
PairPos2: "'kern' Horizontal Kerning in Arabic lookup 0 subtable" uni06A9 dx=0 dy=0 dh=0 dv=0 dx=0 dy=0 dh=250 dv=0
PairPos2: "'kern' Horizontal Kerning in Arabic lookup 0 subtable" uniFB94 dx=0 dy=0 dh=0 dv=0 dx=0 dy=0 dh=250 dv=0
PairPos2: "'kern' Horizontal Kerning in Arabic lookup 0 subtable" uniFBD5 dx=0 dy=0 dh=0 dv=0 dx=0 dy=0 dh=250 dv=0
PairPos2: "'kern' Horizontal Kerning in Arabic lookup 0 subtable" uni06AB.ini dx=0 dy=0 dh=0 dv=0 dx=0 dy=0 dh=250 dv=0
PairPos2: "'kern' Horizontal Kerning in Arabic lookup 0 subtable" uniFB90 dx=0 dy=0 dh=0 dv=0 dx=0 dy=0 dh=250 dv=0
PairPos2: "'kern' Horizontal Kerning in Arabic lookup 0 subtable" uniFEDB dx=0 dy=0 dh=0 dv=0 dx=0 dy=0 dh=250 dv=0
PairPos2: "'kern' Horizontal Kerning in Arabic lookup 0 subtable" uni0671 dx=0 dy=0 dh=0 dv=0 dx=0 dy=0 dh=200 dv=0
PairPos2: "'kern' Horizontal Kerning in Arabic lookup 0 subtable" afii57410 dx=0 dy=0 dh=0 dv=0 dx=0 dy=0 dh=200 dv=0
PairPos2: "'kern' Horizontal Kerning in Arabic lookup 0 subtable" afii57415 dx=0 dy=0 dh=0 dv=0 dx=0 dy=0 dh=50 dv=0
EndChar

StartChar: D
Encoding: 68 68 39
AltUni2: 00216e.ffffffff.0
Width: 1479
GlyphClass: 2
Flags: W
LayerCount: 2
Fore
SplineSet
625 72 m 0,0,1
 669 72 669 72 710.5 81.5 c 128,-1,2
 752 91 752 91 788 108 c 128,-1,3
 824 125 824 125 854.5 148.5 c 128,-1,4
 885 172 885 172 907 200 c 1,5,6
 947 269 947 269 953.5 395 c 128,-1,7
 960 521 960 521 923 692 c 0,8,9
 913 742 913 742 897 792 c 128,-1,10
 881 842 881 842 862.5 890.5 c 128,-1,11
 844 939 844 939 823 983.5 c 128,-1,12
 802 1028 802 1028 780 1065 c 0,13,14
 703 1183 703 1183 599 1248.5 c 128,-1,15
 495 1314 495 1314 370 1314 c 0,16,17
 328 1314 328 1314 303.5 1307.5 c 128,-1,18
 279 1301 279 1301 267.5 1287 c 128,-1,19
 256 1273 256 1273 255 1250.5 c 128,-1,20
 254 1228 254 1228 261 1196 c 2,21,-1
 475 190 l 2,22,23
 489 134 489 134 520 100 c 0,24,25
 547 72 547 72 625 72 c 0,0,1
31 55 m 1,26,27
 100 60 100 60 130 76 c 0,28,29
 157 94 157 94 169 122.5 c 128,-1,30
 181 151 181 151 173 188 c 2,31,-1
 -41 1196 l 2,32,33
 -56 1268 -56 1268 -128 1305 c 0,34,35
 -146 1314 -146 1314 -173.5 1319.5 c 128,-1,36
 -201 1325 -201 1325 -241 1329 c 1,37,-1
 -252 1384 l 1,38,-1
 359 1384 l 2,39,40
 531 1384 531 1384 679 1338.5 c 128,-1,41
 827 1293 827 1293 942 1204.5 c 128,-1,42
 1057 1116 1057 1116 1136 986 c 128,-1,43
 1215 856 1215 856 1251 688 c 0,44,45
 1311 407 1311 407 1173 217 c 0,46,47
 1014 0 1014 0 674 0 c 2,48,-1
 42 0 l 1,49,-1
 31 55 l 1,26,27
EndSplineSet
Substitution2: "<17016,16016> Urdu Swash lookup 75 subtable" D
PairPos2: "'kern' Horizontal Kerning in Arabic lookup 0 subtable" afii57509 dx=0 dy=0 dh=0 dv=0 dx=0 dy=0 dh=250 dv=0
PairPos2: "'kern' Horizontal Kerning in Arabic lookup 0 subtable" uni06AB dx=0 dy=0 dh=0 dv=0 dx=0 dy=0 dh=250 dv=0
PairPos2: "'kern' Horizontal Kerning in Arabic lookup 0 subtable" uni06A9 dx=0 dy=0 dh=0 dv=0 dx=0 dy=0 dh=250 dv=0
PairPos2: "'kern' Horizontal Kerning in Arabic lookup 0 subtable" uniFB94 dx=0 dy=0 dh=0 dv=0 dx=0 dy=0 dh=250 dv=0
PairPos2: "'kern' Horizontal Kerning in Arabic lookup 0 subtable" uniFBD5 dx=0 dy=0 dh=0 dv=0 dx=0 dy=0 dh=250 dv=0
PairPos2: "'kern' Horizontal Kerning in Arabic lookup 0 subtable" uni06AB.ini dx=0 dy=0 dh=0 dv=0 dx=0 dy=0 dh=250 dv=0
PairPos2: "'kern' Horizontal Kerning in Arabic lookup 0 subtable" uniFB90 dx=0 dy=0 dh=0 dv=0 dx=0 dy=0 dh=250 dv=0
PairPos2: "'kern' Horizontal Kerning in Arabic lookup 0 subtable" uniFEDB dx=0 dy=0 dh=0 dv=0 dx=0 dy=0 dh=250 dv=0
PairPos2: "'kern' Horizontal Kerning in Arabic lookup 0 subtable" uni0671 dx=0 dy=0 dh=0 dv=0 dx=0 dy=0 dh=200 dv=0
PairPos2: "'kern' Horizontal Kerning in Arabic lookup 0 subtable" afii57410 dx=0 dy=0 dh=0 dv=0 dx=0 dy=0 dh=200 dv=0
PairPos2: "'kern' Horizontal Kerning in Arabic lookup 0 subtable" afii57415 dx=0 dy=0 dh=0 dv=0 dx=0 dy=0 dh=50 dv=0
EndChar

StartChar: E
Encoding: 69 69 40
Width: 1366
GlyphClass: 2
Flags: W
LayerCount: 2
Fore
SplineSet
47 0 m 1,0,-1
 35 54 l 1,1,2
 137 58 137 58 169.5 94 c 128,-1,3
 202 130 202 130 188 197 c 2,4,-1
 -23 1186 l 2,5,6
 -40 1269 -40 1269 -114 1306 c 0,7,8
 -152 1325 -152 1325 -236 1329 c 1,9,-1
 -247 1384 l 1,10,-1
 903 1384 l 1,11,-1
 991 970 l 1,12,-1
 969 970 l 1,13,14
 892 1161 892 1161 774 1240 c 0,15,16
 666 1313 666 1313 410 1313 c 0,17,18
 360 1313 360 1313 328.5 1308 c 128,-1,19
 297 1303 297 1303 287 1293 c 0,20,21
 261 1268 261 1268 272 1217 c 2,22,-1
 372 745 l 1,23,-1
 386 745 l 2,24,25
 572 745 572 745 620 808 c 0,26,27
 672 880 672 880 668 1048 c 1,28,-1
 692 1048 l 1,29,-1
 838 355 l 1,30,-1
 814 355 l 1,31,32
 756 526 756 526 669 600 c 0,33,34
 587 672 587 672 402 672 c 2,35,-1
 388 672 l 1,36,-1
 493 178 l 2,37,38
 499 149 499 149 513.5 126.5 c 128,-1,39
 528 104 528 104 551 90 c 0,40,41
 591 67 591 67 701 67 c 0,42,43
 904 67 904 67 1012 143 c 0,44,45
 1125 224 1125 224 1177 427 c 1,46,-1
 1207 427 l 1,47,-1
 1214 0 l 1,48,-1
 47 0 l 1,0,-1
EndSplineSet
Substitution2: "<17016,16016> Urdu Swash lookup 75 subtable" E
PairPos2: "'kern' Horizontal Kerning in Arabic lookup 0 subtable" afii57509 dx=0 dy=0 dh=0 dv=0 dx=0 dy=0 dh=250 dv=0
PairPos2: "'kern' Horizontal Kerning in Arabic lookup 0 subtable" uni06AB dx=0 dy=0 dh=0 dv=0 dx=0 dy=0 dh=250 dv=0
PairPos2: "'kern' Horizontal Kerning in Arabic lookup 0 subtable" uni06A9 dx=0 dy=0 dh=0 dv=0 dx=0 dy=0 dh=250 dv=0
PairPos2: "'kern' Horizontal Kerning in Arabic lookup 0 subtable" uniFB94 dx=0 dy=0 dh=0 dv=0 dx=0 dy=0 dh=250 dv=0
PairPos2: "'kern' Horizontal Kerning in Arabic lookup 0 subtable" uniFBD5 dx=0 dy=0 dh=0 dv=0 dx=0 dy=0 dh=250 dv=0
PairPos2: "'kern' Horizontal Kerning in Arabic lookup 0 subtable" uni06AB.ini dx=0 dy=0 dh=0 dv=0 dx=0 dy=0 dh=250 dv=0
PairPos2: "'kern' Horizontal Kerning in Arabic lookup 0 subtable" uniFB90 dx=0 dy=0 dh=0 dv=0 dx=0 dy=0 dh=250 dv=0
PairPos2: "'kern' Horizontal Kerning in Arabic lookup 0 subtable" uniFEDB dx=0 dy=0 dh=0 dv=0 dx=0 dy=0 dh=250 dv=0
PairPos2: "'kern' Horizontal Kerning in Arabic lookup 0 subtable" uni0671 dx=0 dy=0 dh=0 dv=0 dx=0 dy=0 dh=200 dv=0
PairPos2: "'kern' Horizontal Kerning in Arabic lookup 0 subtable" afii57410 dx=0 dy=0 dh=0 dv=0 dx=0 dy=0 dh=200 dv=0
PairPos2: "'kern' Horizontal Kerning in Arabic lookup 0 subtable" afii57415 dx=0 dy=0 dh=0 dv=0 dx=0 dy=0 dh=50 dv=0
EndChar

StartChar: F
Encoding: 70 70 41
Width: 1251
GlyphClass: 2
Flags: W
LayerCount: 2
Fore
SplineSet
35 54 m 1,0,1
 137 58 137 58 169.5 94 c 128,-1,2
 202 130 202 130 188 197 c 2,3,-1
 -23 1186 l 2,4,5
 -31 1224 -31 1224 -56 1255.5 c 128,-1,6
 -81 1287 -81 1287 -112 1305 c 1,7,-1
 -111 1305 l 1,8,9
 -130 1313 -130 1313 -161 1319.5 c 128,-1,10
 -192 1326 -192 1326 -236 1329 c 1,11,-1
 -247 1384 l 1,12,-1
 884 1384 l 1,13,-1
 972 970 l 1,14,-1
 950 970 l 1,15,16
 875 1154 875 1154 762 1236 c 0,17,18
 654 1313 654 1313 404 1313 c 0,19,20
 307 1313 307 1313 286 1292 c 0,21,22
 261 1268 261 1268 272 1217 c 2,23,-1
 372 745 l 1,24,-1
 386 745 l 2,25,26
 476 745 476 745 530 761 c 128,-1,27
 584 777 584 777 606 815 c 0,28,29
 651 894 651 894 649 1048 c 1,30,-1
 673 1048 l 1,31,-1
 819 355 l 1,32,-1
 795 355 l 1,33,34
 742 516 742 516 657 596 c 0,35,36
 578 672 578 672 402 672 c 2,37,-1
 388 672 l 1,38,-1
 489 197 l 2,39,40
 498 152 498 152 518.5 124.5 c 128,-1,41
 539 97 539 97 571 81 c 128,-1,42
 603 65 603 65 645.5 59.5 c 128,-1,43
 688 54 688 54 743 54 c 1,44,-1
 755 0 l 1,45,-1
 47 0 l 1,46,-1
 35 54 l 1,0,1
EndSplineSet
Substitution2: "<17016,16016> Urdu Swash lookup 75 subtable" F
PairPos2: "'kern' Horizontal Kerning in Arabic lookup 0 subtable" afii57509 dx=0 dy=0 dh=0 dv=0 dx=0 dy=0 dh=250 dv=0
PairPos2: "'kern' Horizontal Kerning in Arabic lookup 0 subtable" uni06AB dx=0 dy=0 dh=0 dv=0 dx=0 dy=0 dh=250 dv=0
PairPos2: "'kern' Horizontal Kerning in Arabic lookup 0 subtable" uni06A9 dx=0 dy=0 dh=0 dv=0 dx=0 dy=0 dh=250 dv=0
PairPos2: "'kern' Horizontal Kerning in Arabic lookup 0 subtable" uniFB94 dx=0 dy=0 dh=0 dv=0 dx=0 dy=0 dh=250 dv=0
PairPos2: "'kern' Horizontal Kerning in Arabic lookup 0 subtable" uniFBD5 dx=0 dy=0 dh=0 dv=0 dx=0 dy=0 dh=250 dv=0
PairPos2: "'kern' Horizontal Kerning in Arabic lookup 0 subtable" uni06AB.ini dx=0 dy=0 dh=0 dv=0 dx=0 dy=0 dh=250 dv=0
PairPos2: "'kern' Horizontal Kerning in Arabic lookup 0 subtable" uniFB90 dx=0 dy=0 dh=0 dv=0 dx=0 dy=0 dh=250 dv=0
PairPos2: "'kern' Horizontal Kerning in Arabic lookup 0 subtable" uniFEDB dx=0 dy=0 dh=0 dv=0 dx=0 dy=0 dh=250 dv=0
PairPos2: "'kern' Horizontal Kerning in Arabic lookup 0 subtable" uni0671 dx=0 dy=0 dh=0 dv=0 dx=0 dy=0 dh=200 dv=0
PairPos2: "'kern' Horizontal Kerning in Arabic lookup 0 subtable" afii57410 dx=0 dy=0 dh=0 dv=0 dx=0 dy=0 dh=200 dv=0
PairPos2: "'kern' Horizontal Kerning in Arabic lookup 0 subtable" afii57415 dx=0 dy=0 dh=0 dv=0 dx=0 dy=0 dh=50 dv=0
EndChar

StartChar: G
Encoding: 71 71 42
Width: 1593
GlyphClass: 2
Flags: W
LayerCount: 2
Fore
SplineSet
28 1195 m 0,0,1
 185 1410 185 1410 492 1410 c 0,2,3
 550 1410 550 1410 618 1396.5 c 128,-1,4
 686 1383 686 1383 750 1362 c 0,5,6
 809 1343 809 1343 856.5 1329 c 128,-1,7
 904 1315 904 1315 921 1315 c 0,8,9
 961 1315 961 1315 979.5 1337.5 c 128,-1,10
 998 1360 998 1360 1001 1408 c 1,11,-1
 1031 1408 l 1,12,-1
 1133 928 l 1,13,-1
 1108 928 l 1,14,15
 1085 962 1085 962 1059 996 c 128,-1,16
 1033 1030 1033 1030 1006 1061.5 c 128,-1,17
 979 1093 979 1093 952 1121.5 c 128,-1,18
 925 1150 925 1150 902 1173 c 0,19,20
 815 1251 815 1251 719 1295 c 128,-1,21
 623 1339 623 1339 531 1339 c 0,22,23
 424 1339 424 1339 359.5 1292.5 c 128,-1,24
 295 1246 295 1246 265.5 1160.5 c 128,-1,25
 236 1075 236 1075 240.5 954 c 128,-1,26
 245 833 245 833 276 685 c 0,27,28
 331 429 331 429 458 229 c 0,29,30
 585 30 585 30 841 30 c 0,31,32
 900 30 900 30 939 39.5 c 128,-1,33
 978 49 978 49 999.5 68 c 128,-1,34
 1021 87 1021 87 1027 114.5 c 128,-1,35
 1033 142 1033 142 1026 178 c 2,36,-1
 979 393 l 2,37,38
 960 482 960 482 889 514 c 0,39,40
 846 533 846 533 742 534 c 1,41,-1
 731 588 l 1,42,-1
 1404 588 l 1,43,-1
 1416 533 l 1,44,45
 1362 531 1362 531 1329.5 519.5 c 128,-1,46
 1297 508 1297 508 1282.5 485.5 c 128,-1,47
 1268 463 1268 463 1269 429.5 c 128,-1,48
 1270 396 1270 396 1280 349 c 2,49,-1
 1336 83 l 1,50,51
 1324 74 1324 74 1303.5 63.5 c 128,-1,52
 1283 53 1283 53 1257.5 42.5 c 128,-1,53
 1232 32 1232 32 1202.5 22 c 128,-1,54
 1173 12 1173 12 1143 3 c 0,55,56
 1074 -18 1074 -18 990.5 -28.5 c 128,-1,57
 907 -39 907 -39 817 -39 c 0,58,59
 486 -39 486 -39 237 176 c 0,60,61
 10 373 10 373 -56 680 c 0,62,63
 -122 991 -122 991 28 1195 c 0,0,1
EndSplineSet
Substitution2: "<17016,16016> Urdu Swash lookup 75 subtable" G
PairPos2: "'kern' Horizontal Kerning in Arabic lookup 0 subtable" afii57509 dx=0 dy=0 dh=0 dv=0 dx=0 dy=0 dh=250 dv=0
PairPos2: "'kern' Horizontal Kerning in Arabic lookup 0 subtable" uni06AB dx=0 dy=0 dh=0 dv=0 dx=0 dy=0 dh=250 dv=0
PairPos2: "'kern' Horizontal Kerning in Arabic lookup 0 subtable" uni06A9 dx=0 dy=0 dh=0 dv=0 dx=0 dy=0 dh=250 dv=0
PairPos2: "'kern' Horizontal Kerning in Arabic lookup 0 subtable" uniFB94 dx=0 dy=0 dh=0 dv=0 dx=0 dy=0 dh=250 dv=0
PairPos2: "'kern' Horizontal Kerning in Arabic lookup 0 subtable" uniFBD5 dx=0 dy=0 dh=0 dv=0 dx=0 dy=0 dh=250 dv=0
PairPos2: "'kern' Horizontal Kerning in Arabic lookup 0 subtable" uni06AB.ini dx=0 dy=0 dh=0 dv=0 dx=0 dy=0 dh=250 dv=0
PairPos2: "'kern' Horizontal Kerning in Arabic lookup 0 subtable" uniFB90 dx=0 dy=0 dh=0 dv=0 dx=0 dy=0 dh=250 dv=0
PairPos2: "'kern' Horizontal Kerning in Arabic lookup 0 subtable" uniFEDB dx=0 dy=0 dh=0 dv=0 dx=0 dy=0 dh=250 dv=0
PairPos2: "'kern' Horizontal Kerning in Arabic lookup 0 subtable" uni0671 dx=0 dy=0 dh=0 dv=0 dx=0 dy=0 dh=200 dv=0
PairPos2: "'kern' Horizontal Kerning in Arabic lookup 0 subtable" afii57410 dx=0 dy=0 dh=0 dv=0 dx=0 dy=0 dh=200 dv=0
PairPos2: "'kern' Horizontal Kerning in Arabic lookup 0 subtable" afii57415 dx=0 dy=0 dh=0 dv=0 dx=0 dy=0 dh=50 dv=0
EndChar

StartChar: H
Encoding: 72 72 43
Width: 1593
GlyphClass: 2
Flags: W
LayerCount: 2
Fore
SplineSet
40 55 m 1,0,1
 77 57 77 57 103 62 c 128,-1,2
 129 67 129 67 144 77 c 0,3,4
 200 114 200 114 183 197 c 2,5,-1
 -28 1186 l 2,6,7
 -45 1268 -45 1268 -112 1303 c 0,8,9
 -147 1322 -147 1322 -232 1329 c 1,10,-1
 -243 1384 l 1,11,-1
 421 1384 l 1,12,-1
 432 1329 l 1,13,14
 381 1326 381 1326 348 1316 c 128,-1,15
 315 1306 315 1306 297.5 1288 c 128,-1,16
 280 1270 280 1270 276.5 1244.5 c 128,-1,17
 273 1219 273 1219 280 1186 c 2,18,-1
 370 764 l 1,19,-1
 886 764 l 1,20,-1
 796 1186 l 2,21,22
 788 1227 788 1227 765 1257.5 c 128,-1,23
 742 1288 742 1288 709 1305 c 0,24,25
 690 1315 690 1315 659 1320.5 c 128,-1,26
 628 1326 628 1326 583 1329 c 1,27,-1
 572 1384 l 1,28,-1
 1240 1384 l 1,29,-1
 1251 1329 l 1,30,31
 1211 1325 1211 1325 1184 1319.5 c 128,-1,32
 1157 1314 1157 1314 1142 1304 c 0,33,34
 1087 1268 1087 1268 1104 1186 c 2,35,-1
 1315 197 l 2,36,37
 1322 164 1322 164 1336 138.5 c 128,-1,38
 1350 113 1350 113 1375 95 c 128,-1,39
 1400 77 1400 77 1436 67 c 128,-1,40
 1472 57 1472 57 1523 55 c 1,41,-1
 1534 0 l 1,42,-1
 866 0 l 1,43,-1
 854 54 l 1,44,45
 956 58 956 58 988.5 94 c 128,-1,46
 1021 130 1021 130 1007 197 c 2,47,-1
 907 667 l 1,48,-1
 391 667 l 1,49,-1
 491 197 l 2,50,51
 499 159 499 159 526.5 126.5 c 128,-1,52
 554 94 554 94 585 75 c 1,53,54
 606 67 606 67 636.5 61.5 c 128,-1,55
 667 56 667 56 703 54 c 1,56,-1
 715 0 l 1,57,-1
 51 0 l 1,58,-1
 40 55 l 1,0,1
EndSplineSet
Substitution2: "<17016,16016> Urdu Swash lookup 75 subtable" H
PairPos2: "'kern' Horizontal Kerning in Arabic lookup 0 subtable" afii57509 dx=0 dy=0 dh=0 dv=0 dx=0 dy=0 dh=250 dv=0
PairPos2: "'kern' Horizontal Kerning in Arabic lookup 0 subtable" uni06AB dx=0 dy=0 dh=0 dv=0 dx=0 dy=0 dh=250 dv=0
PairPos2: "'kern' Horizontal Kerning in Arabic lookup 0 subtable" uni06A9 dx=0 dy=0 dh=0 dv=0 dx=0 dy=0 dh=250 dv=0
PairPos2: "'kern' Horizontal Kerning in Arabic lookup 0 subtable" uniFB94 dx=0 dy=0 dh=0 dv=0 dx=0 dy=0 dh=250 dv=0
PairPos2: "'kern' Horizontal Kerning in Arabic lookup 0 subtable" uniFBD5 dx=0 dy=0 dh=0 dv=0 dx=0 dy=0 dh=250 dv=0
PairPos2: "'kern' Horizontal Kerning in Arabic lookup 0 subtable" uni06AB.ini dx=0 dy=0 dh=0 dv=0 dx=0 dy=0 dh=250 dv=0
PairPos2: "'kern' Horizontal Kerning in Arabic lookup 0 subtable" uniFB90 dx=0 dy=0 dh=0 dv=0 dx=0 dy=0 dh=250 dv=0
PairPos2: "'kern' Horizontal Kerning in Arabic lookup 0 subtable" uniFEDB dx=0 dy=0 dh=0 dv=0 dx=0 dy=0 dh=250 dv=0
PairPos2: "'kern' Horizontal Kerning in Arabic lookup 0 subtable" uni0671 dx=0 dy=0 dh=0 dv=0 dx=0 dy=0 dh=200 dv=0
PairPos2: "'kern' Horizontal Kerning in Arabic lookup 0 subtable" afii57410 dx=0 dy=0 dh=0 dv=0 dx=0 dy=0 dh=200 dv=0
PairPos2: "'kern' Horizontal Kerning in Arabic lookup 0 subtable" afii57415 dx=0 dy=0 dh=0 dv=0 dx=0 dy=0 dh=50 dv=0
EndChar

StartChar: I
Encoding: 73 73 44
Width: 797
GlyphClass: 2
Flags: W
LayerCount: 2
Fore
SplineSet
35 54 m 1,0,1
 137 56 137 56 172 91.5 c 128,-1,2
 207 127 207 127 193 197 c 2,3,-1
 -18 1186 l 2,4,5
 -28 1230 -28 1230 -51 1259.5 c 128,-1,6
 -74 1289 -74 1289 -109 1307 c 0,7,8
 -129 1317 -129 1317 -160.5 1322 c 128,-1,9
 -192 1327 -192 1327 -236 1329 c 1,10,-1
 -247 1384 l 1,11,-1
 440 1384 l 1,12,-1
 451 1329 l 1,13,14
 409 1327 409 1327 378 1321.5 c 128,-1,15
 347 1316 347 1316 331 1308 c 0,16,17
 306 1290 306 1290 293.5 1259 c 128,-1,18
 281 1228 281 1228 290 1186 c 2,19,-1
 501 197 l 2,20,21
 517 121 517 121 571.5 87.5 c 128,-1,22
 626 54 626 54 722 54 c 1,23,-1
 734 0 l 1,24,-1
 47 0 l 1,25,-1
 35 54 l 1,0,1
EndSplineSet
Substitution2: "<17016,16016> Urdu Swash lookup 75 subtable" I
PairPos2: "'kern' Horizontal Kerning in Arabic lookup 0 subtable" afii57509 dx=0 dy=0 dh=0 dv=0 dx=0 dy=0 dh=250 dv=0
PairPos2: "'kern' Horizontal Kerning in Arabic lookup 0 subtable" uni06AB dx=0 dy=0 dh=0 dv=0 dx=0 dy=0 dh=250 dv=0
PairPos2: "'kern' Horizontal Kerning in Arabic lookup 0 subtable" uni06A9 dx=0 dy=0 dh=0 dv=0 dx=0 dy=0 dh=250 dv=0
PairPos2: "'kern' Horizontal Kerning in Arabic lookup 0 subtable" uniFB94 dx=0 dy=0 dh=0 dv=0 dx=0 dy=0 dh=250 dv=0
PairPos2: "'kern' Horizontal Kerning in Arabic lookup 0 subtable" uniFBD5 dx=0 dy=0 dh=0 dv=0 dx=0 dy=0 dh=250 dv=0
PairPos2: "'kern' Horizontal Kerning in Arabic lookup 0 subtable" uni06AB.ini dx=0 dy=0 dh=0 dv=0 dx=0 dy=0 dh=250 dv=0
PairPos2: "'kern' Horizontal Kerning in Arabic lookup 0 subtable" uniFB90 dx=0 dy=0 dh=0 dv=0 dx=0 dy=0 dh=250 dv=0
PairPos2: "'kern' Horizontal Kerning in Arabic lookup 0 subtable" uniFEDB dx=0 dy=0 dh=0 dv=0 dx=0 dy=0 dh=250 dv=0
PairPos2: "'kern' Horizontal Kerning in Arabic lookup 0 subtable" uni0671 dx=0 dy=0 dh=0 dv=0 dx=0 dy=0 dh=200 dv=0
PairPos2: "'kern' Horizontal Kerning in Arabic lookup 0 subtable" afii57410 dx=0 dy=0 dh=0 dv=0 dx=0 dy=0 dh=200 dv=0
PairPos2: "'kern' Horizontal Kerning in Arabic lookup 0 subtable" afii57415 dx=0 dy=0 dh=0 dv=0 dx=0 dy=0 dh=50 dv=0
EndChar

StartChar: J
Encoding: 74 74 45
Width: 1024
GlyphClass: 2
Flags: W
LayerCount: 2
Fore
SplineSet
672 1384 m 1,0,-1
 683 1329 l 1,1,2
 629 1325 629 1325 595 1316 c 128,-1,3
 561 1307 561 1307 544.5 1286.5 c 128,-1,4
 528 1266 528 1266 527 1231.5 c 128,-1,5
 526 1197 526 1197 537 1143 c 2,6,-1
 725 262 l 2,7,8
 749 148 749 148 736.5 61.5 c 128,-1,9
 724 -25 724 -25 679.5 -83 c 128,-1,10
 635 -141 635 -141 560 -170.5 c 128,-1,11
 485 -200 485 -200 386 -200 c 0,12,13
 318 -200 318 -200 255 -179 c 128,-1,14
 192 -158 192 -158 140.5 -122.5 c 128,-1,15
 89 -87 89 -87 54 -40 c 128,-1,16
 19 7 19 7 8 59 c 0,17,18
 -1 103 -1 103 5.5 134 c 128,-1,19
 12 165 12 165 27.5 184.5 c 128,-1,20
 43 204 43 204 65 213 c 128,-1,21
 87 222 87 222 109 222 c 0,22,23
 132 222 132 222 156 212.5 c 128,-1,24
 180 203 180 203 201.5 184.5 c 128,-1,25
 223 166 223 166 239.5 139.5 c 128,-1,26
 256 113 256 113 263 79 c 0,27,28
 268 54 268 54 267.5 24 c 128,-1,29
 267 -6 267 -6 257 -26 c 1,30,-1
 257 -25 l 1,31,32
 251 -44 251 -44 248 -55.5 c 128,-1,33
 245 -67 245 -67 246 -69 c 0,34,35
 252 -98 252 -98 283 -113.5 c 128,-1,36
 314 -129 314 -129 353 -129 c 0,37,38
 397 -129 397 -129 425 -120.5 c 128,-1,39
 453 -112 453 -112 466 -91 c 128,-1,40
 479 -70 479 -70 479 -35.5 c 128,-1,41
 479 -1 479 -1 468 50 c 2,42,-1
 227 1186 l 2,43,44
 208 1274 208 1274 132 1308 c 0,45,46
 111 1317 111 1317 77 1322 c 128,-1,47
 43 1327 43 1327 -9 1329 c 1,48,-1
 -20 1384 l 1,49,-1
 672 1384 l 1,0,-1
EndSplineSet
Substitution2: "<17016,16016> Urdu Swash lookup 75 subtable" J
PairPos2: "'kern' Horizontal Kerning in Arabic lookup 0 subtable" afii57509 dx=0 dy=0 dh=0 dv=0 dx=0 dy=0 dh=250 dv=0
PairPos2: "'kern' Horizontal Kerning in Arabic lookup 0 subtable" uni06AB dx=0 dy=0 dh=0 dv=0 dx=0 dy=0 dh=250 dv=0
PairPos2: "'kern' Horizontal Kerning in Arabic lookup 0 subtable" uni06A9 dx=0 dy=0 dh=0 dv=0 dx=0 dy=0 dh=250 dv=0
PairPos2: "'kern' Horizontal Kerning in Arabic lookup 0 subtable" uniFB94 dx=0 dy=0 dh=0 dv=0 dx=0 dy=0 dh=250 dv=0
PairPos2: "'kern' Horizontal Kerning in Arabic lookup 0 subtable" uniFBD5 dx=0 dy=0 dh=0 dv=0 dx=0 dy=0 dh=250 dv=0
PairPos2: "'kern' Horizontal Kerning in Arabic lookup 0 subtable" uni06AB.ini dx=0 dy=0 dh=0 dv=0 dx=0 dy=0 dh=250 dv=0
PairPos2: "'kern' Horizontal Kerning in Arabic lookup 0 subtable" uniFB90 dx=0 dy=0 dh=0 dv=0 dx=0 dy=0 dh=250 dv=0
PairPos2: "'kern' Horizontal Kerning in Arabic lookup 0 subtable" uniFEDB dx=0 dy=0 dh=0 dv=0 dx=0 dy=0 dh=250 dv=0
PairPos2: "'kern' Horizontal Kerning in Arabic lookup 0 subtable" uni0671 dx=0 dy=0 dh=0 dv=0 dx=0 dy=0 dh=200 dv=0
PairPos2: "'kern' Horizontal Kerning in Arabic lookup 0 subtable" afii57410 dx=0 dy=0 dh=0 dv=0 dx=0 dy=0 dh=200 dv=0
PairPos2: "'kern' Horizontal Kerning in Arabic lookup 0 subtable" afii57415 dx=0 dy=0 dh=0 dv=0 dx=0 dy=0 dh=50 dv=0
EndChar

StartChar: K
Encoding: 75 75 46
AltUni2: 00212a.ffffffff.0
Width: 1593
GlyphClass: 2
Flags: W
LayerCount: 2
Fore
SplineSet
55 55 m 1,0,1
 104 57 104 57 136 67 c 128,-1,2
 168 77 168 77 185 94.5 c 128,-1,3
 202 112 202 112 205.5 138 c 128,-1,4
 209 164 209 164 202 197 c 2,5,-1
 -9 1186 l 2,6,7
 -26 1269 -26 1269 -95 1305 c 1,8,-1
 -94 1305 l 1,9,10
 -129 1323 -129 1323 -217 1329 c 1,11,-1
 -228 1384 l 1,12,-1
 435 1384 l 1,13,-1
 446 1329 l 1,14,15
 400 1324 400 1324 366.5 1313.5 c 128,-1,16
 333 1303 333 1303 317 1290 c 1,17,18
 304 1270 304 1270 300 1231.5 c 128,-1,19
 296 1193 296 1193 306 1143 c 2,20,-1
 399 707 l 1,21,-1
 423 707 l 1,22,23
 428 713 428 713 454.5 746.5 c 128,-1,24
 481 780 481 780 517.5 827.5 c 128,-1,25
 554 875 554 875 596.5 929.5 c 128,-1,26
 639 984 639 984 676 1031.5 c 128,-1,27
 713 1079 713 1079 739 1112.5 c 128,-1,28
 765 1146 765 1146 770 1152 c 0,29,30
 807 1200 807 1200 816 1217 c 0,31,32
 819 1228 819 1228 821.5 1241 c 128,-1,33
 824 1254 824 1254 822 1264 c 0,34,35
 818 1280 818 1280 809 1291 c 128,-1,36
 800 1302 800 1302 779 1309.5 c 128,-1,37
 758 1317 758 1317 724 1321.5 c 128,-1,38
 690 1326 690 1326 635 1329 c 1,39,-1
 624 1384 l 1,40,-1
 1188 1384 l 1,41,-1
 1199 1329 l 1,42,43
 1125 1323 1125 1323 1065 1300 c 128,-1,44
 1005 1277 1005 1277 961 1240 c 0,45,46
 938 1219 938 1219 905 1182.5 c 128,-1,47
 872 1146 872 1146 830.5 1097.5 c 128,-1,48
 789 1049 789 1049 741.5 990.5 c 128,-1,49
 694 932 694 932 644 867 c 1,50,51
 740 775 740 775 840.5 675.5 c 128,-1,52
 941 576 941 576 1036 482 c 2,53,-1
 1431 96 l 2,54,55
 1452 76 1452 76 1475.5 67.5 c 128,-1,56
 1499 59 1499 59 1537 55 c 1,57,-1
 1548 0 l 1,58,-1
 890 0 l 1,59,-1
 878 54 l 1,60,61
 967 56 967 56 1001.5 64.5 c 128,-1,62
 1036 73 1036 73 1031 96 c 0,63,64
 1028 108 1028 108 995 144.5 c 128,-1,65
 962 181 962 181 915 228 c 128,-1,66
 868 275 868 275 817 325.5 c 128,-1,67
 766 376 766 376 724 416 c 0,68,69
 663 475 663 475 605 533 c 128,-1,70
 547 591 547 591 489 648 c 1,71,-1
 468 648 l 1,72,-1
 427 596 l 1,73,-1
 423 596 l 1,74,-1
 508 197 l 2,75,76
 524 115 524 115 600 77 c 0,77,78
 636 59 636 59 715 55 c 1,79,-1
 726 0 l 1,80,-1
 66 0 l 1,81,-1
 55 55 l 1,0,1
EndSplineSet
Substitution2: "<17016,16016> Urdu Swash lookup 75 subtable" K
PairPos2: "'kern' Horizontal Kerning in Arabic lookup 0 subtable" afii57509 dx=0 dy=0 dh=0 dv=0 dx=0 dy=0 dh=250 dv=0
PairPos2: "'kern' Horizontal Kerning in Arabic lookup 0 subtable" uni06AB dx=0 dy=0 dh=0 dv=0 dx=0 dy=0 dh=250 dv=0
PairPos2: "'kern' Horizontal Kerning in Arabic lookup 0 subtable" uni06A9 dx=0 dy=0 dh=0 dv=0 dx=0 dy=0 dh=250 dv=0
PairPos2: "'kern' Horizontal Kerning in Arabic lookup 0 subtable" uniFB94 dx=0 dy=0 dh=0 dv=0 dx=0 dy=0 dh=250 dv=0
PairPos2: "'kern' Horizontal Kerning in Arabic lookup 0 subtable" uniFBD5 dx=0 dy=0 dh=0 dv=0 dx=0 dy=0 dh=250 dv=0
PairPos2: "'kern' Horizontal Kerning in Arabic lookup 0 subtable" uni06AB.ini dx=0 dy=0 dh=0 dv=0 dx=0 dy=0 dh=250 dv=0
PairPos2: "'kern' Horizontal Kerning in Arabic lookup 0 subtable" uniFB90 dx=0 dy=0 dh=0 dv=0 dx=0 dy=0 dh=250 dv=0
PairPos2: "'kern' Horizontal Kerning in Arabic lookup 0 subtable" uniFEDB dx=0 dy=0 dh=0 dv=0 dx=0 dy=0 dh=250 dv=0
PairPos2: "'kern' Horizontal Kerning in Arabic lookup 0 subtable" uni0671 dx=0 dy=0 dh=0 dv=0 dx=0 dy=0 dh=200 dv=0
PairPos2: "'kern' Horizontal Kerning in Arabic lookup 0 subtable" afii57410 dx=0 dy=0 dh=0 dv=0 dx=0 dy=0 dh=200 dv=0
PairPos2: "'kern' Horizontal Kerning in Arabic lookup 0 subtable" afii57415 dx=0 dy=0 dh=0 dv=0 dx=0 dy=0 dh=50 dv=0
EndChar

StartChar: L
Encoding: 76 76 47
AltUni2: 00216c.ffffffff.0
Width: 1366
GlyphClass: 2
Flags: W
LayerCount: 2
Fore
SplineSet
40 55 m 1,0,1
 77 57 77 57 105 62.5 c 128,-1,2
 133 68 133 68 148 76 c 0,3,4
 177 93 177 93 188 124.5 c 128,-1,5
 199 156 199 156 191 197 c 2,6,-1
 -20 1186 l 2,7,8
 -38 1271 -38 1271 -110 1306 c 0,9,10
 -148 1325 -148 1325 -232 1329 c 1,11,-1
 -243 1384 l 1,12,-1
 444 1384 l 1,13,-1
 456 1330 l 1,14,15
 398 1328 398 1328 359.5 1318.5 c 128,-1,16
 321 1309 321 1309 302 1295 c 1,17,18
 286 1275 286 1275 280.5 1236 c 128,-1,19
 275 1197 275 1197 287 1143 c 2,20,-1
 493 178 l 2,21,22
 506 116 506 116 554 89 c 0,23,24
 593 67 593 67 704 67 c 0,25,26
 797 67 797 67 873 88 c 128,-1,27
 949 109 949 109 1003 148 c 0,28,29
 1059 193 1059 193 1098.5 273 c 128,-1,30
 1138 353 1138 353 1159 465 c 1,31,-1
 1192 465 l 1,32,-1
 1207 0 l 1,33,-1
 51 0 l 1,34,-1
 40 55 l 1,0,1
EndSplineSet
Substitution2: "<17016,16016> Urdu Swash lookup 75 subtable" L
PairPos2: "'kern' Horizontal Kerning in Arabic lookup 0 subtable" afii57509 dx=0 dy=0 dh=0 dv=0 dx=0 dy=0 dh=250 dv=0
PairPos2: "'kern' Horizontal Kerning in Arabic lookup 0 subtable" uni06AB dx=0 dy=0 dh=0 dv=0 dx=0 dy=0 dh=250 dv=0
PairPos2: "'kern' Horizontal Kerning in Arabic lookup 0 subtable" uni06A9 dx=0 dy=0 dh=0 dv=0 dx=0 dy=0 dh=250 dv=0
PairPos2: "'kern' Horizontal Kerning in Arabic lookup 0 subtable" uniFB94 dx=0 dy=0 dh=0 dv=0 dx=0 dy=0 dh=250 dv=0
PairPos2: "'kern' Horizontal Kerning in Arabic lookup 0 subtable" uniFBD5 dx=0 dy=0 dh=0 dv=0 dx=0 dy=0 dh=250 dv=0
PairPos2: "'kern' Horizontal Kerning in Arabic lookup 0 subtable" uni06AB.ini dx=0 dy=0 dh=0 dv=0 dx=0 dy=0 dh=250 dv=0
PairPos2: "'kern' Horizontal Kerning in Arabic lookup 0 subtable" uniFB90 dx=0 dy=0 dh=0 dv=0 dx=0 dy=0 dh=250 dv=0
PairPos2: "'kern' Horizontal Kerning in Arabic lookup 0 subtable" uniFEDB dx=0 dy=0 dh=0 dv=0 dx=0 dy=0 dh=250 dv=0
PairPos2: "'kern' Horizontal Kerning in Arabic lookup 0 subtable" uni0671 dx=0 dy=0 dh=0 dv=0 dx=0 dy=0 dh=200 dv=0
PairPos2: "'kern' Horizontal Kerning in Arabic lookup 0 subtable" afii57410 dx=0 dy=0 dh=0 dv=0 dx=0 dy=0 dh=200 dv=0
PairPos2: "'kern' Horizontal Kerning in Arabic lookup 0 subtable" afii57415 dx=0 dy=0 dh=0 dv=0 dx=0 dy=0 dh=50 dv=0
EndChar

StartChar: M
Encoding: 77 77 48
AltUni2: 00216f.ffffffff.0
Width: 1933
GlyphClass: 2
Flags: W
LayerCount: 2
Fore
SplineSet
30 54 m 1,0,1
 145 56 145 56 170 95 c 0,2,3
 200 140 200 140 184 216 c 2,4,-1
 -23 1186 l 2,5,6
 -31 1223 -31 1223 -45.5 1248.5 c 128,-1,7
 -60 1274 -60 1274 -84.5 1290.5 c 128,-1,8
 -109 1307 -109 1307 -146 1316 c 128,-1,9
 -183 1325 -183 1325 -236 1329 c 1,10,-1
 -247 1384 l 1,11,-1
 241 1384 l 1,12,-1
 846 437 l 1,13,-1
 889 437 l 1,14,15
 893 458 893 458 903 505.5 c 128,-1,16
 913 553 913 553 926.5 617 c 128,-1,17
 940 681 940 681 956 756.5 c 128,-1,18
 972 832 972 832 988 910.5 c 128,-1,19
 1004 989 1004 989 1020 1064.5 c 128,-1,20
 1036 1140 1036 1140 1049.5 1204 c 128,-1,21
 1063 1268 1063 1268 1073 1315.5 c 128,-1,22
 1083 1363 1083 1363 1087 1384 c 1,23,-1
 1575 1384 l 1,24,-1
 1586 1329 l 1,25,26
 1536 1325 1536 1325 1503.5 1316 c 128,-1,27
 1471 1307 1471 1307 1454.5 1286.5 c 128,-1,28
 1438 1266 1438 1266 1436.5 1231.5 c 128,-1,29
 1435 1197 1435 1197 1447 1143 c 2,30,-1
 1639 240 l 2,31,32
 1650 189 1650 189 1665.5 154.5 c 128,-1,33
 1681 120 1681 120 1706 99 c 128,-1,34
 1731 78 1731 78 1767.5 68 c 128,-1,35
 1804 58 1804 58 1858 55 c 1,36,-1
 1869 0 l 1,37,-1
 1218 0 l 1,38,-1
 1206 54 l 1,39,40
 1253 56 1253 56 1285 64 c 128,-1,41
 1317 72 1317 72 1336.5 89.5 c 128,-1,42
 1356 107 1356 107 1361.5 135 c 128,-1,43
 1367 163 1367 163 1358 204 c 2,44,-1
 1145 1202 l 1,45,-1
 1103 1202 l 1,46,47
 1099 1175 1099 1175 1086.5 1115 c 128,-1,48
 1074 1055 1074 1055 1057.5 974 c 128,-1,49
 1041 893 1041 893 1021.5 796.5 c 128,-1,50
 1002 700 1002 700 981.5 601 c 128,-1,51
 961 502 961 502 941.5 405.5 c 128,-1,52
 922 309 922 309 905 228 c 128,-1,53
 888 147 888 147 876 87 c 128,-1,54
 864 27 864 27 858 0 c 1,55,-1
 829 0 l 1,56,-1
 73 1178 l 1,57,-1
 37 1178 l 1,58,-1
 233 254 l 2,59,60
 254 158 254 158 306 106 c 0,61,62
 354 58 354 58 480 54 c 1,63,-1
 492 0 l 1,64,-1
 42 0 l 1,65,-1
 30 54 l 1,0,1
EndSplineSet
Substitution2: "<17016,16016> Urdu Swash lookup 75 subtable" M
PairPos2: "'kern' Horizontal Kerning in Arabic lookup 0 subtable" afii57509 dx=0 dy=0 dh=0 dv=0 dx=0 dy=0 dh=250 dv=0
PairPos2: "'kern' Horizontal Kerning in Arabic lookup 0 subtable" uni06AB dx=0 dy=0 dh=0 dv=0 dx=0 dy=0 dh=250 dv=0
PairPos2: "'kern' Horizontal Kerning in Arabic lookup 0 subtable" uni06A9 dx=0 dy=0 dh=0 dv=0 dx=0 dy=0 dh=250 dv=0
PairPos2: "'kern' Horizontal Kerning in Arabic lookup 0 subtable" uniFB94 dx=0 dy=0 dh=0 dv=0 dx=0 dy=0 dh=250 dv=0
PairPos2: "'kern' Horizontal Kerning in Arabic lookup 0 subtable" uniFBD5 dx=0 dy=0 dh=0 dv=0 dx=0 dy=0 dh=250 dv=0
PairPos2: "'kern' Horizontal Kerning in Arabic lookup 0 subtable" uni06AB.ini dx=0 dy=0 dh=0 dv=0 dx=0 dy=0 dh=250 dv=0
PairPos2: "'kern' Horizontal Kerning in Arabic lookup 0 subtable" uniFB90 dx=0 dy=0 dh=0 dv=0 dx=0 dy=0 dh=250 dv=0
PairPos2: "'kern' Horizontal Kerning in Arabic lookup 0 subtable" uniFEDB dx=0 dy=0 dh=0 dv=0 dx=0 dy=0 dh=250 dv=0
PairPos2: "'kern' Horizontal Kerning in Arabic lookup 0 subtable" uni0671 dx=0 dy=0 dh=0 dv=0 dx=0 dy=0 dh=200 dv=0
PairPos2: "'kern' Horizontal Kerning in Arabic lookup 0 subtable" afii57410 dx=0 dy=0 dh=0 dv=0 dx=0 dy=0 dh=200 dv=0
PairPos2: "'kern' Horizontal Kerning in Arabic lookup 0 subtable" afii57415 dx=0 dy=0 dh=0 dv=0 dx=0 dy=0 dh=50 dv=0
EndChar

StartChar: N
Encoding: 78 78 49
Width: 1479
GlyphClass: 2
Flags: W
LayerCount: 2
Fore
SplineSet
35 54 m 1,0,1
 89 56 89 56 123.5 67.5 c 128,-1,2
 158 79 158 79 171 97 c 0,3,4
 183 119 183 119 186 149.5 c 128,-1,5
 189 180 189 180 182 216 c 2,6,-1
 -25 1183 l 1,7,-1
 -29 1183 l 1,8,9
 -82 1232 -82 1232 -113 1260 c 128,-1,10
 -144 1288 -144 1288 -163.5 1302 c 128,-1,11
 -183 1316 -183 1316 -196.5 1320.5 c 128,-1,12
 -210 1325 -210 1325 -231 1328 c 1,13,-1
 -243 1384 l 1,14,-1
 165 1384 l 1,15,-1
 1051 522 l 1,16,-1
 1086 522 l 1,17,-1
 957 1129 l 2,18,19
 947 1176 947 1176 932.5 1211 c 128,-1,20
 918 1246 918 1246 891 1271 c 128,-1,21
 864 1296 864 1296 824.5 1310 c 128,-1,22
 785 1324 785 1324 725 1329 c 1,23,-1
 714 1384 l 1,24,-1
 1126 1384 l 1,25,-1
 1138 1328 l 1,26,27
 1093 1320 1093 1320 1064 1310 c 128,-1,28
 1035 1300 1035 1300 1020 1283 c 128,-1,29
 1005 1266 1005 1266 1003.5 1238.5 c 128,-1,30
 1002 1211 1002 1211 1011 1167 c 2,31,-1
 1268 -38 l 1,32,-1
 1236 -38 l 1,33,-1
 103 1056 l 1,34,-1
 64 1056 l 1,35,-1
 235 254 l 2,36,37
 246 202 246 202 264 164.5 c 128,-1,38
 282 127 282 127 310.5 103 c 128,-1,39
 339 79 339 79 378.5 67.5 c 128,-1,40
 418 56 418 56 470 54 c 1,41,-1
 482 0 l 1,42,-1
 47 0 l 1,43,-1
 35 54 l 1,0,1
EndSplineSet
Substitution2: "<17016,16016> Urdu Swash lookup 75 subtable" N
PairPos2: "'kern' Horizontal Kerning in Arabic lookup 0 subtable" afii57509 dx=0 dy=0 dh=0 dv=0 dx=0 dy=0 dh=250 dv=0
PairPos2: "'kern' Horizontal Kerning in Arabic lookup 0 subtable" uni06AB dx=0 dy=0 dh=0 dv=0 dx=0 dy=0 dh=250 dv=0
PairPos2: "'kern' Horizontal Kerning in Arabic lookup 0 subtable" uni06A9 dx=0 dy=0 dh=0 dv=0 dx=0 dy=0 dh=250 dv=0
PairPos2: "'kern' Horizontal Kerning in Arabic lookup 0 subtable" uniFB94 dx=0 dy=0 dh=0 dv=0 dx=0 dy=0 dh=250 dv=0
PairPos2: "'kern' Horizontal Kerning in Arabic lookup 0 subtable" uniFBD5 dx=0 dy=0 dh=0 dv=0 dx=0 dy=0 dh=250 dv=0
PairPos2: "'kern' Horizontal Kerning in Arabic lookup 0 subtable" uni06AB.ini dx=0 dy=0 dh=0 dv=0 dx=0 dy=0 dh=250 dv=0
PairPos2: "'kern' Horizontal Kerning in Arabic lookup 0 subtable" uniFB90 dx=0 dy=0 dh=0 dv=0 dx=0 dy=0 dh=250 dv=0
PairPos2: "'kern' Horizontal Kerning in Arabic lookup 0 subtable" uniFEDB dx=0 dy=0 dh=0 dv=0 dx=0 dy=0 dh=250 dv=0
PairPos2: "'kern' Horizontal Kerning in Arabic lookup 0 subtable" uni0671 dx=0 dy=0 dh=0 dv=0 dx=0 dy=0 dh=200 dv=0
PairPos2: "'kern' Horizontal Kerning in Arabic lookup 0 subtable" afii57410 dx=0 dy=0 dh=0 dv=0 dx=0 dy=0 dh=200 dv=0
PairPos2: "'kern' Horizontal Kerning in Arabic lookup 0 subtable" afii57415 dx=0 dy=0 dh=0 dv=0 dx=0 dy=0 dh=50 dv=0
EndChar

StartChar: O
Encoding: 79 79 50
Width: 1593
GlyphClass: 2
Flags: W
LayerCount: 2
Fore
SplineSet
1057 302 m 0,0,1
 1066 377 1066 377 1056.5 473 c 128,-1,2
 1047 569 1047 569 1022 687 c 0,3,4
 989 845 989 845 936.5 969 c 128,-1,5
 884 1093 884 1093 819 1178 c 1,6,7
 755 1253 755 1253 673.5 1298.5 c 128,-1,8
 592 1344 592 1344 507 1344 c 0,9,10
 387 1344 387 1344 320 1272 c 128,-1,11
 253 1200 253 1200 235 1069 c 1,12,13
 230 994 230 994 238 896.5 c 128,-1,14
 246 799 246 799 270 687 c 0,15,16
 341 358 341 358 467.5 194 c 128,-1,17
 594 30 594 30 787 30 c 0,18,19
 1031 30 1031 30 1057 302 c 0,0,1
1040 1215 m 0,20,21
 1288 1015 1288 1015 1358 687 c 256,22,23
 1428 359 1428 359 1264 159 c 0,24,25
 1101 -41 1101 -41 802 -41 c 0,26,27
 484 -41 484 -41 231 178 c 0,28,29
 0 379 0 379 -64 676 c 0,30,31
 -133 1004 -133 1004 23 1205 c 0,32,33
 103 1310 103 1310 218.5 1363 c 128,-1,34
 334 1416 334 1416 492 1415 c 0,35,36
 791 1415 791 1415 1040 1215 c 0,20,21
EndSplineSet
Substitution2: "<17016,16016> Urdu Swash lookup 75 subtable" O
PairPos2: "'kern' Horizontal Kerning in Arabic lookup 0 subtable" afii57509 dx=0 dy=0 dh=0 dv=0 dx=0 dy=0 dh=250 dv=0
PairPos2: "'kern' Horizontal Kerning in Arabic lookup 0 subtable" uni06AB dx=0 dy=0 dh=0 dv=0 dx=0 dy=0 dh=250 dv=0
PairPos2: "'kern' Horizontal Kerning in Arabic lookup 0 subtable" uni06A9 dx=0 dy=0 dh=0 dv=0 dx=0 dy=0 dh=250 dv=0
PairPos2: "'kern' Horizontal Kerning in Arabic lookup 0 subtable" uniFB94 dx=0 dy=0 dh=0 dv=0 dx=0 dy=0 dh=250 dv=0
PairPos2: "'kern' Horizontal Kerning in Arabic lookup 0 subtable" uniFBD5 dx=0 dy=0 dh=0 dv=0 dx=0 dy=0 dh=250 dv=0
PairPos2: "'kern' Horizontal Kerning in Arabic lookup 0 subtable" uni06AB.ini dx=0 dy=0 dh=0 dv=0 dx=0 dy=0 dh=250 dv=0
PairPos2: "'kern' Horizontal Kerning in Arabic lookup 0 subtable" uniFB90 dx=0 dy=0 dh=0 dv=0 dx=0 dy=0 dh=250 dv=0
PairPos2: "'kern' Horizontal Kerning in Arabic lookup 0 subtable" uniFEDB dx=0 dy=0 dh=0 dv=0 dx=0 dy=0 dh=250 dv=0
PairPos2: "'kern' Horizontal Kerning in Arabic lookup 0 subtable" uni0671 dx=0 dy=0 dh=0 dv=0 dx=0 dy=0 dh=200 dv=0
PairPos2: "'kern' Horizontal Kerning in Arabic lookup 0 subtable" afii57410 dx=0 dy=0 dh=0 dv=0 dx=0 dy=0 dh=200 dv=0
PairPos2: "'kern' Horizontal Kerning in Arabic lookup 0 subtable" afii57415 dx=0 dy=0 dh=0 dv=0 dx=0 dy=0 dh=50 dv=0
EndChar

StartChar: P
Encoding: 80 80 51
Width: 1251
GlyphClass: 2
Flags: W
LayerCount: 2
Fore
SplineSet
629 735 m 0,0,1
 719 800 719 800 677 1001 c 0,2,3
 663 1067 663 1067 637.5 1124 c 128,-1,4
 612 1181 612 1181 580 1226 c 0,5,6
 549 1268 549 1268 495.5 1289.5 c 128,-1,7
 442 1311 442 1311 370 1311 c 0,8,9
 301 1311 301 1311 274.5 1297 c 128,-1,10
 248 1283 248 1283 257 1241 c 2,11,-1
 373 693 l 1,12,-1
 387 693 l 2,13,14
 483 693 483 693 543 705 c 128,-1,15
 603 717 603 717 629 735 c 0,0,1
36 55 m 1,16,17
 87 59 87 59 117.5 70 c 128,-1,18
 148 81 148 81 162.5 102 c 128,-1,19
 177 123 177 123 177 157 c 128,-1,20
 177 191 177 191 166 240 c 2,21,-1
 -26 1143 l 2,22,23
 -37 1196 -37 1196 -52 1229.5 c 128,-1,24
 -67 1263 -67 1263 -90.5 1283.5 c 128,-1,25
 -114 1304 -114 1304 -148.5 1313.5 c 128,-1,26
 -183 1323 -183 1323 -236 1329 c 1,27,-1
 -247 1384 l 1,28,-1
 397 1384 l 2,29,30
 653 1384 653 1384 805 1299 c 0,31,32
 953 1217 953 1217 997 1007 c 0,33,34
 1013 934 1013 934 1000 868.5 c 128,-1,35
 987 803 987 803 946.5 752.5 c 128,-1,36
 906 702 906 702 838 669 c 128,-1,37
 770 636 770 636 675 628 c 0,38,39
 630 624 630 624 562 622 c 128,-1,40
 494 620 494 620 403 620 c 2,41,-1
 389 620 l 1,42,-1
 469 240 l 2,43,44
 480 189 480 189 496 154.5 c 128,-1,45
 512 120 512 120 537 99 c 128,-1,46
 562 78 562 78 598.5 68 c 128,-1,47
 635 58 635 58 689 55 c 1,48,-1
 700 0 l 1,49,-1
 47 0 l 1,50,-1
 36 55 l 1,16,17
EndSplineSet
Substitution2: "<17016,16016> Urdu Swash lookup 75 subtable" P
PairPos2: "'kern' Horizontal Kerning in Arabic lookup 0 subtable" afii57509 dx=0 dy=0 dh=0 dv=0 dx=0 dy=0 dh=250 dv=0
PairPos2: "'kern' Horizontal Kerning in Arabic lookup 0 subtable" uni06AB dx=0 dy=0 dh=0 dv=0 dx=0 dy=0 dh=250 dv=0
PairPos2: "'kern' Horizontal Kerning in Arabic lookup 0 subtable" uni06A9 dx=0 dy=0 dh=0 dv=0 dx=0 dy=0 dh=250 dv=0
PairPos2: "'kern' Horizontal Kerning in Arabic lookup 0 subtable" uniFB94 dx=0 dy=0 dh=0 dv=0 dx=0 dy=0 dh=250 dv=0
PairPos2: "'kern' Horizontal Kerning in Arabic lookup 0 subtable" uniFBD5 dx=0 dy=0 dh=0 dv=0 dx=0 dy=0 dh=250 dv=0
PairPos2: "'kern' Horizontal Kerning in Arabic lookup 0 subtable" uni06AB.ini dx=0 dy=0 dh=0 dv=0 dx=0 dy=0 dh=250 dv=0
PairPos2: "'kern' Horizontal Kerning in Arabic lookup 0 subtable" uniFB90 dx=0 dy=0 dh=0 dv=0 dx=0 dy=0 dh=250 dv=0
PairPos2: "'kern' Horizontal Kerning in Arabic lookup 0 subtable" uniFEDB dx=0 dy=0 dh=0 dv=0 dx=0 dy=0 dh=250 dv=0
PairPos2: "'kern' Horizontal Kerning in Arabic lookup 0 subtable" uni0671 dx=0 dy=0 dh=0 dv=0 dx=0 dy=0 dh=200 dv=0
PairPos2: "'kern' Horizontal Kerning in Arabic lookup 0 subtable" afii57410 dx=0 dy=0 dh=0 dv=0 dx=0 dy=0 dh=200 dv=0
PairPos2: "'kern' Horizontal Kerning in Arabic lookup 0 subtable" afii57415 dx=0 dy=0 dh=0 dv=0 dx=0 dy=0 dh=50 dv=0
EndChar

StartChar: Q
Encoding: 81 81 52
Width: 1593
GlyphClass: 2
Flags: W
LayerCount: 2
Fore
SplineSet
1057 302 m 0,0,1
 1065 377 1065 377 1056 473 c 128,-1,2
 1047 569 1047 569 1022 687 c 0,3,4
 989 845 989 845 936.5 969 c 128,-1,5
 884 1093 884 1093 819 1178 c 1,6,7
 755 1253 755 1253 674 1298.5 c 128,-1,8
 593 1344 593 1344 508 1344 c 0,9,10
 388 1344 388 1344 320 1272 c 128,-1,11
 252 1200 252 1200 235 1069 c 1,12,13
 230 994 230 994 238.5 896.5 c 128,-1,14
 247 799 247 799 270 687 c 0,15,16
 340 358 340 358 467 194 c 128,-1,17
 594 30 594 30 787 30 c 0,18,19
 1031 30 1031 30 1057 302 c 0,0,1
1040 1215 m 0,20,21
 1289 1015 1289 1015 1358 687 c 0,22,23
 1397 507 1397 507 1364 366.5 c 128,-1,24
 1331 226 1331 226 1232 124 c 0,25,26
 1193 84 1193 84 1132.5 48 c 128,-1,27
 1072 12 1072 12 998 -15 c 1,28,-1
 990 -15 l 1,29,30
 1021 -65 1021 -65 1067 -110 c 128,-1,31
 1113 -155 1113 -155 1168.5 -189.5 c 128,-1,32
 1224 -224 1224 -224 1285.5 -244 c 128,-1,33
 1347 -264 1347 -264 1410 -264 c 0,34,35
 1454 -264 1454 -264 1479.5 -259 c 128,-1,36
 1505 -254 1505 -254 1531 -245 c 1,37,-1
 1553 -295 l 1,38,39
 1518 -312 1518 -312 1473.5 -324.5 c 128,-1,40
 1429 -337 1429 -337 1383.5 -345.5 c 128,-1,41
 1338 -354 1338 -354 1293 -358.5 c 128,-1,42
 1248 -363 1248 -363 1210 -363 c 0,43,44
 1045 -363 1045 -363 861 -278 c 0,45,46
 686 -197 686 -197 584 -28 c 0,47,48
 581 -21 581 -21 578.5 -16.5 c 128,-1,49
 576 -12 576 -12 571 -8.5 c 128,-1,50
 566 -5 566 -5 556.5 -1.5 c 128,-1,51
 547 2 547 2 528 8 c 0,52,53
 461 29 461 29 392.5 67.5 c 128,-1,54
 324 106 324 106 254 160 c 0,55,56
 3 362 3 362 -64 679 c 0,57,58
 -99 843 -99 843 -73 978 c 128,-1,59
 -47 1113 -47 1113 27.5 1210.5 c 128,-1,60
 102 1308 102 1308 221.5 1361.5 c 128,-1,61
 341 1415 341 1415 493 1415 c 0,62,63
 792 1415 792 1415 1040 1215 c 0,20,21
EndSplineSet
Substitution2: "<17016,16016> Urdu Swash lookup 75 subtable" Q
PairPos2: "'kern' Horizontal Kerning in Arabic lookup 0 subtable" afii57509 dx=0 dy=0 dh=0 dv=0 dx=0 dy=0 dh=250 dv=0
PairPos2: "'kern' Horizontal Kerning in Arabic lookup 0 subtable" uni06AB dx=0 dy=0 dh=0 dv=0 dx=0 dy=0 dh=250 dv=0
PairPos2: "'kern' Horizontal Kerning in Arabic lookup 0 subtable" uni06A9 dx=0 dy=0 dh=0 dv=0 dx=0 dy=0 dh=250 dv=0
PairPos2: "'kern' Horizontal Kerning in Arabic lookup 0 subtable" uniFB94 dx=0 dy=0 dh=0 dv=0 dx=0 dy=0 dh=250 dv=0
PairPos2: "'kern' Horizontal Kerning in Arabic lookup 0 subtable" uniFBD5 dx=0 dy=0 dh=0 dv=0 dx=0 dy=0 dh=250 dv=0
PairPos2: "'kern' Horizontal Kerning in Arabic lookup 0 subtable" uni06AB.ini dx=0 dy=0 dh=0 dv=0 dx=0 dy=0 dh=250 dv=0
PairPos2: "'kern' Horizontal Kerning in Arabic lookup 0 subtable" uniFB90 dx=0 dy=0 dh=0 dv=0 dx=0 dy=0 dh=250 dv=0
PairPos2: "'kern' Horizontal Kerning in Arabic lookup 0 subtable" uniFEDB dx=0 dy=0 dh=0 dv=0 dx=0 dy=0 dh=250 dv=0
PairPos2: "'kern' Horizontal Kerning in Arabic lookup 0 subtable" uni0671 dx=0 dy=0 dh=0 dv=0 dx=0 dy=0 dh=200 dv=0
PairPos2: "'kern' Horizontal Kerning in Arabic lookup 0 subtable" afii57410 dx=0 dy=0 dh=0 dv=0 dx=0 dy=0 dh=200 dv=0
PairPos2: "'kern' Horizontal Kerning in Arabic lookup 0 subtable" afii57415 dx=0 dy=0 dh=0 dv=0 dx=0 dy=0 dh=50 dv=0
EndChar

StartChar: R
Encoding: 82 82 53
Width: 1479
GlyphClass: 2
Flags: W
LayerCount: 2
Fore
SplineSet
718 1010 m 0,0,1
 685 1162 685 1162 608.5 1237.5 c 128,-1,2
 532 1313 532 1313 398 1313 c 0,3,4
 351 1313 351 1313 324 1308 c 128,-1,5
 297 1303 297 1303 287 1292 c 0,6,7
 261 1268 261 1268 270 1226 c 2,8,-1
 380 707 l 1,9,-1
 394 707 l 2,10,11
 495 707 495 707 566.5 723.5 c 128,-1,12
 638 740 638 740 676 763 c 1,13,14
 715 794 715 794 726 856.5 c 128,-1,15
 737 919 737 919 718 1010 c 0,0,1
36 55 m 1,16,17
 88 58 88 58 120.5 68 c 128,-1,18
 153 78 153 78 169 99 c 128,-1,19
 185 120 185 120 186 154.5 c 128,-1,20
 187 189 187 189 176 240 c 2,21,-1
 -16 1143 l 2,22,23
 -28 1197 -28 1197 -50.5 1237 c 128,-1,24
 -73 1277 -73 1277 -99 1297 c 0,25,26
 -116 1309 -116 1309 -150.5 1316.5 c 128,-1,27
 -185 1324 -185 1324 -236 1329 c 1,28,-1
 -247 1384 l 1,29,-1
 397 1384 l 2,30,31
 682 1384 682 1384 840 1296 c 128,-1,32
 998 1208 998 1208 1036 1028 c 0,33,34
 1072 856 1072 856 975 764 c 0,35,36
 896 690 896 690 802 672 c 1,37,-1
 795 672 l 1,38,39
 798 668 798 668 822 642 c 128,-1,40
 846 616 846 616 883.5 575.5 c 128,-1,41
 921 535 921 535 967 484.5 c 128,-1,42
 1013 434 1013 434 1061 382 c 128,-1,43
 1109 330 1109 330 1155.5 279.5 c 128,-1,44
 1202 229 1202 229 1238.5 188.5 c 128,-1,45
 1275 148 1275 148 1299.5 122 c 128,-1,46
 1324 96 1324 96 1328 92 c 0,47,48
 1349 70 1349 70 1370.5 62.5 c 128,-1,49
 1392 55 1392 55 1416 52 c 1,50,-1
 1427 0 l 1,51,-1
 1035 0 l 1,52,-1
 475 639 l 1,53,-1
 395 639 l 1,54,-1
 479 240 l 2,55,56
 490 192 490 192 504 158 c 128,-1,57
 518 124 518 124 542 102 c 128,-1,58
 566 80 566 80 603.5 69 c 128,-1,59
 641 58 641 58 699 55 c 1,60,-1
 710 0 l 1,61,-1
 47 0 l 1,62,-1
 36 55 l 1,16,17
EndSplineSet
Substitution2: "<17016,16016> Urdu Swash lookup 75 subtable" R
PairPos2: "'kern' Horizontal Kerning in Arabic lookup 0 subtable" afii57509 dx=0 dy=0 dh=0 dv=0 dx=0 dy=0 dh=250 dv=0
PairPos2: "'kern' Horizontal Kerning in Arabic lookup 0 subtable" uni06AB dx=0 dy=0 dh=0 dv=0 dx=0 dy=0 dh=250 dv=0
PairPos2: "'kern' Horizontal Kerning in Arabic lookup 0 subtable" uni06A9 dx=0 dy=0 dh=0 dv=0 dx=0 dy=0 dh=250 dv=0
PairPos2: "'kern' Horizontal Kerning in Arabic lookup 0 subtable" uniFB94 dx=0 dy=0 dh=0 dv=0 dx=0 dy=0 dh=250 dv=0
PairPos2: "'kern' Horizontal Kerning in Arabic lookup 0 subtable" uniFBD5 dx=0 dy=0 dh=0 dv=0 dx=0 dy=0 dh=250 dv=0
PairPos2: "'kern' Horizontal Kerning in Arabic lookup 0 subtable" uni06AB.ini dx=0 dy=0 dh=0 dv=0 dx=0 dy=0 dh=250 dv=0
PairPos2: "'kern' Horizontal Kerning in Arabic lookup 0 subtable" uniFB90 dx=0 dy=0 dh=0 dv=0 dx=0 dy=0 dh=250 dv=0
PairPos2: "'kern' Horizontal Kerning in Arabic lookup 0 subtable" uniFEDB dx=0 dy=0 dh=0 dv=0 dx=0 dy=0 dh=250 dv=0
PairPos2: "'kern' Horizontal Kerning in Arabic lookup 0 subtable" uni0671 dx=0 dy=0 dh=0 dv=0 dx=0 dy=0 dh=200 dv=0
PairPos2: "'kern' Horizontal Kerning in Arabic lookup 0 subtable" afii57410 dx=0 dy=0 dh=0 dv=0 dx=0 dy=0 dh=200 dv=0
PairPos2: "'kern' Horizontal Kerning in Arabic lookup 0 subtable" afii57415 dx=0 dy=0 dh=0 dv=0 dx=0 dy=0 dh=50 dv=0
EndChar

StartChar: S
Encoding: 83 83 54
Width: 1139
GlyphClass: 2
Flags: W
LayerCount: 2
Fore
SplineSet
-17 479 m 1,0,-1
 14 479 l 1,1,2
 60 374 60 374 122.5 288 c 128,-1,3
 185 202 185 202 250 147 c 1,4,5
 316 99 316 99 390 71 c 128,-1,6
 464 43 464 43 537 43 c 256,7,8
 610 43 610 43 659.5 61.5 c 128,-1,9
 709 80 709 80 732 114 c 0,10,11
 753 150 753 150 761.5 189 c 128,-1,12
 770 228 770 228 762 264 c 0,13,14
 744 350 744 350 664 412 c 0,15,16
 642 429 642 429 593.5 454.5 c 128,-1,17
 545 480 545 480 476 511 c 0,18,19
 468 514 468 514 446.5 523.5 c 128,-1,20
 425 533 425 533 401.5 544 c 128,-1,21
 378 555 378 555 356.5 564.5 c 128,-1,22
 335 574 335 574 329 577 c 0,23,24
 226 625 226 625 145.5 674 c 128,-1,25
 65 723 65 723 12 771 c 0,26,27
 -36 816 -36 816 -67.5 876 c 128,-1,28
 -99 936 -99 936 -115 1009 c 0,29,30
 -148 1162 -148 1162 -71 1289 c 0,31,32
 10 1419 10 1419 220 1419 c 0,33,34
 330 1419 330 1419 440 1385 c 0,35,36
 552 1351 552 1351 573 1351 c 0,37,38
 595 1351 595 1351 607.5 1356 c 128,-1,39
 620 1361 620 1361 627 1370.5 c 128,-1,40
 634 1380 634 1380 636.5 1393 c 128,-1,41
 639 1406 639 1406 639 1422 c 1,42,-1
 672 1422 l 1,43,-1
 767 975 l 1,44,-1
 738 975 l 1,45,46
 723 1010 723 1010 700.5 1045 c 128,-1,47
 678 1080 678 1080 651 1114.5 c 128,-1,48
 624 1149 624 1149 593.5 1181 c 128,-1,49
 563 1213 563 1213 533 1241 c 0,50,51
 471 1294 471 1294 398 1323.5 c 128,-1,52
 325 1353 325 1353 249 1353 c 0,53,54
 191 1353 191 1353 150 1336.5 c 128,-1,55
 109 1320 109 1320 84.5 1292.5 c 128,-1,56
 60 1265 60 1265 52 1230.5 c 128,-1,57
 44 1196 44 1196 52 1160 c 0,58,59
 71 1070 71 1070 143 1017 c 0,60,61
 163 1002 163 1002 207.5 978.5 c 128,-1,62
 252 955 252 955 312.5 926 c 128,-1,63
 373 897 373 897 445.5 864 c 128,-1,64
 518 831 518 831 595 797 c 0,65,66
 649 774 649 774 695 745 c 128,-1,67
 741 716 741 716 780 684 c 0,68,69
 913 575 913 575 950 401 c 0,70,71
 967 323 967 323 951.5 248.5 c 128,-1,72
 936 174 936 174 893 108 c 0,73,74
 847 41 847 41 758.5 6 c 128,-1,75
 670 -29 670 -29 540 -29 c 0,76,77
 477 -29 477 -29 404.5 -15 c 128,-1,78
 332 -1 332 -1 264 26 c 0,79,80
 246 33 246 33 223.5 37.5 c 128,-1,81
 201 42 201 42 186 42 c 0,82,83
 165 42 165 42 153 37 c 128,-1,84
 141 32 141 32 135 23 c 128,-1,85
 129 14 129 14 127 1 c 128,-1,86
 125 -12 125 -12 123 -29 c 1,87,-1
 91 -29 l 1,88,-1
 -17 479 l 1,0,-1
EndSplineSet
Substitution2: "<17016,16016> Urdu Swash lookup 75 subtable" S
PairPos2: "'kern' Horizontal Kerning in Arabic lookup 0 subtable" afii57509 dx=0 dy=0 dh=0 dv=0 dx=0 dy=0 dh=250 dv=0
PairPos2: "'kern' Horizontal Kerning in Arabic lookup 0 subtable" uni06AB dx=0 dy=0 dh=0 dv=0 dx=0 dy=0 dh=250 dv=0
PairPos2: "'kern' Horizontal Kerning in Arabic lookup 0 subtable" uni06A9 dx=0 dy=0 dh=0 dv=0 dx=0 dy=0 dh=250 dv=0
PairPos2: "'kern' Horizontal Kerning in Arabic lookup 0 subtable" uniFB94 dx=0 dy=0 dh=0 dv=0 dx=0 dy=0 dh=250 dv=0
PairPos2: "'kern' Horizontal Kerning in Arabic lookup 0 subtable" uniFBD5 dx=0 dy=0 dh=0 dv=0 dx=0 dy=0 dh=250 dv=0
PairPos2: "'kern' Horizontal Kerning in Arabic lookup 0 subtable" uni06AB.ini dx=0 dy=0 dh=0 dv=0 dx=0 dy=0 dh=250 dv=0
PairPos2: "'kern' Horizontal Kerning in Arabic lookup 0 subtable" uniFB90 dx=0 dy=0 dh=0 dv=0 dx=0 dy=0 dh=250 dv=0
PairPos2: "'kern' Horizontal Kerning in Arabic lookup 0 subtable" uniFEDB dx=0 dy=0 dh=0 dv=0 dx=0 dy=0 dh=250 dv=0
PairPos2: "'kern' Horizontal Kerning in Arabic lookup 0 subtable" uni0671 dx=0 dy=0 dh=0 dv=0 dx=0 dy=0 dh=200 dv=0
PairPos2: "'kern' Horizontal Kerning in Arabic lookup 0 subtable" afii57410 dx=0 dy=0 dh=0 dv=0 dx=0 dy=0 dh=200 dv=0
PairPos2: "'kern' Horizontal Kerning in Arabic lookup 0 subtable" afii57415 dx=0 dy=0 dh=0 dv=0 dx=0 dy=0 dh=50 dv=0
EndChar

StartChar: T
Encoding: 84 84 55
Width: 1366
GlyphClass: 2
Flags: W
LayerCount: 2
Fore
SplineSet
-228 1384 m 1,0,-1
 977 1384 l 1,1,-1
 1065 970 l 1,2,-1
 1036 970 l 1,3,4
 1000 1076 1000 1076 939 1151 c 128,-1,5
 878 1226 878 1226 799 1268 c 1,6,-1
 800 1268 l 1,7,8
 759 1288 759 1288 694 1300.5 c 128,-1,9
 629 1313 629 1313 553 1315 c 2,10,-1
 539 1315 l 1,11,-1
 768 240 l 2,12,13
 779 189 779 189 794.5 154 c 128,-1,14
 810 119 810 119 837.5 96.5 c 128,-1,15
 865 74 865 74 906 64 c 128,-1,16
 947 54 947 54 1011 54 c 1,17,-1
 1023 0 l 1,18,-1
 322 0 l 1,19,-1
 310 54 l 1,20,21
 371 54 371 54 408 64 c 128,-1,22
 445 74 445 74 462 96.5 c 128,-1,23
 479 119 479 119 479.5 154.5 c 128,-1,24
 480 190 480 190 469 240 c 2,25,-1
 240 1315 l 1,26,-1
 226 1315 l 1,27,28
 69 1310 69 1310 0 1268 c 0,29,30
 -134 1185 -134 1185 -109 970 c 1,31,-1
 -140 970 l 1,32,-1
 -228 1384 l 1,0,-1
EndSplineSet
Substitution2: "<17016,16016> Urdu Swash lookup 75 subtable" T
PairPos2: "'kern' Horizontal Kerning in Arabic lookup 0 subtable" afii57509 dx=0 dy=0 dh=0 dv=0 dx=0 dy=0 dh=250 dv=0
PairPos2: "'kern' Horizontal Kerning in Arabic lookup 0 subtable" uni06AB dx=0 dy=0 dh=0 dv=0 dx=0 dy=0 dh=250 dv=0
PairPos2: "'kern' Horizontal Kerning in Arabic lookup 0 subtable" uni06A9 dx=0 dy=0 dh=0 dv=0 dx=0 dy=0 dh=250 dv=0
PairPos2: "'kern' Horizontal Kerning in Arabic lookup 0 subtable" uniFB94 dx=0 dy=0 dh=0 dv=0 dx=0 dy=0 dh=250 dv=0
PairPos2: "'kern' Horizontal Kerning in Arabic lookup 0 subtable" uniFBD5 dx=0 dy=0 dh=0 dv=0 dx=0 dy=0 dh=250 dv=0
PairPos2: "'kern' Horizontal Kerning in Arabic lookup 0 subtable" uni06AB.ini dx=0 dy=0 dh=0 dv=0 dx=0 dy=0 dh=250 dv=0
PairPos2: "'kern' Horizontal Kerning in Arabic lookup 0 subtable" uniFB90 dx=0 dy=0 dh=0 dv=0 dx=0 dy=0 dh=250 dv=0
PairPos2: "'kern' Horizontal Kerning in Arabic lookup 0 subtable" uniFEDB dx=0 dy=0 dh=0 dv=0 dx=0 dy=0 dh=250 dv=0
PairPos2: "'kern' Horizontal Kerning in Arabic lookup 0 subtable" uni0671 dx=0 dy=0 dh=0 dv=0 dx=0 dy=0 dh=200 dv=0
PairPos2: "'kern' Horizontal Kerning in Arabic lookup 0 subtable" afii57410 dx=0 dy=0 dh=0 dv=0 dx=0 dy=0 dh=200 dv=0
PairPos2: "'kern' Horizontal Kerning in Arabic lookup 0 subtable" afii57415 dx=0 dy=0 dh=0 dv=0 dx=0 dy=0 dh=50 dv=0
EndChar

StartChar: U
Encoding: 85 85 56
Width: 1479
GlyphClass: 2
Flags: W
LayerCount: 2
Fore
SplineSet
417 1384 m 1,0,-1
 428 1329 l 1,1,2
 373 1327 373 1327 336.5 1317 c 128,-1,3
 300 1307 300 1307 283 1293 c 1,4,5
 267 1273 267 1273 262.5 1234.5 c 128,-1,6
 258 1196 258 1196 268 1143 c 2,7,-1
 414 459 l 2,8,9
 435 358 435 358 469 283 c 128,-1,10
 503 208 503 208 551 159 c 128,-1,11
 599 110 599 110 662.5 86 c 128,-1,12
 726 62 726 62 807 62 c 0,13,14
 906 62 906 62 971.5 88 c 128,-1,15
 1037 114 1037 114 1072 168 c 128,-1,16
 1107 222 1107 222 1111 305.5 c 128,-1,17
 1115 389 1115 389 1090 504 c 2,18,-1
 957 1129 l 2,19,20
 947 1179 947 1179 931 1214.5 c 128,-1,21
 915 1250 915 1250 888 1274 c 128,-1,22
 861 1298 861 1298 819.5 1311.5 c 128,-1,23
 778 1325 778 1325 717 1329 c 1,24,-1
 706 1384 l 1,25,-1
 1127 1384 l 1,26,-1
 1139 1328 l 1,27,28
 1090 1318 1090 1318 1060.5 1307 c 128,-1,29
 1031 1296 1031 1296 1017.5 1277.5 c 128,-1,30
 1004 1259 1004 1259 1004 1230.5 c 128,-1,31
 1004 1202 1004 1202 1013 1158 c 2,32,-1
 1152 504 l 2,33,34
 1210 236 1210 236 1115 97.5 c 128,-1,35
 1020 -41 1020 -41 762 -41 c 0,36,37
 595 -41 595 -41 464.5 14 c 128,-1,38
 334 69 334 69 246 170 c 0,39,40
 203 224 203 224 170 297 c 128,-1,41
 137 370 137 370 118 459 c 2,42,-1
 -28 1143 l 2,43,44
 -51 1254 -51 1254 -93 1288 c 0,45,46
 -129 1317 -129 1317 -235 1329 c 1,47,-1
 -246 1384 l 1,48,-1
 417 1384 l 1,0,-1
EndSplineSet
Substitution2: "<17016,16016> Urdu Swash lookup 75 subtable" U
PairPos2: "'kern' Horizontal Kerning in Arabic lookup 0 subtable" afii57509 dx=0 dy=0 dh=0 dv=0 dx=0 dy=0 dh=250 dv=0
PairPos2: "'kern' Horizontal Kerning in Arabic lookup 0 subtable" uni06AB dx=0 dy=0 dh=0 dv=0 dx=0 dy=0 dh=250 dv=0
PairPos2: "'kern' Horizontal Kerning in Arabic lookup 0 subtable" uni06A9 dx=0 dy=0 dh=0 dv=0 dx=0 dy=0 dh=250 dv=0
PairPos2: "'kern' Horizontal Kerning in Arabic lookup 0 subtable" uniFB94 dx=0 dy=0 dh=0 dv=0 dx=0 dy=0 dh=250 dv=0
PairPos2: "'kern' Horizontal Kerning in Arabic lookup 0 subtable" uniFBD5 dx=0 dy=0 dh=0 dv=0 dx=0 dy=0 dh=250 dv=0
PairPos2: "'kern' Horizontal Kerning in Arabic lookup 0 subtable" uni06AB.ini dx=0 dy=0 dh=0 dv=0 dx=0 dy=0 dh=250 dv=0
PairPos2: "'kern' Horizontal Kerning in Arabic lookup 0 subtable" uniFB90 dx=0 dy=0 dh=0 dv=0 dx=0 dy=0 dh=250 dv=0
PairPos2: "'kern' Horizontal Kerning in Arabic lookup 0 subtable" uniFEDB dx=0 dy=0 dh=0 dv=0 dx=0 dy=0 dh=250 dv=0
PairPos2: "'kern' Horizontal Kerning in Arabic lookup 0 subtable" uni0671 dx=0 dy=0 dh=0 dv=0 dx=0 dy=0 dh=200 dv=0
PairPos2: "'kern' Horizontal Kerning in Arabic lookup 0 subtable" afii57410 dx=0 dy=0 dh=0 dv=0 dx=0 dy=0 dh=200 dv=0
PairPos2: "'kern' Horizontal Kerning in Arabic lookup 0 subtable" afii57415 dx=0 dy=0 dh=0 dv=0 dx=0 dy=0 dh=50 dv=0
EndChar

StartChar: V
Encoding: 86 86 57
Width: 1479
GlyphClass: 2
Flags: W
LayerCount: 2
Fore
SplineSet
411 1384 m 1,0,-1
 423 1329 l 1,1,2
 373 1326 373 1326 339.5 1322 c 128,-1,3
 306 1318 306 1318 293 1311 c 0,4,5
 276 1303 276 1303 268 1287 c 128,-1,6
 260 1271 260 1271 265 1250 c 0,7,8
 268 1235 268 1235 274 1221.5 c 128,-1,9
 280 1208 280 1208 290 1191 c 2,10,-1
 761 437 l 1,11,-1
 799 437 l 1,12,13
 799 442 799 442 804.5 473.5 c 128,-1,14
 810 505 810 505 819 552.5 c 128,-1,15
 828 600 828 600 838 660 c 128,-1,16
 848 720 848 720 859 782 c 128,-1,17
 870 844 870 844 880.5 904 c 128,-1,18
 891 964 891 964 899 1011.5 c 128,-1,19
 907 1059 907 1059 912.5 1090.5 c 128,-1,20
 918 1122 918 1122 919 1127 c 0,21,22
 922 1142 922 1142 923.5 1157.5 c 128,-1,23
 925 1173 925 1173 926 1188 c 128,-1,24
 927 1203 927 1203 926.5 1216 c 128,-1,25
 926 1229 926 1229 924 1237 c 0,26,27
 919 1262 919 1262 908.5 1278 c 128,-1,28
 898 1294 898 1294 877 1304 c 128,-1,29
 856 1314 856 1314 821 1319.5 c 128,-1,30
 786 1325 786 1325 731 1329 c 1,31,-1
 719 1384 l 1,32,-1
 1126 1384 l 1,33,-1
 1138 1331 l 1,34,35
 1099 1327 1099 1327 1074.5 1314.5 c 128,-1,36
 1050 1302 1050 1302 1033.5 1281 c 128,-1,37
 1017 1260 1017 1260 1007 1231 c 128,-1,38
 997 1202 997 1202 989 1165 c 0,39,40
 984 1139 984 1139 974 1079 c 128,-1,41
 964 1019 964 1019 949.5 937.5 c 128,-1,42
 935 856 935 856 918.5 759.5 c 128,-1,43
 902 663 902 663 884.5 563.5 c 128,-1,44
 867 464 867 464 850 367.5 c 128,-1,45
 833 271 833 271 818.5 189.5 c 128,-1,46
 804 108 804 108 793.5 48 c 128,-1,47
 783 -12 783 -12 779 -38 c 1,48,-1
 751 -38 l 1,49,-1
 -36 1188 l 2,50,51
 -55 1218 -55 1218 -75 1243 c 128,-1,52
 -95 1268 -95 1268 -118 1286.5 c 128,-1,53
 -141 1305 -141 1305 -169.5 1316.5 c 128,-1,54
 -198 1328 -198 1328 -235 1331 c 1,55,-1
 -247 1384 l 1,56,-1
 411 1384 l 1,0,-1
EndSplineSet
Substitution2: "<17016,16016> Urdu Swash lookup 75 subtable" V
PairPos2: "'kern' Horizontal Kerning in Arabic lookup 0 subtable" afii57509 dx=0 dy=0 dh=0 dv=0 dx=0 dy=0 dh=250 dv=0
PairPos2: "'kern' Horizontal Kerning in Arabic lookup 0 subtable" uni06AB dx=0 dy=0 dh=0 dv=0 dx=0 dy=0 dh=250 dv=0
PairPos2: "'kern' Horizontal Kerning in Arabic lookup 0 subtable" uni06A9 dx=0 dy=0 dh=0 dv=0 dx=0 dy=0 dh=250 dv=0
PairPos2: "'kern' Horizontal Kerning in Arabic lookup 0 subtable" uniFB94 dx=0 dy=0 dh=0 dv=0 dx=0 dy=0 dh=250 dv=0
PairPos2: "'kern' Horizontal Kerning in Arabic lookup 0 subtable" uniFBD5 dx=0 dy=0 dh=0 dv=0 dx=0 dy=0 dh=250 dv=0
PairPos2: "'kern' Horizontal Kerning in Arabic lookup 0 subtable" uni06AB.ini dx=0 dy=0 dh=0 dv=0 dx=0 dy=0 dh=250 dv=0
PairPos2: "'kern' Horizontal Kerning in Arabic lookup 0 subtable" uniFB90 dx=0 dy=0 dh=0 dv=0 dx=0 dy=0 dh=250 dv=0
PairPos2: "'kern' Horizontal Kerning in Arabic lookup 0 subtable" uniFEDB dx=0 dy=0 dh=0 dv=0 dx=0 dy=0 dh=250 dv=0
PairPos2: "'kern' Horizontal Kerning in Arabic lookup 0 subtable" uni0671 dx=0 dy=0 dh=0 dv=0 dx=0 dy=0 dh=200 dv=0
PairPos2: "'kern' Horizontal Kerning in Arabic lookup 0 subtable" afii57410 dx=0 dy=0 dh=0 dv=0 dx=0 dy=0 dh=200 dv=0
PairPos2: "'kern' Horizontal Kerning in Arabic lookup 0 subtable" afii57415 dx=0 dy=0 dh=0 dv=0 dx=0 dy=0 dh=50 dv=0
EndChar

StartChar: W
Encoding: 87 87 58
Width: 2048
GlyphClass: 2
Flags: W
LayerCount: 2
Fore
SplineSet
331 1384 m 1,0,-1
 343 1329 l 1,1,2
 308 1325 308 1325 285 1319.5 c 128,-1,3
 262 1314 262 1314 248.5 1305 c 128,-1,4
 235 1296 235 1296 231 1282 c 128,-1,5
 227 1268 227 1268 232 1246 c 0,6,7
 234 1236 234 1236 241.5 1217.5 c 128,-1,8
 249 1199 249 1199 259 1179 c 0,9,10
 268 1164 268 1164 287 1129 c 128,-1,11
 306 1094 306 1094 332.5 1045.5 c 128,-1,12
 359 997 359 997 390.5 939.5 c 128,-1,13
 422 882 422 882 454 822.5 c 128,-1,14
 486 763 486 763 518 705.5 c 128,-1,15
 550 648 550 648 576 599.5 c 128,-1,16
 602 551 602 551 621 515.5 c 128,-1,17
 640 480 640 480 648 465 c 1,18,-1
 691 465 l 1,19,20
 704 540 704 540 718 614.5 c 128,-1,21
 732 689 732 689 746 764 c 2,22,-1
 798 1064 l 2,23,24
 799 1065 799 1065 791 1078.5 c 128,-1,25
 783 1092 783 1092 773 1111.5 c 128,-1,26
 763 1131 763 1131 749.5 1154 c 128,-1,27
 736 1177 736 1177 724 1198.5 c 128,-1,28
 712 1220 712 1220 701.5 1236.5 c 128,-1,29
 691 1253 691 1253 685 1259 c 0,30,31
 660 1288 660 1288 617 1310 c 0,32,33
 591 1324 591 1324 522 1329 c 1,34,-1
 510 1384 l 1,35,-1
 1121 1384 l 1,36,-1
 1133 1329 l 1,37,38
 1094 1326 1094 1326 1066.5 1322 c 128,-1,39
 1039 1318 1039 1318 1027 1311 c 0,40,41
 1013 1303 1013 1303 1005.5 1288.5 c 128,-1,42
 998 1274 998 1274 1002 1258 c 0,43,44
 1003 1250 1003 1250 1021 1214 c 128,-1,45
 1039 1178 1039 1178 1066 1125 c 128,-1,46
 1093 1072 1093 1072 1127.5 1006.5 c 128,-1,47
 1162 941 1162 941 1198.5 873 c 128,-1,48
 1235 805 1235 805 1270.5 739 c 128,-1,49
 1306 673 1306 673 1335.5 619.5 c 128,-1,50
 1365 566 1365 566 1384.5 529.5 c 128,-1,51
 1404 493 1404 493 1409 484 c 1,52,-1
 1449 484 l 1,53,-1
 1490 820 l 2,54,55
 1492 830 1492 830 1494.5 856 c 128,-1,56
 1497 882 1497 882 1500.5 916 c 128,-1,57
 1504 950 1504 950 1509 987.5 c 128,-1,58
 1514 1025 1514 1025 1518 1059 c 128,-1,59
 1522 1093 1522 1093 1525.5 1119 c 128,-1,60
 1529 1145 1529 1145 1529 1155 c 0,61,62
 1532 1175 1532 1175 1531.5 1195.5 c 128,-1,63
 1531 1216 1531 1216 1527 1239 c 0,64,65
 1522 1260 1522 1260 1513 1275.5 c 128,-1,66
 1504 1291 1504 1291 1485 1302 c 128,-1,67
 1466 1313 1466 1313 1437.5 1319.5 c 128,-1,68
 1409 1326 1409 1326 1365 1329 c 1,69,-1
 1353 1384 l 1,70,-1
 1699 1384 l 1,71,-1
 1712 1328 l 1,72,73
 1693 1324 1693 1324 1676 1319 c 128,-1,74
 1659 1314 1659 1314 1649 1306 c 0,75,76
 1629 1289 1629 1289 1615.5 1260 c 128,-1,77
 1602 1231 1602 1231 1596 1200 c 0,78,79
 1594 1173 1594 1173 1586 1111.5 c 128,-1,80
 1578 1050 1578 1050 1568.5 966.5 c 128,-1,81
 1559 883 1559 883 1547 784 c 128,-1,82
 1535 685 1535 685 1523 582.5 c 128,-1,83
 1511 480 1511 480 1499 381.5 c 128,-1,84
 1487 283 1487 283 1477.5 199.5 c 128,-1,85
 1468 116 1468 116 1460.5 54.5 c 128,-1,86
 1453 -7 1453 -7 1450 -34 c 1,87,-1
 1422 -34 l 1,88,-1
 875 925 l 1,89,-1
 835 925 l 1,90,91
 793 690 793 690 749.5 445.5 c 128,-1,92
 706 201 706 201 664 -34 c 1,93,-1
 633 -34 l 1,94,-1
 -62 1200 l 2,95,96
 -80 1232 -80 1232 -96.5 1254.5 c 128,-1,97
 -113 1277 -113 1277 -132 1292.5 c 128,-1,98
 -151 1308 -151 1308 -174 1317 c 128,-1,99
 -197 1326 -197 1326 -231 1330 c 1,100,-1
 -243 1384 l 1,101,-1
 331 1384 l 1,0,-1
EndSplineSet
Substitution2: "<17016,16016> Urdu Swash lookup 75 subtable" W
PairPos2: "'kern' Horizontal Kerning in Arabic lookup 0 subtable" afii57509 dx=0 dy=0 dh=0 dv=0 dx=0 dy=0 dh=250 dv=0
PairPos2: "'kern' Horizontal Kerning in Arabic lookup 0 subtable" uni06AB dx=0 dy=0 dh=0 dv=0 dx=0 dy=0 dh=250 dv=0
PairPos2: "'kern' Horizontal Kerning in Arabic lookup 0 subtable" uni06A9 dx=0 dy=0 dh=0 dv=0 dx=0 dy=0 dh=250 dv=0
PairPos2: "'kern' Horizontal Kerning in Arabic lookup 0 subtable" uniFB94 dx=0 dy=0 dh=0 dv=0 dx=0 dy=0 dh=250 dv=0
PairPos2: "'kern' Horizontal Kerning in Arabic lookup 0 subtable" uniFBD5 dx=0 dy=0 dh=0 dv=0 dx=0 dy=0 dh=250 dv=0
PairPos2: "'kern' Horizontal Kerning in Arabic lookup 0 subtable" uni06AB.ini dx=0 dy=0 dh=0 dv=0 dx=0 dy=0 dh=250 dv=0
PairPos2: "'kern' Horizontal Kerning in Arabic lookup 0 subtable" uniFB90 dx=0 dy=0 dh=0 dv=0 dx=0 dy=0 dh=250 dv=0
PairPos2: "'kern' Horizontal Kerning in Arabic lookup 0 subtable" uniFEDB dx=0 dy=0 dh=0 dv=0 dx=0 dy=0 dh=250 dv=0
PairPos2: "'kern' Horizontal Kerning in Arabic lookup 0 subtable" uni0671 dx=0 dy=0 dh=0 dv=0 dx=0 dy=0 dh=200 dv=0
PairPos2: "'kern' Horizontal Kerning in Arabic lookup 0 subtable" afii57410 dx=0 dy=0 dh=0 dv=0 dx=0 dy=0 dh=200 dv=0
PairPos2: "'kern' Horizontal Kerning in Arabic lookup 0 subtable" afii57415 dx=0 dy=0 dh=0 dv=0 dx=0 dy=0 dh=50 dv=0
EndChar

StartChar: X
Encoding: 88 88 59
Width: 1479
GlyphClass: 2
Flags: W
LayerCount: 2
Fore
SplineSet
36 56 m 1,0,1
 80 64 80 64 110 74 c 128,-1,2
 140 84 140 84 160 97.5 c 128,-1,3
 180 111 180 111 194.5 128 c 128,-1,4
 209 145 209 145 221 167 c 0,5,6
 229 179 229 179 249.5 214 c 128,-1,7
 270 249 270 249 295.5 295 c 128,-1,8
 321 341 321 341 351.5 392.5 c 128,-1,9
 382 444 382 444 408 490 c 128,-1,10
 434 536 434 536 454.5 571 c 128,-1,11
 475 606 475 606 482 618 c 1,12,13
 478 623 478 623 454.5 650 c 128,-1,14
 431 677 431 677 394 718 c 128,-1,15
 357 759 357 759 311 810.5 c 128,-1,16
 265 862 265 862 218 915 c 128,-1,17
 171 968 171 968 125 1019.5 c 128,-1,18
 79 1071 79 1071 42 1112 c 128,-1,19
 5 1153 5 1153 -19 1180 c 128,-1,20
 -43 1207 -43 1207 -47 1211 c 0,21,22
 -96 1265 -96 1265 -138.5 1295 c 128,-1,23
 -181 1325 -181 1325 -234 1329 c 1,24,-1
 -245 1384 l 1,25,-1
 435 1384 l 1,26,-1
 446 1329 l 1,27,28
 402 1327 402 1327 371.5 1323.5 c 128,-1,29
 341 1320 341 1320 327 1314 c 0,30,31
 311 1308 311 1308 302 1294 c 128,-1,32
 293 1280 293 1280 296 1263 c 0,33,34
 300 1248 300 1248 319.5 1221.5 c 128,-1,35
 339 1195 339 1195 366 1163.5 c 128,-1,36
 393 1132 393 1132 423.5 1098.5 c 128,-1,37
 454 1065 454 1065 478 1036 c 0,38,39
 513 997 513 997 545 958.5 c 128,-1,40
 577 920 577 920 609 882 c 1,41,-1
 632 882 l 1,42,43
 639 895 639 895 651.5 920.5 c 128,-1,44
 664 946 664 946 679.5 977 c 128,-1,45
 695 1008 695 1008 711.5 1040.5 c 128,-1,46
 728 1073 728 1073 741.5 1101 c 128,-1,47
 755 1129 755 1129 764 1148 c 128,-1,48
 773 1167 773 1167 775 1170 c 0,49,50
 786 1198 786 1198 790.5 1221.5 c 128,-1,51
 795 1245 795 1245 792 1259 c 0,52,53
 785 1291 785 1291 749 1308 c 128,-1,54
 713 1325 713 1325 626 1329 c 1,55,-1
 615 1384 l 1,56,-1
 1098 1384 l 1,57,-1
 1109 1329 l 1,58,59
 1045 1322 1045 1322 997.5 1300 c 128,-1,60
 950 1278 950 1278 918 1238 c 256,61,62
 886 1198 886 1198 825.5 1088.5 c 128,-1,63
 765 979 765 979 677 805 c 1,64,65
 681 800 681 800 703.5 774 c 128,-1,66
 726 748 726 748 760 708 c 128,-1,67
 794 668 794 668 836.5 618.5 c 128,-1,68
 879 569 879 569 923.5 517 c 128,-1,69
 968 465 968 465 1010.5 415.5 c 128,-1,70
 1053 366 1053 366 1087 326 c 128,-1,71
 1121 286 1121 286 1143.5 260 c 128,-1,72
 1166 234 1166 234 1170 229 c 0,73,74
 1210 181 1210 181 1240.5 149.5 c 128,-1,75
 1271 118 1271 118 1297 98.5 c 128,-1,76
 1323 79 1323 79 1347.5 70 c 128,-1,77
 1372 61 1372 61 1404 56 c 1,78,-1
 1415 0 l 1,79,-1
 747 0 l 1,80,-1
 736 55 l 1,81,82
 777 57 777 57 803 59.5 c 128,-1,83
 829 62 829 62 842 66 c 0,84,85
 894 83 894 83 887 117 c 0,86,87
 884 130 884 130 868.5 156 c 128,-1,88
 853 182 853 182 819 222 c 2,89,-1
 543 553 l 1,90,-1
 520 553 l 1,91,92
 462 445 462 445 424 374 c 128,-1,93
 386 303 386 303 365.5 257 c 128,-1,94
 345 211 345 211 338 184.5 c 128,-1,95
 331 158 331 158 335 139 c 0,96,97
 339 121 339 121 354 105.5 c 128,-1,98
 369 90 369 90 393.5 78.5 c 128,-1,99
 418 67 418 67 449.5 60.5 c 128,-1,100
 481 54 481 54 518 54 c 1,101,-1
 530 0 l 1,102,-1
 47 0 l 1,103,-1
 36 56 l 1,0,1
EndSplineSet
Substitution2: "<17016,16016> Urdu Swash lookup 75 subtable" X
PairPos2: "'kern' Horizontal Kerning in Arabic lookup 0 subtable" afii57509 dx=0 dy=0 dh=0 dv=0 dx=0 dy=0 dh=250 dv=0
PairPos2: "'kern' Horizontal Kerning in Arabic lookup 0 subtable" uni06AB dx=0 dy=0 dh=0 dv=0 dx=0 dy=0 dh=250 dv=0
PairPos2: "'kern' Horizontal Kerning in Arabic lookup 0 subtable" uni06A9 dx=0 dy=0 dh=0 dv=0 dx=0 dy=0 dh=250 dv=0
PairPos2: "'kern' Horizontal Kerning in Arabic lookup 0 subtable" uniFB94 dx=0 dy=0 dh=0 dv=0 dx=0 dy=0 dh=250 dv=0
PairPos2: "'kern' Horizontal Kerning in Arabic lookup 0 subtable" uniFBD5 dx=0 dy=0 dh=0 dv=0 dx=0 dy=0 dh=250 dv=0
PairPos2: "'kern' Horizontal Kerning in Arabic lookup 0 subtable" uni06AB.ini dx=0 dy=0 dh=0 dv=0 dx=0 dy=0 dh=250 dv=0
PairPos2: "'kern' Horizontal Kerning in Arabic lookup 0 subtable" uniFB90 dx=0 dy=0 dh=0 dv=0 dx=0 dy=0 dh=250 dv=0
PairPos2: "'kern' Horizontal Kerning in Arabic lookup 0 subtable" uniFEDB dx=0 dy=0 dh=0 dv=0 dx=0 dy=0 dh=250 dv=0
PairPos2: "'kern' Horizontal Kerning in Arabic lookup 0 subtable" uni0671 dx=0 dy=0 dh=0 dv=0 dx=0 dy=0 dh=200 dv=0
PairPos2: "'kern' Horizontal Kerning in Arabic lookup 0 subtable" afii57410 dx=0 dy=0 dh=0 dv=0 dx=0 dy=0 dh=200 dv=0
PairPos2: "'kern' Horizontal Kerning in Arabic lookup 0 subtable" afii57415 dx=0 dy=0 dh=0 dv=0 dx=0 dy=0 dh=50 dv=0
EndChar

StartChar: Y
Encoding: 89 89 60
Width: 1479
GlyphClass: 2
Flags: W
LayerCount: 2
Fore
SplineSet
406 1384 m 1,0,-1
 417 1329 l 1,1,2
 363 1326 363 1326 331.5 1322 c 128,-1,3
 300 1318 300 1318 284 1311 c 128,-1,4
 268 1304 268 1304 264.5 1294.5 c 128,-1,5
 261 1285 261 1285 263 1273 c 0,6,7
 266 1262 266 1262 274 1244 c 128,-1,8
 282 1226 282 1226 310 1192 c 1,9,-1
 310 1191 l 1,10,11
 310 1191 310 1191 334.5 1158.5 c 128,-1,12
 359 1126 359 1126 395.5 1076 c 128,-1,13
 432 1026 432 1026 476 966 c 128,-1,14
 520 906 520 906 560 850.5 c 128,-1,15
 600 795 600 795 632 752 c 128,-1,16
 664 709 664 709 676 693 c 1,17,-1
 717 693 l 1,18,19
 719 699 719 699 730 726.5 c 128,-1,20
 741 754 741 754 756 792 c 128,-1,21
 771 830 771 830 788 873 c 128,-1,22
 805 916 805 916 820 954 c 128,-1,23
 835 992 835 992 845.5 1019.5 c 128,-1,24
 856 1047 856 1047 859 1053 c 0,25,26
 886 1119 886 1119 895.5 1167.5 c 128,-1,27
 905 1216 905 1216 900 1240 c 0,28,29
 889 1289 889 1289 834 1311 c 0,30,31
 818 1317 818 1317 788.5 1321 c 128,-1,32
 759 1325 759 1325 711 1329 c 1,33,-1
 700 1384 l 1,34,-1
 1121 1384 l 1,35,-1
 1133 1328 l 1,36,37
 1076 1318 1076 1318 1049.5 1298.5 c 128,-1,38
 1023 1279 1023 1279 1011 1251 c 0,39,40
 1004 1233 1004 1233 984 1183.5 c 128,-1,41
 964 1134 964 1134 938 1069.5 c 128,-1,42
 912 1005 912 1005 883 933 c 128,-1,43
 854 861 854 861 828 796.5 c 128,-1,44
 802 732 802 732 782 682.5 c 128,-1,45
 762 633 762 633 754 615 c 1,46,-1
 834 240 l 2,47,48
 844 188 844 188 861 153 c 128,-1,49
 878 118 878 118 903.5 96.5 c 128,-1,50
 929 75 929 75 968.5 65.5 c 128,-1,51
 1008 56 1008 56 1063 54 c 1,52,-1
 1075 0 l 1,53,-1
 392 0 l 1,54,-1
 380 54 l 1,55,56
 488 57 488 57 518 93 c 0,57,58
 535 114 535 114 538.5 150 c 128,-1,59
 542 186 542 186 530 240 c 2,60,-1
 464 540 l 1,61,62
 452 555 452 555 427 589 c 128,-1,63
 402 623 402 623 366 669 c 128,-1,64
 330 715 330 715 289 769 c 128,-1,65
 248 823 248 823 205 879.5 c 128,-1,66
 162 936 162 936 121 990 c 128,-1,67
 80 1044 80 1044 45 1090 c 128,-1,68
 10 1136 10 1136 -16 1170 c 128,-1,69
 -42 1204 -42 1204 -53 1219 c 1,70,-1
 -53 1218 l 1,71,72
 -92 1266 -92 1266 -141.5 1296.5 c 128,-1,73
 -191 1327 -191 1327 -239 1329 c 1,74,-1
 -250 1384 l 1,75,-1
 406 1384 l 1,0,-1
EndSplineSet
Substitution2: "<17016,16016> Urdu Swash lookup 75 subtable" Y
PairPos2: "'kern' Horizontal Kerning in Arabic lookup 0 subtable" afii57509 dx=0 dy=0 dh=0 dv=0 dx=0 dy=0 dh=250 dv=0
PairPos2: "'kern' Horizontal Kerning in Arabic lookup 0 subtable" uni06AB dx=0 dy=0 dh=0 dv=0 dx=0 dy=0 dh=250 dv=0
PairPos2: "'kern' Horizontal Kerning in Arabic lookup 0 subtable" uni06A9 dx=0 dy=0 dh=0 dv=0 dx=0 dy=0 dh=250 dv=0
PairPos2: "'kern' Horizontal Kerning in Arabic lookup 0 subtable" uniFB94 dx=0 dy=0 dh=0 dv=0 dx=0 dy=0 dh=250 dv=0
PairPos2: "'kern' Horizontal Kerning in Arabic lookup 0 subtable" uniFBD5 dx=0 dy=0 dh=0 dv=0 dx=0 dy=0 dh=250 dv=0
PairPos2: "'kern' Horizontal Kerning in Arabic lookup 0 subtable" uni06AB.ini dx=0 dy=0 dh=0 dv=0 dx=0 dy=0 dh=250 dv=0
PairPos2: "'kern' Horizontal Kerning in Arabic lookup 0 subtable" uniFB90 dx=0 dy=0 dh=0 dv=0 dx=0 dy=0 dh=250 dv=0
PairPos2: "'kern' Horizontal Kerning in Arabic lookup 0 subtable" uniFEDB dx=0 dy=0 dh=0 dv=0 dx=0 dy=0 dh=250 dv=0
PairPos2: "'kern' Horizontal Kerning in Arabic lookup 0 subtable" uni0671 dx=0 dy=0 dh=0 dv=0 dx=0 dy=0 dh=200 dv=0
PairPos2: "'kern' Horizontal Kerning in Arabic lookup 0 subtable" afii57410 dx=0 dy=0 dh=0 dv=0 dx=0 dy=0 dh=200 dv=0
PairPos2: "'kern' Horizontal Kerning in Arabic lookup 0 subtable" afii57415 dx=0 dy=0 dh=0 dv=0 dx=0 dy=0 dh=50 dv=0
EndChar

StartChar: Z
Encoding: 90 90 61
Width: 1366
GlyphClass: 2
Flags: W
LayerCount: 2
Fore
SplineSet
62 38 m 1,0,-1
 571 1311 l 1,1,-1
 560 1311 l 2,2,3
 447 1311 447 1311 377 1309.5 c 128,-1,4
 307 1308 307 1308 282 1306 c 0,5,6
 183 1296 183 1296 118.5 1263 c 128,-1,7
 54 1230 54 1230 18 1170 c 0,8,9
 2 1138 2 1138 -13.5 1085 c 128,-1,10
 -29 1032 -29 1032 -40 961 c 1,11,-1
 -70 961 l 1,12,-1
 -117 1384 l 1,13,-1
 927 1384 l 1,14,-1
 935 1346 l 1,15,-1
 432 73 l 1,16,-1
 443 73 l 2,17,18
 867 73 867 73 997 137 c 0,19,20
 1067 172 1067 172 1105.5 260 c 128,-1,21
 1144 348 1144 348 1151 494 c 1,22,-1
 1177 494 l 1,23,-1
 1228 0 l 1,24,-1
 70 0 l 1,25,-1
 62 38 l 1,0,-1
EndSplineSet
Substitution2: "<17016,16016> Urdu Swash lookup 75 subtable" Z
PairPos2: "'kern' Horizontal Kerning in Arabic lookup 0 subtable" afii57509 dx=0 dy=0 dh=0 dv=0 dx=0 dy=0 dh=250 dv=0
PairPos2: "'kern' Horizontal Kerning in Arabic lookup 0 subtable" uni06AB dx=0 dy=0 dh=0 dv=0 dx=0 dy=0 dh=250 dv=0
PairPos2: "'kern' Horizontal Kerning in Arabic lookup 0 subtable" uni06A9 dx=0 dy=0 dh=0 dv=0 dx=0 dy=0 dh=250 dv=0
PairPos2: "'kern' Horizontal Kerning in Arabic lookup 0 subtable" uniFB94 dx=0 dy=0 dh=0 dv=0 dx=0 dy=0 dh=250 dv=0
PairPos2: "'kern' Horizontal Kerning in Arabic lookup 0 subtable" uniFBD5 dx=0 dy=0 dh=0 dv=0 dx=0 dy=0 dh=250 dv=0
PairPos2: "'kern' Horizontal Kerning in Arabic lookup 0 subtable" uni06AB.ini dx=0 dy=0 dh=0 dv=0 dx=0 dy=0 dh=250 dv=0
PairPos2: "'kern' Horizontal Kerning in Arabic lookup 0 subtable" uniFB90 dx=0 dy=0 dh=0 dv=0 dx=0 dy=0 dh=250 dv=0
PairPos2: "'kern' Horizontal Kerning in Arabic lookup 0 subtable" uniFEDB dx=0 dy=0 dh=0 dv=0 dx=0 dy=0 dh=250 dv=0
PairPos2: "'kern' Horizontal Kerning in Arabic lookup 0 subtable" uni0671 dx=0 dy=0 dh=0 dv=0 dx=0 dy=0 dh=200 dv=0
PairPos2: "'kern' Horizontal Kerning in Arabic lookup 0 subtable" afii57410 dx=0 dy=0 dh=0 dv=0 dx=0 dy=0 dh=200 dv=0
PairPos2: "'kern' Horizontal Kerning in Arabic lookup 0 subtable" afii57415 dx=0 dy=0 dh=0 dv=0 dx=0 dy=0 dh=50 dv=0
EndChar

StartChar: bracketleft
Encoding: 91 91 62
Width: 652
GlyphClass: 2
Flags: W
LayerCount: 2
Fore
SplineSet
217 -550 m 1,0,-1
 -215 1485 l 1,1,-1
 237 1485 l 1,2,-1
 271 1320 l 1,3,-1
 -8 1320 l 1,4,-1
 354 -383 l 1,5,-1
 633 -383 l 1,6,-1
 669 -550 l 1,7,-1
 217 -550 l 1,0,-1
EndSplineSet
Substitution2: "<17016,16016> Urdu Swash lookup 75 subtable" bracketleft
PairPos2: "'kern' Horizontal Kerning in Arabic lookup 0 subtable" afii57509 dx=0 dy=0 dh=0 dv=0 dx=0 dy=0 dh=250 dv=0
PairPos2: "'kern' Horizontal Kerning in Arabic lookup 0 subtable" uni06AB dx=0 dy=0 dh=0 dv=0 dx=0 dy=0 dh=250 dv=0
PairPos2: "'kern' Horizontal Kerning in Arabic lookup 0 subtable" uni06A9 dx=0 dy=0 dh=0 dv=0 dx=0 dy=0 dh=250 dv=0
PairPos2: "'kern' Horizontal Kerning in Arabic lookup 0 subtable" uniFB94 dx=0 dy=0 dh=0 dv=0 dx=0 dy=0 dh=250 dv=0
PairPos2: "'kern' Horizontal Kerning in Arabic lookup 0 subtable" uniFBD5 dx=0 dy=0 dh=0 dv=0 dx=0 dy=0 dh=250 dv=0
PairPos2: "'kern' Horizontal Kerning in Arabic lookup 0 subtable" uni06AB.ini dx=0 dy=0 dh=0 dv=0 dx=0 dy=0 dh=250 dv=0
PairPos2: "'kern' Horizontal Kerning in Arabic lookup 0 subtable" uniFB90 dx=0 dy=0 dh=0 dv=0 dx=0 dy=0 dh=250 dv=0
PairPos2: "'kern' Horizontal Kerning in Arabic lookup 0 subtable" uniFEDB dx=0 dy=0 dh=0 dv=0 dx=0 dy=0 dh=250 dv=0
PairPos2: "'kern' Horizontal Kerning in Arabic lookup 0 subtable" uni0671 dx=0 dy=0 dh=0 dv=0 dx=0 dy=0 dh=200 dv=0
PairPos2: "'kern' Horizontal Kerning in Arabic lookup 0 subtable" afii57410 dx=0 dy=0 dh=0 dv=0 dx=0 dy=0 dh=200 dv=0
PairPos2: "'kern' Horizontal Kerning in Arabic lookup 0 subtable" afii57415 dx=0 dy=0 dh=0 dv=0 dx=0 dy=0 dh=50 dv=0
EndChar

StartChar: backslash
Encoding: 92 92 63
Width: 569
GlyphClass: 2
Flags: W
LayerCount: 2
Fore
SplineSet
-222 1415 m 1,0,-1
 649 0 l 1,1,-1
 488 0 l 1,2,-1
 -386 1415 l 1,3,-1
 -222 1415 l 1,0,-1
EndSplineSet
Substitution2: "<17016,16016> Urdu Swash lookup 75 subtable" backslash
PairPos2: "'kern' Horizontal Kerning in Arabic lookup 0 subtable" afii57509 dx=0 dy=0 dh=0 dv=0 dx=0 dy=0 dh=250 dv=0
PairPos2: "'kern' Horizontal Kerning in Arabic lookup 0 subtable" uni06AB dx=0 dy=0 dh=0 dv=0 dx=0 dy=0 dh=250 dv=0
PairPos2: "'kern' Horizontal Kerning in Arabic lookup 0 subtable" uni06A9 dx=0 dy=0 dh=0 dv=0 dx=0 dy=0 dh=250 dv=0
PairPos2: "'kern' Horizontal Kerning in Arabic lookup 0 subtable" uniFB94 dx=0 dy=0 dh=0 dv=0 dx=0 dy=0 dh=250 dv=0
PairPos2: "'kern' Horizontal Kerning in Arabic lookup 0 subtable" uniFBD5 dx=0 dy=0 dh=0 dv=0 dx=0 dy=0 dh=250 dv=0
PairPos2: "'kern' Horizontal Kerning in Arabic lookup 0 subtable" uni06AB.ini dx=0 dy=0 dh=0 dv=0 dx=0 dy=0 dh=250 dv=0
PairPos2: "'kern' Horizontal Kerning in Arabic lookup 0 subtable" uniFB90 dx=0 dy=0 dh=0 dv=0 dx=0 dy=0 dh=250 dv=0
PairPos2: "'kern' Horizontal Kerning in Arabic lookup 0 subtable" uniFEDB dx=0 dy=0 dh=0 dv=0 dx=0 dy=0 dh=250 dv=0
PairPos2: "'kern' Horizontal Kerning in Arabic lookup 0 subtable" uni0671 dx=0 dy=0 dh=0 dv=0 dx=0 dy=0 dh=200 dv=0
PairPos2: "'kern' Horizontal Kerning in Arabic lookup 0 subtable" afii57410 dx=0 dy=0 dh=0 dv=0 dx=0 dy=0 dh=200 dv=0
PairPos2: "'kern' Horizontal Kerning in Arabic lookup 0 subtable" afii57415 dx=0 dy=0 dh=0 dv=0 dx=0 dy=0 dh=50 dv=0
EndChar

StartChar: bracketright
Encoding: 93 93 64
Width: 752
GlyphClass: 2
Flags: W
LayerCount: 2
Fore
SplineSet
217 -550 m 1,0,-1
 181 -383 l 1,1,-1
 458 -383 l 1,2,-1
 96 1320 l 1,3,-1
 -181 1320 l 1,4,-1
 -215 1485 l 1,5,-1
 237 1485 l 1,6,-1
 669 -550 l 1,7,-1
 217 -550 l 1,0,-1
EndSplineSet
Substitution2: "<17016,16016> Urdu Swash lookup 75 subtable" bracketright
PairPos2: "'kern' Horizontal Kerning in Arabic lookup 0 subtable" afii57509 dx=0 dy=0 dh=0 dv=0 dx=0 dy=0 dh=250 dv=0
PairPos2: "'kern' Horizontal Kerning in Arabic lookup 0 subtable" uni06AB dx=0 dy=0 dh=0 dv=0 dx=0 dy=0 dh=250 dv=0
PairPos2: "'kern' Horizontal Kerning in Arabic lookup 0 subtable" uni06A9 dx=0 dy=0 dh=0 dv=0 dx=0 dy=0 dh=250 dv=0
PairPos2: "'kern' Horizontal Kerning in Arabic lookup 0 subtable" uniFB94 dx=0 dy=0 dh=0 dv=0 dx=0 dy=0 dh=250 dv=0
PairPos2: "'kern' Horizontal Kerning in Arabic lookup 0 subtable" uniFBD5 dx=0 dy=0 dh=0 dv=0 dx=0 dy=0 dh=250 dv=0
PairPos2: "'kern' Horizontal Kerning in Arabic lookup 0 subtable" uni06AB.ini dx=0 dy=0 dh=0 dv=0 dx=0 dy=0 dh=250 dv=0
PairPos2: "'kern' Horizontal Kerning in Arabic lookup 0 subtable" uniFB90 dx=0 dy=0 dh=0 dv=0 dx=0 dy=0 dh=250 dv=0
PairPos2: "'kern' Horizontal Kerning in Arabic lookup 0 subtable" uniFEDB dx=0 dy=0 dh=0 dv=0 dx=0 dy=0 dh=250 dv=0
PairPos2: "'kern' Horizontal Kerning in Arabic lookup 0 subtable" uni0671 dx=0 dy=0 dh=0 dv=0 dx=0 dy=0 dh=200 dv=0
PairPos2: "'kern' Horizontal Kerning in Arabic lookup 0 subtable" afii57410 dx=0 dy=0 dh=0 dv=0 dx=0 dy=0 dh=200 dv=0
PairPos2: "'kern' Horizontal Kerning in Arabic lookup 0 subtable" afii57415 dx=0 dy=0 dh=0 dv=0 dx=0 dy=0 dh=50 dv=0
EndChar

StartChar: asciicircum
Encoding: 94 94 65
Width: 1190
GlyphClass: 2
Flags: W
LayerCount: 2
Fore
SplineSet
323 1415 m 1,0,-1
 922 525 l 1,1,-1
 745 525 l 1,2,-1
 375 1095 l 1,3,-1
 349 1095 l 1,4,5
 346 1078 346 1078 335.5 1034 c 128,-1,6
 325 990 325 990 312 932.5 c 128,-1,7
 299 875 299 875 285.5 810.5 c 128,-1,8
 272 746 272 746 259.5 688.5 c 128,-1,9
 247 631 247 631 237.5 586.5 c 128,-1,10
 228 542 228 542 224 525 c 1,11,-1
 46 525 l 1,12,-1
 266 1415 l 1,13,-1
 323 1415 l 1,0,-1
EndSplineSet
Substitution2: "<17016,16016> Urdu Swash lookup 75 subtable" asciicircum
PairPos2: "'kern' Horizontal Kerning in Arabic lookup 0 subtable" afii57509 dx=0 dy=0 dh=0 dv=0 dx=0 dy=0 dh=250 dv=0
PairPos2: "'kern' Horizontal Kerning in Arabic lookup 0 subtable" uni06AB dx=0 dy=0 dh=0 dv=0 dx=0 dy=0 dh=250 dv=0
PairPos2: "'kern' Horizontal Kerning in Arabic lookup 0 subtable" uni06A9 dx=0 dy=0 dh=0 dv=0 dx=0 dy=0 dh=250 dv=0
PairPos2: "'kern' Horizontal Kerning in Arabic lookup 0 subtable" uniFB94 dx=0 dy=0 dh=0 dv=0 dx=0 dy=0 dh=250 dv=0
PairPos2: "'kern' Horizontal Kerning in Arabic lookup 0 subtable" uniFBD5 dx=0 dy=0 dh=0 dv=0 dx=0 dy=0 dh=250 dv=0
PairPos2: "'kern' Horizontal Kerning in Arabic lookup 0 subtable" uni06AB.ini dx=0 dy=0 dh=0 dv=0 dx=0 dy=0 dh=250 dv=0
PairPos2: "'kern' Horizontal Kerning in Arabic lookup 0 subtable" uniFB90 dx=0 dy=0 dh=0 dv=0 dx=0 dy=0 dh=250 dv=0
PairPos2: "'kern' Horizontal Kerning in Arabic lookup 0 subtable" uniFEDB dx=0 dy=0 dh=0 dv=0 dx=0 dy=0 dh=250 dv=0
PairPos2: "'kern' Horizontal Kerning in Arabic lookup 0 subtable" uni0671 dx=0 dy=0 dh=0 dv=0 dx=0 dy=0 dh=200 dv=0
PairPos2: "'kern' Horizontal Kerning in Arabic lookup 0 subtable" afii57410 dx=0 dy=0 dh=0 dv=0 dx=0 dy=0 dh=200 dv=0
PairPos2: "'kern' Horizontal Kerning in Arabic lookup 0 subtable" afii57415 dx=0 dy=0 dh=0 dv=0 dx=0 dy=0 dh=50 dv=0
EndChar

StartChar: underscore
Encoding: 95 95 66
Width: 1024
GlyphClass: 2
Flags: W
LayerCount: 2
Fore
SplineSet
73 -275 m 1,0,-1
 43 -134 l 1,1,-1
 1038 -134 l 1,2,-1
 1068 -275 l 1,3,-1
 73 -275 l 1,0,-1
EndSplineSet
Substitution2: "<17016,16016> Urdu Swash lookup 75 subtable" underscore
PairPos2: "'kern' Horizontal Kerning in Arabic lookup 0 subtable" afii57509 dx=0 dy=0 dh=0 dv=0 dx=0 dy=0 dh=250 dv=0
PairPos2: "'kern' Horizontal Kerning in Arabic lookup 0 subtable" uni06AB dx=0 dy=0 dh=0 dv=0 dx=0 dy=0 dh=250 dv=0
PairPos2: "'kern' Horizontal Kerning in Arabic lookup 0 subtable" uni06A9 dx=0 dy=0 dh=0 dv=0 dx=0 dy=0 dh=250 dv=0
PairPos2: "'kern' Horizontal Kerning in Arabic lookup 0 subtable" uniFB94 dx=0 dy=0 dh=0 dv=0 dx=0 dy=0 dh=250 dv=0
PairPos2: "'kern' Horizontal Kerning in Arabic lookup 0 subtable" uniFBD5 dx=0 dy=0 dh=0 dv=0 dx=0 dy=0 dh=250 dv=0
PairPos2: "'kern' Horizontal Kerning in Arabic lookup 0 subtable" uni06AB.ini dx=0 dy=0 dh=0 dv=0 dx=0 dy=0 dh=250 dv=0
PairPos2: "'kern' Horizontal Kerning in Arabic lookup 0 subtable" uniFB90 dx=0 dy=0 dh=0 dv=0 dx=0 dy=0 dh=250 dv=0
PairPos2: "'kern' Horizontal Kerning in Arabic lookup 0 subtable" uniFEDB dx=0 dy=0 dh=0 dv=0 dx=0 dy=0 dh=250 dv=0
PairPos2: "'kern' Horizontal Kerning in Arabic lookup 0 subtable" uni0671 dx=0 dy=0 dh=0 dv=0 dx=0 dy=0 dh=200 dv=0
PairPos2: "'kern' Horizontal Kerning in Arabic lookup 0 subtable" afii57410 dx=0 dy=0 dh=0 dv=0 dx=0 dy=0 dh=200 dv=0
PairPos2: "'kern' Horizontal Kerning in Arabic lookup 0 subtable" afii57415 dx=0 dy=0 dh=0 dv=0 dx=0 dy=0 dh=50 dv=0
EndChar

StartChar: grave
Encoding: 96 96 67
Width: 682
GlyphClass: 2
Flags: W
LayerCount: 2
Fore
SplineSet
-199 1460 m 0,0,1
 -170 1460 -170 1460 -141 1444.5 c 128,-1,2
 -112 1429 -112 1429 -83 1403 c 0,3,4
 -74 1395 -74 1395 -47 1370 c 128,-1,5
 -20 1345 -20 1345 16 1311.5 c 128,-1,6
 52 1278 52 1278 92 1240.5 c 128,-1,7
 132 1203 132 1203 168.5 1169.5 c 128,-1,8
 205 1136 205 1136 231.5 1111 c 128,-1,9
 258 1086 258 1086 268 1078 c 1,10,-1
 169 1078 l 1,11,-1
 -161 1259 l 2,12,13
 -182 1270 -182 1270 -198 1281 c 128,-1,14
 -214 1292 -214 1292 -227 1304.5 c 128,-1,15
 -240 1317 -240 1317 -248 1332.5 c 128,-1,16
 -256 1348 -256 1348 -261 1369 c 0,17,18
 -270 1411 -270 1411 -251 1435.5 c 128,-1,19
 -232 1460 -232 1460 -199 1460 c 0,0,1
EndSplineSet
Substitution2: "<17016,16016> Urdu Swash lookup 75 subtable" grave
PairPos2: "'kern' Horizontal Kerning in Arabic lookup 0 subtable" afii57509 dx=0 dy=0 dh=0 dv=0 dx=0 dy=0 dh=250 dv=0
PairPos2: "'kern' Horizontal Kerning in Arabic lookup 0 subtable" uni06AB dx=0 dy=0 dh=0 dv=0 dx=0 dy=0 dh=250 dv=0
PairPos2: "'kern' Horizontal Kerning in Arabic lookup 0 subtable" uni06A9 dx=0 dy=0 dh=0 dv=0 dx=0 dy=0 dh=250 dv=0
PairPos2: "'kern' Horizontal Kerning in Arabic lookup 0 subtable" uniFB94 dx=0 dy=0 dh=0 dv=0 dx=0 dy=0 dh=250 dv=0
PairPos2: "'kern' Horizontal Kerning in Arabic lookup 0 subtable" uniFBD5 dx=0 dy=0 dh=0 dv=0 dx=0 dy=0 dh=250 dv=0
PairPos2: "'kern' Horizontal Kerning in Arabic lookup 0 subtable" uni06AB.ini dx=0 dy=0 dh=0 dv=0 dx=0 dy=0 dh=250 dv=0
PairPos2: "'kern' Horizontal Kerning in Arabic lookup 0 subtable" uniFB90 dx=0 dy=0 dh=0 dv=0 dx=0 dy=0 dh=250 dv=0
PairPos2: "'kern' Horizontal Kerning in Arabic lookup 0 subtable" uniFEDB dx=0 dy=0 dh=0 dv=0 dx=0 dy=0 dh=250 dv=0
PairPos2: "'kern' Horizontal Kerning in Arabic lookup 0 subtable" uni0671 dx=0 dy=0 dh=0 dv=0 dx=0 dy=0 dh=200 dv=0
PairPos2: "'kern' Horizontal Kerning in Arabic lookup 0 subtable" afii57410 dx=0 dy=0 dh=0 dv=0 dx=0 dy=0 dh=200 dv=0
PairPos2: "'kern' Horizontal Kerning in Arabic lookup 0 subtable" afii57415 dx=0 dy=0 dh=0 dv=0 dx=0 dy=0 dh=50 dv=0
EndChar

StartChar: a
Encoding: 97 97 68
Width: 1024
GlyphClass: 2
Flags: W
LayerCount: 2
Fore
SplineSet
518 149 m 0,0,1
 530 160 530 160 542 174 c 128,-1,2
 554 188 554 188 565 205 c 1,3,-1
 569 205 l 1,4,-1
 506 501 l 1,5,-1
 489 501 l 1,6,7
 365 467 365 467 315 400.5 c 128,-1,8
 265 334 265 334 282 254 c 0,9,10
 289 221 289 221 304 196 c 128,-1,11
 319 171 319 171 338 153.5 c 128,-1,12
 357 136 357 136 379 127.5 c 128,-1,13
 401 119 401 119 423 119 c 0,14,15
 481 119 481 119 518 149 c 0,0,1
462 722 m 2,16,17
 453 767 453 767 436 800.5 c 128,-1,18
 419 834 419 834 392 855.5 c 128,-1,19
 365 877 365 877 327 888 c 128,-1,20
 289 899 289 899 236 899 c 0,21,22
 176 899 176 899 140.5 878.5 c 128,-1,23
 105 858 105 858 111 828 c 0,24,25
 114 819 114 819 122.5 808.5 c 128,-1,26
 131 798 131 798 147 784 c 0,27,28
 187 748 187 748 198 696 c 0,29,30
 204 667 204 667 200 644 c 128,-1,31
 196 621 196 621 183.5 605.5 c 128,-1,32
 171 590 171 590 152 582 c 128,-1,33
 133 574 133 574 110 574 c 0,34,35
 56 574 56 574 11.5 609 c 128,-1,36
 -33 644 -33 644 -46 711 c 0,37,38
 -61 776 -61 776 -40 824 c 128,-1,39
 -19 872 -19 872 25.5 904 c 128,-1,40
 70 936 70 936 133 952 c 128,-1,41
 196 968 196 968 267 968 c 0,42,43
 436 968 436 968 567 901 c 0,44,45
 689 838 689 838 729 650 c 2,46,-1
 833 155 l 2,47,48
 838 134 838 134 856.5 118.5 c 128,-1,49
 875 103 875 103 895 103 c 0,50,51
 912 103 912 103 921.5 105.5 c 128,-1,52
 931 108 931 108 941 120 c 1,53,-1
 971 87 l 1,54,55
 932 24 932 24 881.5 -2.5 c 128,-1,56
 831 -29 831 -29 775 -29 c 0,57,58
 736 -29 736 -29 702 -15 c 128,-1,59
 668 -1 668 -1 643 24 c 0,60,61
 630 36 630 36 616 61 c 128,-1,62
 602 86 602 86 592 113 c 1,63,-1
 568 113 l 1,64,65
 511 43 511 43 436.5 7 c 128,-1,66
 362 -29 362 -29 288 -29 c 0,67,68
 213 -29 213 -29 129 24 c 0,69,70
 51 73 51 73 25 192 c 0,71,72
 -5 335 -5 335 105 411 c 0,73,74
 223 493 223 493 483 574 c 1,75,-1
 493 574 l 1,76,-1
 462 722 l 2,16,17
EndSplineSet
Substitution2: "<17016,16016> Urdu Swash lookup 75 subtable" a
PairPos2: "'kern' Horizontal Kerning in Arabic lookup 0 subtable" afii57509 dx=0 dy=0 dh=0 dv=0 dx=0 dy=0 dh=250 dv=0
PairPos2: "'kern' Horizontal Kerning in Arabic lookup 0 subtable" uni06AB dx=0 dy=0 dh=0 dv=0 dx=0 dy=0 dh=250 dv=0
PairPos2: "'kern' Horizontal Kerning in Arabic lookup 0 subtable" uni06A9 dx=0 dy=0 dh=0 dv=0 dx=0 dy=0 dh=250 dv=0
PairPos2: "'kern' Horizontal Kerning in Arabic lookup 0 subtable" uniFB94 dx=0 dy=0 dh=0 dv=0 dx=0 dy=0 dh=250 dv=0
PairPos2: "'kern' Horizontal Kerning in Arabic lookup 0 subtable" uniFBD5 dx=0 dy=0 dh=0 dv=0 dx=0 dy=0 dh=250 dv=0
PairPos2: "'kern' Horizontal Kerning in Arabic lookup 0 subtable" uni06AB.ini dx=0 dy=0 dh=0 dv=0 dx=0 dy=0 dh=250 dv=0
PairPos2: "'kern' Horizontal Kerning in Arabic lookup 0 subtable" uniFB90 dx=0 dy=0 dh=0 dv=0 dx=0 dy=0 dh=250 dv=0
PairPos2: "'kern' Horizontal Kerning in Arabic lookup 0 subtable" uniFEDB dx=0 dy=0 dh=0 dv=0 dx=0 dy=0 dh=250 dv=0
PairPos2: "'kern' Horizontal Kerning in Arabic lookup 0 subtable" uni0671 dx=0 dy=0 dh=0 dv=0 dx=0 dy=0 dh=200 dv=0
PairPos2: "'kern' Horizontal Kerning in Arabic lookup 0 subtable" afii57410 dx=0 dy=0 dh=0 dv=0 dx=0 dy=0 dh=200 dv=0
PairPos2: "'kern' Horizontal Kerning in Arabic lookup 0 subtable" afii57415 dx=0 dy=0 dh=0 dv=0 dx=0 dy=0 dh=50 dv=0
EndChar

StartChar: b
Encoding: 98 98 69
Width: 1139
GlyphClass: 2
Flags: W
LayerCount: 2
Fore
SplineSet
417 108 m 0,0,1
 467 39 467 39 564 39 c 0,2,3
 622 39 622 39 656.5 68 c 128,-1,4
 691 97 691 97 702 149 c 0,5,6
 705 177 705 177 705.5 213 c 128,-1,7
 706 249 706 249 704 290 c 128,-1,8
 702 331 702 331 695.5 375 c 128,-1,9
 689 419 689 419 680 462 c 0,10,11
 646 622 646 622 581 739 c 0,12,13
 519 854 519 854 394 854 c 0,14,15
 317 854 317 854 287 805 c 0,16,17
 256 753 256 753 260 737 c 2,18,-1
 374 200 l 2,19,20
 381 174 381 174 391.5 151 c 128,-1,21
 402 128 402 128 417 108 c 0,0,1
122 1384 m 1,22,-1
 235 854 l 1,23,-1
 258 854 l 1,24,25
 286 888 286 888 311 910 c 128,-1,26
 336 932 336 932 362.5 945 c 128,-1,27
 389 958 389 958 416.5 963 c 128,-1,28
 444 968 444 968 476 968 c 0,29,30
 556 968 556 968 631 932.5 c 128,-1,31
 706 897 706 897 769 834 c 128,-1,32
 832 771 832 771 878 685.5 c 128,-1,33
 924 600 924 600 945 500 c 0,34,35
 972 373 972 373 959 274 c 128,-1,36
 946 175 946 175 897 108 c 1,37,38
 845 45 845 45 770 8 c 128,-1,39
 695 -29 695 -29 603 -29 c 0,40,41
 527 -29 527 -29 458.5 3.5 c 128,-1,42
 390 36 390 36 325 87 c 1,43,-1
 308 87 l 1,44,45
 276 58 276 58 241 28.5 c 128,-1,46
 206 -1 206 -1 172 -29 c 1,47,-1
 165 -29 l 1,48,-1
 -100 1215 l 2,49,50
 -105 1241 -105 1241 -113.5 1260.5 c 128,-1,51
 -122 1280 -122 1280 -137 1294 c 128,-1,52
 -152 1308 -152 1308 -175 1316.5 c 128,-1,53
 -198 1325 -198 1325 -233 1330 c 1,54,-1
 -245 1384 l 1,55,-1
 122 1384 l 1,22,-1
EndSplineSet
Substitution2: "<17016,16016> Urdu Swash lookup 75 subtable" b
PairPos2: "'kern' Horizontal Kerning in Arabic lookup 0 subtable" afii57509 dx=0 dy=0 dh=0 dv=0 dx=0 dy=0 dh=250 dv=0
PairPos2: "'kern' Horizontal Kerning in Arabic lookup 0 subtable" uni06AB dx=0 dy=0 dh=0 dv=0 dx=0 dy=0 dh=250 dv=0
PairPos2: "'kern' Horizontal Kerning in Arabic lookup 0 subtable" uni06A9 dx=0 dy=0 dh=0 dv=0 dx=0 dy=0 dh=250 dv=0
PairPos2: "'kern' Horizontal Kerning in Arabic lookup 0 subtable" uniFB94 dx=0 dy=0 dh=0 dv=0 dx=0 dy=0 dh=250 dv=0
PairPos2: "'kern' Horizontal Kerning in Arabic lookup 0 subtable" uniFBD5 dx=0 dy=0 dh=0 dv=0 dx=0 dy=0 dh=250 dv=0
PairPos2: "'kern' Horizontal Kerning in Arabic lookup 0 subtable" uni06AB.ini dx=0 dy=0 dh=0 dv=0 dx=0 dy=0 dh=250 dv=0
PairPos2: "'kern' Horizontal Kerning in Arabic lookup 0 subtable" uniFB90 dx=0 dy=0 dh=0 dv=0 dx=0 dy=0 dh=250 dv=0
PairPos2: "'kern' Horizontal Kerning in Arabic lookup 0 subtable" uniFEDB dx=0 dy=0 dh=0 dv=0 dx=0 dy=0 dh=250 dv=0
PairPos2: "'kern' Horizontal Kerning in Arabic lookup 0 subtable" uni0671 dx=0 dy=0 dh=0 dv=0 dx=0 dy=0 dh=200 dv=0
PairPos2: "'kern' Horizontal Kerning in Arabic lookup 0 subtable" afii57410 dx=0 dy=0 dh=0 dv=0 dx=0 dy=0 dh=200 dv=0
PairPos2: "'kern' Horizontal Kerning in Arabic lookup 0 subtable" afii57415 dx=0 dy=0 dh=0 dv=0 dx=0 dy=0 dh=50 dv=0
EndChar

StartChar: c
Encoding: 99 99 70
AltUni2: 00217d.ffffffff.0
Width: 909
GlyphClass: 2
Flags: W
LayerCount: 2
Fore
SplineSet
672 744 m 0,0,1
 679 713 679 713 673.5 688.5 c 128,-1,2
 668 664 668 664 655 647 c 128,-1,3
 642 630 642 630 622.5 621 c 128,-1,4
 603 612 603 612 581 612 c 0,5,6
 546 612 546 612 516 630 c 1,7,-1
 517 630 l 1,8,9
 463 656 463 656 444 747 c 2,10,-1
 442 755 l 2,11,12
 440 766 440 766 438 780 c 128,-1,13
 436 794 436 794 432 811 c 0,14,15
 423 856 423 856 391.5 880 c 128,-1,16
 360 904 360 904 314 904 c 0,17,18
 207 904 207 904 189 800 c 0,19,20
 171 695 171 695 199 561 c 0,21,22
 239 375 239 375 344 241 c 0,23,24
 447 111 447 111 588 111 c 0,25,26
 666 111 666 111 712.5 138.5 c 128,-1,27
 759 166 759 166 791 214 c 1,28,-1
 823 189 l 1,29,30
 749 44 749 44 634 -4 c 0,31,32
 570 -31 570 -31 494 -31 c 0,33,34
 403 -31 403 -31 316.5 5.5 c 128,-1,35
 230 42 230 42 157.5 107 c 128,-1,36
 85 172 85 172 33 260.5 c 128,-1,37
 -19 349 -19 349 -41 454 c 0,38,39
 -65 566 -65 566 -50 660.5 c 128,-1,40
 -35 755 -35 755 13.5 824 c 128,-1,41
 62 893 62 893 140 931.5 c 128,-1,42
 218 970 218 970 320 970 c 0,43,44
 376 970 376 970 434 955 c 128,-1,45
 492 940 492 940 541 911 c 128,-1,46
 590 882 590 882 625 840 c 128,-1,47
 660 798 660 798 672 744 c 0,0,1
EndSplineSet
Substitution2: "<17016,16016> Urdu Swash lookup 75 subtable" c
PairPos2: "'kern' Horizontal Kerning in Arabic lookup 0 subtable" afii57509 dx=0 dy=0 dh=0 dv=0 dx=0 dy=0 dh=250 dv=0
PairPos2: "'kern' Horizontal Kerning in Arabic lookup 0 subtable" uni06AB dx=0 dy=0 dh=0 dv=0 dx=0 dy=0 dh=250 dv=0
PairPos2: "'kern' Horizontal Kerning in Arabic lookup 0 subtable" uni06A9 dx=0 dy=0 dh=0 dv=0 dx=0 dy=0 dh=250 dv=0
PairPos2: "'kern' Horizontal Kerning in Arabic lookup 0 subtable" uniFB94 dx=0 dy=0 dh=0 dv=0 dx=0 dy=0 dh=250 dv=0
PairPos2: "'kern' Horizontal Kerning in Arabic lookup 0 subtable" uniFBD5 dx=0 dy=0 dh=0 dv=0 dx=0 dy=0 dh=250 dv=0
PairPos2: "'kern' Horizontal Kerning in Arabic lookup 0 subtable" uni06AB.ini dx=0 dy=0 dh=0 dv=0 dx=0 dy=0 dh=250 dv=0
PairPos2: "'kern' Horizontal Kerning in Arabic lookup 0 subtable" uniFB90 dx=0 dy=0 dh=0 dv=0 dx=0 dy=0 dh=250 dv=0
PairPos2: "'kern' Horizontal Kerning in Arabic lookup 0 subtable" uniFEDB dx=0 dy=0 dh=0 dv=0 dx=0 dy=0 dh=250 dv=0
PairPos2: "'kern' Horizontal Kerning in Arabic lookup 0 subtable" uni0671 dx=0 dy=0 dh=0 dv=0 dx=0 dy=0 dh=200 dv=0
PairPos2: "'kern' Horizontal Kerning in Arabic lookup 0 subtable" afii57410 dx=0 dy=0 dh=0 dv=0 dx=0 dy=0 dh=200 dv=0
PairPos2: "'kern' Horizontal Kerning in Arabic lookup 0 subtable" afii57415 dx=0 dy=0 dh=0 dv=0 dx=0 dy=0 dh=50 dv=0
EndChar

StartChar: d
Encoding: 100 100 71
AltUni2: 00217e.ffffffff.0
Width: 1139
GlyphClass: 2
Flags: W
LayerCount: 2
Fore
SplineSet
546 727 m 2,0,1
 541 747 541 747 481 800 c 0,2,3
 426 849 426 849 342 849 c 0,4,5
 293 849 293 849 263 827.5 c 128,-1,6
 233 806 233 806 221 760 c 128,-1,7
 209 714 209 714 214 642 c 128,-1,8
 219 570 219 570 240 470 c 0,9,10
 256 397 256 397 274.5 335 c 128,-1,11
 293 273 293 273 310 233 c 0,12,13
 326 202 326 202 347 176 c 128,-1,14
 368 150 368 150 392.5 130.5 c 128,-1,15
 417 111 417 111 443 100 c 128,-1,16
 469 89 469 89 496 89 c 0,17,18
 571 89 571 89 612 148 c 0,19,20
 655 211 655 211 651 230 c 2,21,-1
 546 727 l 2,0,1
239 968 m 0,22,23
 274 968 274 968 312 957 c 128,-1,24
 350 946 350 946 384 928 c 0,25,26
 401 919 401 919 431.5 895.5 c 128,-1,27
 462 872 462 872 497 842 c 1,28,-1
 521 842 l 1,29,-1
 442 1215 l 2,30,31
 435 1247 435 1247 425 1268.5 c 128,-1,32
 415 1290 415 1290 396 1303 c 128,-1,33
 377 1316 377 1316 345 1322 c 128,-1,34
 313 1328 313 1328 263 1331 c 1,35,-1
 252 1384 l 1,36,-1
 665 1384 l 1,37,-1
 915 207 l 2,38,39
 921 181 921 181 929.5 161 c 128,-1,40
 938 141 938 141 954 126 c 128,-1,41
 970 111 970 111 995 102 c 128,-1,42
 1020 93 1020 93 1057 90 c 1,43,-1
 1068 39 l 1,44,45
 992 31 992 31 940.5 25 c 128,-1,46
 889 19 889 19 864 14 c 0,47,48
 837 9 837 9 799.5 -0.5 c 128,-1,49
 762 -10 762 -10 712 -24 c 1,50,-1
 685 106 l 1,51,-1
 661 106 l 1,52,53
 631 67 631 67 604 41 c 128,-1,54
 577 15 577 15 549.5 -0.5 c 128,-1,55
 522 -16 522 -16 492.5 -22.5 c 128,-1,56
 463 -29 463 -29 429 -29 c 0,57,58
 363 -29 363 -29 291 5.5 c 128,-1,59
 219 40 219 40 152 98 c 1,60,61
 87 160 87 160 41 246.5 c 128,-1,62
 -5 333 -5 333 -28 443 c 0,63,64
 -54 567 -54 567 -46 663 c 128,-1,65
 -38 759 -38 759 2 827 c 1,66,67
 45 891 45 891 106 929.5 c 128,-1,68
 167 968 167 968 239 968 c 0,22,23
EndSplineSet
Substitution2: "<17016,16016> Urdu Swash lookup 75 subtable" d
PairPos2: "'kern' Horizontal Kerning in Arabic lookup 0 subtable" afii57509 dx=0 dy=0 dh=0 dv=0 dx=0 dy=0 dh=250 dv=0
PairPos2: "'kern' Horizontal Kerning in Arabic lookup 0 subtable" uni06AB dx=0 dy=0 dh=0 dv=0 dx=0 dy=0 dh=250 dv=0
PairPos2: "'kern' Horizontal Kerning in Arabic lookup 0 subtable" uni06A9 dx=0 dy=0 dh=0 dv=0 dx=0 dy=0 dh=250 dv=0
PairPos2: "'kern' Horizontal Kerning in Arabic lookup 0 subtable" uniFB94 dx=0 dy=0 dh=0 dv=0 dx=0 dy=0 dh=250 dv=0
PairPos2: "'kern' Horizontal Kerning in Arabic lookup 0 subtable" uniFBD5 dx=0 dy=0 dh=0 dv=0 dx=0 dy=0 dh=250 dv=0
PairPos2: "'kern' Horizontal Kerning in Arabic lookup 0 subtable" uni06AB.ini dx=0 dy=0 dh=0 dv=0 dx=0 dy=0 dh=250 dv=0
PairPos2: "'kern' Horizontal Kerning in Arabic lookup 0 subtable" uniFB90 dx=0 dy=0 dh=0 dv=0 dx=0 dy=0 dh=250 dv=0
PairPos2: "'kern' Horizontal Kerning in Arabic lookup 0 subtable" uniFEDB dx=0 dy=0 dh=0 dv=0 dx=0 dy=0 dh=250 dv=0
PairPos2: "'kern' Horizontal Kerning in Arabic lookup 0 subtable" uni0671 dx=0 dy=0 dh=0 dv=0 dx=0 dy=0 dh=200 dv=0
PairPos2: "'kern' Horizontal Kerning in Arabic lookup 0 subtable" afii57410 dx=0 dy=0 dh=0 dv=0 dx=0 dy=0 dh=200 dv=0
PairPos2: "'kern' Horizontal Kerning in Arabic lookup 0 subtable" afii57415 dx=0 dy=0 dh=0 dv=0 dx=0 dy=0 dh=50 dv=0
EndChar

StartChar: e
Encoding: 101 101 72
Width: 909
GlyphClass: 2
Flags: W
LayerCount: 2
Fore
SplineSet
176 820 m 1,0,1
 172 777 172 777 176 714 c 128,-1,2
 180 651 180 651 194 579 c 1,3,-1
 496 579 l 1,4,5
 477 664 477 664 455.5 728.5 c 128,-1,6
 434 793 434 793 414 831 c 0,7,8
 393 865 393 865 359 883.5 c 128,-1,9
 325 902 325 902 281 902 c 256,10,11
 237 902 237 902 210.5 879.5 c 128,-1,12
 184 857 184 857 176 820 c 1,0,1
267 968 m 0,13,14
 311 968 311 968 358 956.5 c 128,-1,15
 405 945 405 945 451.5 920 c 128,-1,16
 498 895 498 895 542 857.5 c 128,-1,17
 586 820 586 820 625 767 c 0,18,19
 641 746 641 746 657.5 712.5 c 128,-1,20
 674 679 674 679 689.5 641.5 c 128,-1,21
 705 604 705 604 718 567 c 128,-1,22
 731 530 731 530 737 501 c 1,23,-1
 216 501 l 1,24,25
 241 412 241 412 273.5 341.5 c 128,-1,26
 306 271 306 271 348.5 222.5 c 128,-1,27
 391 174 391 174 443.5 148 c 128,-1,28
 496 122 496 122 560 122 c 0,29,30
 594 122 594 122 622.5 129.5 c 128,-1,31
 651 137 651 137 675.5 152.5 c 128,-1,32
 700 168 700 168 722.5 193 c 128,-1,33
 745 218 745 218 770 252 c 1,34,-1
 807 230 l 1,35,36
 743 69 743 69 637 10 c 0,37,38
 600 -10 600 -10 557.5 -19.5 c 128,-1,39
 515 -29 515 -29 466 -29 c 0,40,41
 396 -29 396 -29 320.5 2 c 128,-1,42
 245 33 245 33 168 90 c 1,43,44
 98 148 98 148 42.5 245.5 c 128,-1,45
 -13 343 -13 343 -40 470 c 0,46,47
 -91 710 -91 710 3 837 c 0,48,49
 101 968 101 968 267 968 c 0,13,14
EndSplineSet
Substitution2: "<17016,16016> Urdu Swash lookup 75 subtable" e
PairPos2: "'kern' Horizontal Kerning in Arabic lookup 0 subtable" afii57509 dx=0 dy=0 dh=0 dv=0 dx=0 dy=0 dh=250 dv=0
PairPos2: "'kern' Horizontal Kerning in Arabic lookup 0 subtable" uni06AB dx=0 dy=0 dh=0 dv=0 dx=0 dy=0 dh=250 dv=0
PairPos2: "'kern' Horizontal Kerning in Arabic lookup 0 subtable" uni06A9 dx=0 dy=0 dh=0 dv=0 dx=0 dy=0 dh=250 dv=0
PairPos2: "'kern' Horizontal Kerning in Arabic lookup 0 subtable" uniFB94 dx=0 dy=0 dh=0 dv=0 dx=0 dy=0 dh=250 dv=0
PairPos2: "'kern' Horizontal Kerning in Arabic lookup 0 subtable" uniFBD5 dx=0 dy=0 dh=0 dv=0 dx=0 dy=0 dh=250 dv=0
PairPos2: "'kern' Horizontal Kerning in Arabic lookup 0 subtable" uni06AB.ini dx=0 dy=0 dh=0 dv=0 dx=0 dy=0 dh=250 dv=0
PairPos2: "'kern' Horizontal Kerning in Arabic lookup 0 subtable" uniFB90 dx=0 dy=0 dh=0 dv=0 dx=0 dy=0 dh=250 dv=0
PairPos2: "'kern' Horizontal Kerning in Arabic lookup 0 subtable" uniFEDB dx=0 dy=0 dh=0 dv=0 dx=0 dy=0 dh=250 dv=0
PairPos2: "'kern' Horizontal Kerning in Arabic lookup 0 subtable" uni0671 dx=0 dy=0 dh=0 dv=0 dx=0 dy=0 dh=200 dv=0
PairPos2: "'kern' Horizontal Kerning in Arabic lookup 0 subtable" afii57410 dx=0 dy=0 dh=0 dv=0 dx=0 dy=0 dh=200 dv=0
PairPos2: "'kern' Horizontal Kerning in Arabic lookup 0 subtable" afii57415 dx=0 dy=0 dh=0 dv=0 dx=0 dy=0 dh=50 dv=0
EndChar

StartChar: f
Encoding: 102 102 73
Width: 682
GlyphClass: 2
Flags: W
LayerCount: 2
Fore
SplineSet
31 52 m 1,0,1
 96 57 96 57 116.5 84.5 c 128,-1,2
 137 112 137 112 123 174 c 2,3,-1
 -18 838 l 1,4,-1
 -136 838 l 1,5,-1
 -155 930 l 1,6,-1
 -37 930 l 1,7,-1
 -53 1005 l 2,8,9
 -75 1108 -75 1108 -68 1184.5 c 128,-1,10
 -61 1261 -61 1261 -27 1311.5 c 128,-1,11
 7 1362 7 1362 65 1387 c 128,-1,12
 123 1412 123 1412 204 1412 c 0,13,14
 256 1412 256 1412 309 1399.5 c 128,-1,15
 362 1387 362 1387 406 1361.5 c 128,-1,16
 450 1336 450 1336 482 1298 c 128,-1,17
 514 1260 514 1260 524 1209 c 0,18,19
 537 1151 537 1151 513.5 1116 c 128,-1,20
 490 1081 490 1081 436 1081 c 0,21,22
 418 1081 418 1081 398 1088 c 128,-1,23
 378 1095 378 1095 359.5 1108.5 c 128,-1,24
 341 1122 341 1122 327 1143 c 128,-1,25
 313 1164 313 1164 307 1191 c 0,26,27
 303 1210 303 1210 306 1230.5 c 128,-1,28
 309 1251 309 1251 314 1267.5 c 128,-1,29
 319 1284 319 1284 323.5 1295.5 c 128,-1,30
 328 1307 328 1307 327 1308 c 0,31,32
 325 1320 325 1320 317.5 1327.5 c 128,-1,33
 310 1335 310 1335 298.5 1339 c 128,-1,34
 287 1343 287 1343 274 1344.5 c 128,-1,35
 261 1346 261 1346 248 1346 c 0,36,37
 185 1346 185 1346 165 1312.5 c 128,-1,38
 145 1279 145 1279 163 1193 c 2,39,-1
 219 930 l 1,40,-1
 397 930 l 1,41,-1
 416 838 l 1,42,-1
 238 838 l 1,43,-1
 372 211 l 2,44,45
 381 162 381 162 398 129 c 128,-1,46
 415 96 415 96 434 82 c 0,47,48
 475 60 475 60 571 52 c 1,49,-1
 582 0 l 1,50,-1
 42 0 l 1,51,-1
 31 52 l 1,0,1
EndSplineSet
Substitution2: "<17016,16016> Urdu Swash lookup 75 subtable" f
PairPos2: "'kern' Horizontal Kerning in Arabic lookup 0 subtable" afii57509 dx=0 dy=0 dh=0 dv=0 dx=0 dy=0 dh=250 dv=0
PairPos2: "'kern' Horizontal Kerning in Arabic lookup 0 subtable" uni06AB dx=0 dy=0 dh=0 dv=0 dx=0 dy=0 dh=250 dv=0
PairPos2: "'kern' Horizontal Kerning in Arabic lookup 0 subtable" uni06A9 dx=0 dy=0 dh=0 dv=0 dx=0 dy=0 dh=250 dv=0
PairPos2: "'kern' Horizontal Kerning in Arabic lookup 0 subtable" uniFB94 dx=0 dy=0 dh=0 dv=0 dx=0 dy=0 dh=250 dv=0
PairPos2: "'kern' Horizontal Kerning in Arabic lookup 0 subtable" uniFBD5 dx=0 dy=0 dh=0 dv=0 dx=0 dy=0 dh=250 dv=0
PairPos2: "'kern' Horizontal Kerning in Arabic lookup 0 subtable" uni06AB.ini dx=0 dy=0 dh=0 dv=0 dx=0 dy=0 dh=250 dv=0
PairPos2: "'kern' Horizontal Kerning in Arabic lookup 0 subtable" uniFB90 dx=0 dy=0 dh=0 dv=0 dx=0 dy=0 dh=250 dv=0
PairPos2: "'kern' Horizontal Kerning in Arabic lookup 0 subtable" uniFEDB dx=0 dy=0 dh=0 dv=0 dx=0 dy=0 dh=250 dv=0
PairPos2: "'kern' Horizontal Kerning in Arabic lookup 0 subtable" uni0671 dx=0 dy=0 dh=0 dv=0 dx=0 dy=0 dh=200 dv=0
PairPos2: "'kern' Horizontal Kerning in Arabic lookup 0 subtable" afii57410 dx=0 dy=0 dh=0 dv=0 dx=0 dy=0 dh=200 dv=0
PairPos2: "'kern' Horizontal Kerning in Arabic lookup 0 subtable" afii57415 dx=0 dy=0 dh=0 dv=0 dx=0 dy=0 dh=50 dv=0
EndChar

